<?xml version="1.0" encoding="UTF-8"?>
<svg id="Layer_1" data-name="Layer 1" xmlns="http://www.w3.org/2000/svg" viewBox="0 0 73.89 73.89">
  <defs>
    <style>
      .cls-1 {
        fill: #00ae7c;
      }

      .cls-2 {
        fill: #3671b8;
      }

      .cls-3 {
        fill: #f2e34d;
      }

      .cls-4 {
        fill: #f0484a;
      }

      .cls-5 {
        fill: #f47f51;
      }

      .cls-6 {
        fill: #f0eaec;
      }
    </style>
  </defs>
  <path class="cls-6" d="M36.94,36.94L15.5,6.85C21.92,2.28,29.58-.06,37.29,0l-.34,36.94Z"/>
  <path class="cls-1" d="M37.29,0c7.54.06,15.13,2.43,21.65,7.26l-21.99,29.68L37.29,0Z"/>
  <path class="cls-6" d="M36.94,36.94L1.7,48.03c-2.31-7.36-2.3-15.37.21-22.83l35.03,11.75Z"/>
  <path class="cls-3" d="M14.95,66.63c-6.52-4.83-10.99-11.4-13.25-18.6l35.24-11.09-21.99,29.69Z"/>
  <path class="cls-6" d="M36.94,36.94h0l-.34,36.94c-7.54-.06-15.13-2.43-21.65-7.26l21.99-29.69Z"/>
  <path class="cls-4" d="M58.38,67.04c-6.41,4.57-14.07,6.91-21.78,6.85l.34-36.94,21.44,30.09Z"/>
  <path class="cls-2" d="M36.94,36.94l35.24-11.09c2.31,7.36,2.3,15.37-.21,22.83l-35.03-11.75Z"/>
  <path class="cls-6" d="M36.94,36.94L58.94,7.26c6.52,4.83,10.99,11.4,13.25,18.6l-35.24,11.09Z"/>
  <path class="cls-5" d="M1.92,25.2c2.58-7.7,7.45-13.98,13.59-18.35l21.43,30.09L1.92,25.2Z"/>
  <path class="cls-6" d="M36.94,36.94l35.03,11.74c-2.58,7.7-7.45,13.98-13.59,18.35l-21.44-30.09Z"/>
</svg>