<?xml version="1.0" encoding="UTF-8"?>
<svg id="Layer_1" xmlns="http://www.w3.org/2000/svg" version="1.1" viewBox="0 0 84.6 93.4">
  <!-- Generator: Adobe Illustrator 29.8.3, SVG Export Plug-In . SVG Version: 2.1.1 Build 3)  -->
  <defs>
    <style>
      .st0 {
        fill: #1c9b79;
      }

      .st1 {
        fill: #e1d3d9;
      }

      .st2 {
        fill: none;
        stroke: #ec6471;
        stroke-linecap: round;
        stroke-miterlimit: 10;
        stroke-width: 1.5px;
      }

      .st3 {
        fill: #ec6471;
      }

      .st4 {
        fill: #47385c;
      }

      .st5 {
        fill: #f58b63;
      }
    </style>
  </defs>
  <path class="st5" d="M70.6,32.4c-2.8-.3-16.9-1.9-19.6-1.9h-13.9s0,0,0,0c0,0,0,0,0,0h-1.8l-6.2-.2c-3.2-.1-6.3.1-9.5.4-5.2.5-13.9,1.4-16.1,1.7-2.1.2-3.5,2.1-3.3,4.2.1,1.3.9,2.3,1.9,2.9.6.5,1.4.8,2.2.7l15.3-1.8c0,2.9,0,5.7,0,8.6,0,3.9,0,7.7,0,11.6,0,1.9-.2,3.9-.3,5.8-.4,3.9-.8,7.8-1.3,11.7-.5,4-.9,8.1-1.5,12.1,0,.2,0,.3,0,.5-.3,1.6.3,3.2,1.7,4,.8.5,1.6.7,2.4.7,2,0,3.7-1.4,4.1-3.5.4-2.8,1.9-15.7,2.7-23.6h20c.8,7.9,2.3,20.8,2.7,23.6.3,2,2.1,3.5,4.1,3.5s.4,0,.7,0c2.2-.4,3.8-2.5,3.4-4.7-.4-2.6-2-16.8-2.8-24.5,0-.7,0-1.4,0-2.1,0-7.8,0-23.7,0-23.7.7,0,1.4.1,2,.2,1.1.1,2.4.2,3.6.4,4.5.5,8.4,1.1,9.1,1.1.3,0,.5,0,.7-.1,1.6-.3,2.9-1.6,3.1-3.3.2-2.1-1.2-3.9-3.3-4.2Z"/>
  <path class="st5" d="M75.8,77.6c-6.5,0-10.6-6-14-10.8-.6-.9-1.2-1.7-1.8-2.5-4.1-5.5-6.2-6.2-9.3-6.7-1.6-.3-2.7-1.8-2.5-3.5.3-1.6,1.8-2.7,3.5-2.5,4.7.8,8.2,2.5,13.1,9,.6.8,1.2,1.7,1.9,2.7,2.7,3.9,5.7,8.2,9.1,8.2s3.9-1.3,3.9-1.3c1.3-1,3.2-.8,4.2.4,1,1.3.9,3.1-.4,4.2-.3.3-3.3,2.7-7.7,2.7Z"/>
  <g>
    <path class="st1" d="M19.3,8.8c0,6.5.6,13.4,3.8,19.1,2.8,5.1,7.9,6.9,13.5,6.9,4.6,0,9.4-1.1,13-4.5,3.5-3.3,4.9-8.4,5.1-13.1.1-2.6,0-5.2,0-7.8,0-1.3-.5-8.4-.5-8.4l-6.6,7.4-20.3-.3S19.8,0,19.8,0c0,0-.5,6.1-.5,6.6,0,.7,0,1.5,0,2.2h0Z"/>
    <path class="st4" d="M23.8,18.5c.5-.7.9-1.5,1.6-2,1.1-.9,2.9-1.3,4.3-1.3,1.1,0,1.4-.8,1.7-1.9.4-1.5.8-3.5.7-5.1-1.1,0-4.8,0-4.8,0,0,0-2.8-3-4.8-5.2h0c-.4-.4-1.2-1.6-1.7-.9-.3.4,0,1,.9,1.9s2,3.9,2.1,5.2c0,1.2-.6,2.2-1.4,3.1-1,1.2-2.6,1.7-2.9,3.4.1,1.3.3,2.6.5,3.9.1.4.2.8.5,1,1.2.8,2.5-.8,3.3-2h0Z"/>
    <path class="st4" d="M54.6,9.4c0-1.3-.5-8.9-.5-8.9l-6.9,7.9s-16-.3-17-.3,1.2,4.4,1.7,5.3c1.3,2.4,4.5,1.5,6.7,2.3,1.8.7,1.4,1.7,2.1,3.3,0,1.5-.4,2.8.3,4.2.7,1.4,1.6,2.2,3.1,2.6,1.9.6,6.3,1.2,7.8-.5.7-.9,1.3-1.8,1.8-2.8.5-1.8.7-3.6.8-5.4.1-2.6,0-5.2,0-7.8Z"/>
    <path class="st5" d="M41.3,17.8c.1-.2.3-.4.4-.5.5-.5,1.1-1,1.8-1.3.4-.2,1.7-.3,1.8-.8.2-.9-.7-1.1-1.4-1.2-1.2-.1-2-1.3-3.1-1.8-1-.4-1.3.1-1.9.7-.8.7-1.4.4-2.1-.2-.3-.3-.9-1.1-1.5-.9-.8.2-.7,1.7-1.8,1.5-.9-.2-.7-1.4-1-2.1-.5-1.1-1.6-.5-2.3,0-1.3,1-3,1.1-4.6,1.7-1.5.6-2.9,1.7-3.7,3.1-1.8,3.1-1,9.6,3.4,10.1,1,.1,3.6-.5,4.5-1,.8-.4,1.3-1.8,2.4-1.3.4.2.6.6.9.9.2.2.4.3.7.3.5,0,.8-.6.8-1,0-.5-.2-1.2-.2-1.2,0,0,.4-.4.8-1.1.2-.4,1.2-4.8,2.2-3.9,0,0,.1.2.1.4.1.7.9,1.4,1.4,2,.1.1,1.2.9,1.2,1.1,0-1.2.5-2.4,1.2-3.4h0Z"/>
    <path class="st2" d="M37,25.2c0,.2,0,1.5,0,1.9"/>
    <path class="st3" d="M39.6,22.9s0,.4,0,.7c0,.6.3,2.9-.9,2.5-.3-.1-.3-.6-.6-.7-.7-.2-.4.7-1.1.7-.5,0-.4-.9-1.1-.9s-.5.8-.8.9c0,0-.2,0-.3,0,0,0-.1,0-.2-.1,0-.1,0-.3,0-.5,0-.5,0-2.6,0-2.6.3,0,2.2,0,3.1,0h2.1,0Z"/>
    <line class="st2" x1="31.6" y1="22.8" x2="23.2" y2="22.8"/>
    <line class="st2" x1="31.5" y1="25.7" x2="23.2" y2="26.9"/>
    <line class="st2" x1="30.8" y1="28.8" x2="25.1" y2="30.9"/>
    <line class="st2" x1="42.7" y1="22.8" x2="51.3" y2="22.8"/>
    <line class="st2" x1="42.7" y1="25.8" x2="51.1" y2="26.7"/>
    <line class="st2" x1="43.4" y1="28.7" x2="49.5" y2="30.3"/>
    <path class="st2" d="M26.2,15.7c3.6-1.3,7.2,2.1,7.7,5.5l.3,1.7"/>
    <path class="st2" d="M47.8,15.6c-3.6-1.3-7.1,2.1-7.7,5.5l-.3,1.7"/>
    <path class="st5" d="M22.4,12.5c.8-.9,2-.8,2.8-1.3.9-.5,1.4-1.7.7-2.6-1.2-1.7-3.4-.6-4.4.5-.7.8-1.3.6-2.2.5,0,0,0,.5,0,.8,0,1.8.1,3.6.3,5.3,1.2-.4,2.2-2.4,2.9-3.2h0Z"/>
    <path class="st3" d="M25.9,8.6s-.7-.8-2-2.3c-.2-.2-3-3.2-3-3.2-.3,1.8-.4,3.7-.5,5.6h5.4c0-.1,0-.1,0-.1Z"/>
    <path class="st3" d="M48.5,8.7s1.1-1.3,2.3-2.8c.2-.2,2.5-3,2.5-3,.2,2,.2,5.9.2,5.9,0,0-5,0-5,0Z"/>
    <path class="st4" d="M41.6,30.6c0,0-.2.1-.3.2-1,.5-2.2-.3-3.2,0-.9.2-1.2.3-2.1,0-.3-.2-.7-.4-1-.4-.6,0-1.2.4-1.8.6-2.1.6-2.5-3.3-.5-3.6.7-.1,1.3.2,2,.2.6,0,1.1-.2,1.7-.2,1,0,1.5.6,2.4.2.7-.3,1.4-.4,2.2-.2,1.2.3,1.5,2.4.6,3.3h0Z"/>
  </g>
  <g>
    <path class="st1" d="M66.9,63.5s0,0,0-.1c-.6-.9-1.3-1.8-1.9-2.7-1.6-2.1-3-3.7-4.4-5-.2.6-.5,1.3-.6,1.7-.4,1.3-1.1,3.3-1.5,4.8.5.6,1,1.3,1.6,2,.4.6.8,1.1,1.3,1.8.7-.3,1.5-.9,2.1-1.1.9-.3,2.3-1,3.4-1.5Z"/>
    <path class="st1" d="M83.6,75c1.3-1.1,1.4-2.9.4-4.2-1-1.3-2.9-1.5-4.2-.4,0,0-1.6,1.3-3.9,1.3s-2-.4-2.9-1c-1.6,1.3-3.1,2.9-3.7,4.7,1.9,1.4,4.1,2.3,6.6,2.3,4.5,0,7.4-2.4,7.7-2.7Z"/>
  </g>
  <g>
    <path class="st4" d="M66.8,63.4c-.6-.9-1.3-1.8-1.9-2.7,0,0,0,0-.1-.1-1.2,1.4-2.4,3.3-3.7,4.4l-.3.4c.3.5.7,1,1,1.4.1.2.3.4.4.6,1.7-.6,3.7-2.1,5.2-3.1-.2-.3-.4-.6-.7-1Z"/>
    <path class="st4" d="M75,71.5c-1.2-.3-2.4-1.1-3.5-2.2-1.2,1.3-2.3,3.5-3,5.4,1.1.9,2.2,1.6,3.5,2.1,1.1-2.7,3-5.3,3-5.3Z"/>
    <path class="st4" d="M79.7,70.4s-.8.6-2.1,1c.3,2.2-.5,4.9-1,6.2,1.7-.1,3.1-.5,4.2-1,1.1-2.9.7-5.2.3-6.8-.5,0-1,.3-1.5.6Z"/>
  </g>
  <path id="eye" class="st0" d="M29.1,16.8c4.2,1.2,0,4.4-2.6,2.7-2.1-1.6.6-3.1,2.4-2.7,0,0,.2,0,.2,0Z"/>
  <path id="pupil" class="st4" d="M29.2,17c1,1.7-1.4,3.7-2.1,1.2-.3-1.1,1-2.4,2-1.4,0,0,.1.1.1.1Z"/>
  <path id="eye-2" class="st0" d="M45.9,16.7c-4.2,1.2,0,4.4,2.6,2.7,2.1-1.6-.6-3.1-2.3-2.7h-.2s0,0,0,0Z"/>
  <path id="pupil-2" class="st4" d="M45.7,17c-1,1.7,1.4,3.7,2.1,1.2.3-1.1-1-2.4-2-1.4,0,0,0,.1-.1.1Z"/>
  <g>
    <path class="st1" d="M3.3,32.4c-2.1.2-3.5,2.1-3.3,4.2.1,1.3.9,2.3,1.9,2.9.6.5,1.4.8,2.2.7l6.1-.7c.3-1.4.7-5.8.9-7.9-3.5.4-6.7.7-7.9.9Z"/>
    <path class="st1" d="M22.1,32.8c-.4-1.1-1.7-2.1-2.9-1.5-1.2.7-1.4,2.3-1.6,3.6,0,.9-.3,2.5-.5,3.8l2.4-.3h0s0,0,0,0c0,1.1,0,2.1,0,3.2.3-.1.5-.2.7-.3,2.7-1.7,2.7-5.7,1.8-8.5Z"/>
    <path class="st1" d="M25.2,54.6h0c3.1-.7,4.9-3.5,7-5.7,1.7-2,3.5-4.2,3.6-6.5.2-2.2-1.3-4.3-3.5-4.7-3.2-.6-5.8,1.9-8.5,3.6-1.4.9-2.9,1.5-4.3,2,0,1.2,0,2.4,0,3.6,0,2.3,0,4.7,0,7,1.9.7,3.9,1,5.6.7Z"/>
    <path class="st1" d="M48.3,54.5c-2.9.7-4.7,3.3-6.5,5.8-1,1.8-3,3.8-2.8,5.9h6.1c1.6-1.2,3.2-2.6,4.5-3,1.7-.8,3.7-.9,5.6-1.4,0-2,0-4.4,0-7-2.3-.7-5-.7-6.9-.4Z"/>
    <path class="st1" d="M53.6,42.6c-.9.1-1.8.3-2.6.9-.3.2-.6.5-.8.8-1,1.6-.2,3.5.9,4.9,1.7,2,4.1,2.2,4.1,2.2,0,0,0-.2,0-.6,0-3.1,0-6.1,0-8.4,0,0-1.6.2-1.7.2Z"/>
    <path class="st1" d="M70.8,39.8c1.6-.3,2.9-1.6,3.1-3.3.2-2.1-1.2-3.9-3.3-4.2-1-.1-3.3-.4-6-.7-1.2,2-1.6,4.9-1.4,7.4,3.5.4,6.3.8,6.8.8.3,0,.5,0,.7-.1Z"/>
    <path class="st1" d="M54.9,84.2c-.3,2.9-1.8,5.9-1.2,8.8,0,.1.1.3.2.4.1,0,.2,0,.3,0,.2,0,.4,0,.7,0,2.2-.4,3.8-2.5,3.4-4.7-.3-1.7-1.1-8.9-1.9-15.7-1.6,2.6-.9,9.1-1.4,11.3h0Z"/>
  </g>
  <g>
    <path class="st4" d="M7.2,38.1h0c-1.4-.8-4.4-.4-6.2.6.3.3.6.5.9.7.6.5,1.4.8,2.2.7l4.2-.5c-.4-.6-.9-1.3-1.2-1.5Z"/>
    <path class="st4" d="M23.4,44.1c2.2-.6,4.1-3.3,1.5-4.5-1.4-.4-3.7-1.3-5.4-1.2,0,1.9,0,3.7,0,5.6,1.1.6,2.6.6,3.9,0Z"/>
    <path class="st4" d="M32.1,49c-2.1-.5-5.4-1-6.5,1.3v.2h0c0,.5,0,1,.3,1.4,1.2,2.2,3.8,2.6,5.9,3.5.9.5,1.7,1.2,2.6,1.6,2,1.1,5.5.9,6.5-1.7,1-4.4-5.6-5.2-8.7-6.2Z"/>
    <path class="st4" d="M66.2,31.9c-4-.4-9.4-1-12.7-1.3-.2,2.2.9,5.8,2,7.7.6,0,1.3.1,1.9.2,1.1.1,2.4.2,3.6.4,1.9.2,3.8.5,5.3.6,1.9-2.3.6-6.1,0-7.6Z"/>
    <path class="st4" d="M20.3,77.3c0,0,.2-.2.2-.3.6-.9.5-3.1.8-5.4.4-4.2-2-7.2-2-7.3,0,0,0,0,0,0-.4,3.9-.8,7.8-1.3,11.7,0,.7-.2,1.5-.3,2.2.2-.2.6-.2.8-.2.6-.1,1.3-.2,1.7-.6Z"/>
    <path class="st4" d="M26.7,71.8c.2-2,.4-3.9.6-5.6h5.5c0-3-2.6-4.3-5.8-3.8s-5.4,7.4-.3,9.4Z"/>
    <path class="st4" d="M51,81.6h0c.5-1.6,0-3.4,0-5.1,0-1.8.3-3.9-.9-5.2-.5-.7-1.5-1.1-2.4-1.2.5,4.3,1,9.2,1.5,13.1.8-.2,1.6-.7,1.8-1.6Z"/>
  </g>
  <path class="st5" d="M60.7,36.2c-.9-.3-1.8,0-2.6.5-.4.3-.7.7-1,1.1,0,0-.2.4-.3.7.2,0,.3,0,.5,0,1.1.1,2.4.2,3.6.4.7,0,1.3.2,2,.2,0-.4-.2-.8-.2-1-.3-.9-1-1.7-2-2Z"/>
</svg>