<?xml version="1.0" encoding="UTF-8"?>
<svg id="Layer_1" data-name="Layer 1" xmlns="http://www.w3.org/2000/svg" viewBox="0 0 1728 727">
  <defs>
    <style>
      .cls-1 {
        fill: #4d315c;
        stroke: #4d315c;
        stroke-linecap: round;
        stroke-linejoin: round;
        stroke-width: 3.5px;
      }
    </style>
  </defs>
  <g>
    <path class="cls-1" d="M466.29,268.27l.14.14-2.9,96.01,49.8-96.57,2.62,96.57,44.01-96.01.14-.14c.09,0,.11.02.07.07-.05.05-.02.07.07.07l-44.83,97.12-2.21-96.57-50.08,96.57,3.03-97.12.14-.14Z"/>
    <path class="cls-1" d="M562.86,365.25c-.19-.09-.23-.14-.14-.14l24-96.57.14-.14c.09,0,.14.05.14.14l-24,96.57-.14.14Z"/>
    <path class="cls-1" d="M670.88,268.54l-.14.14h-55.32l-.14-.14.14-.14h55.32l.14.14ZM643.43,268.68c.09,0,.14.05.14.14l-23.87,96.29-.14.14-.14-.14,23.87-96.29.14-.14Z"/>
  </g>
  <g>
    <path class="cls-1" d="M852.37,268.27l.14.14-1.93,96.01,51.46-96.57,4,96.57,45.11-96.01.14-.14c.09,0,.14.05.14.14l-45.8,97.12-3.86-96.57-51.46,96.57,1.93-97.12.14-.14Z"/>
    <path class="cls-1" d="M961.9,360.83c-3.22-4.23-5.01-10.35-5.38-18.35-.37-8,.78-17.38,3.45-28.14,2.21-9.84,5.13-18.35,8.76-25.52,3.63-7.17,7.75-12.69,12.35-16.55,4.6-3.86,9.38-5.79,14.35-5.79,5.43,0,9.73,2.05,12.9,6.14,3.17,4.09,4.97,10,5.38,17.73.41,7.73-.58,16.79-2.97,27.18-2.3,10.21-5.27,19.04-8.9,26.49-3.63,7.45-7.73,13.17-12.28,17.17-4.55,4-9.27,6-14.14,6-5.79,0-10.3-2.12-13.52-6.35ZM989.49,360.9c4.5-4,8.57-9.7,12.21-17.11,3.63-7.4,6.6-16.16,8.9-26.28,2.3-10.39,3.24-19.4,2.83-27.04-.41-7.63-2.16-13.5-5.24-17.59-3.08-4.09-7.33-6.14-12.76-6.14-4.97,0-9.7,1.93-14.21,5.79-4.51,3.86-8.6,9.34-12.28,16.42-3.68,7.08-6.58,15.54-8.69,25.38-2.67,10.76-3.82,20.1-3.45,28,.37,7.91,2.14,13.98,5.31,18.21,3.17,4.23,7.61,6.35,13.31,6.35,4.87,0,9.56-2,14.07-6Z"/>
    <path class="cls-1" d="M1105.92,268.4c.09,0,.14.02.14.07s.04.07.14.07l-25.8,97.12-25.93-96.57-25.25,96.01-.14.14-.14-.14,25.66-97.12,25.8,96.57,25.38-96.02.14-.14Z"/>
    <path class="cls-1" d="M1138.62,268.27h17.11c6.35,0,11.45,1.84,15.31,5.52,3.86,3.68,6.05,9.38,6.55,17.11.5,7.72-.85,17.61-4.07,29.66-2.39,10.03-5.52,18.33-9.38,24.9-3.86,6.58-8.42,11.5-13.66,14.76-5.24,3.27-11.08,4.9-17.52,4.9h-18.21l23.87-96.84ZM1150.34,359.94c5.24-3.26,9.77-8.16,13.59-14.69,3.82-6.53,6.92-14.8,9.31-24.83,3.22-11.96,4.57-21.77,4.07-29.45-.51-7.68-2.64-13.33-6.42-16.97-3.77-3.63-8.83-5.45-15.17-5.45h-16.83l-23.87,96.29h17.93c6.35,0,12.14-1.63,17.38-4.9Z"/>
    <path class="cls-1" d="M1266.36,268.4l-.14.14h-47.04l-23.87,96.29h47.04l.14.14-.14.14h-47.32l23.87-96.84h47.32l.14.14ZM1247.32,316.69l-.14.14h-40.14l-.14-.14.14-.14h40.14l.14.14Z"/>
    <path class="cls-1" d="M1291.61,310.76l.14-.14h31.18c4.78,0,9.15-1.19,13.11-3.59,3.95-2.39,7.19-5.5,9.73-9.31,2.53-3.81,4.16-7.75,4.9-11.79.55-3.31.34-6.25-.62-8.83s-2.62-4.62-4.97-6.14c-2.34-1.52-5.27-2.28-8.76-2.28h-31.18l-30.21,96.43-.14.14c-.09,0-.14-.05-.14-.14l30.35-96.7h31.31c3.49,0,6.44.76,8.83,2.28,2.39,1.52,4.09,3.59,5.1,6.21,1.01,2.62,1.19,5.63.55,9.04-.64,4.23-2.25,8.23-4.83,12-2.58,3.77-5.84,6.88-9.79,9.31-3.96,2.44-8.37,3.66-13.24,3.66h-31.18l-.14-.14ZM1321.4,365.25l-.14-.14-.55-54.35.14-.14.14.14.55,54.35c-.09,0-.14.04-.14.14Z"/>
  </g>
  <g>
    <path class="cls-1" d="M1170.58,620.12l-.14-.14,24-96.98,19.59,46.49,42.49-46.63-24.28,97.12-.14.14-.14-.14,24-96.01-42.08,46.07-19.31-46.21-23.87,96.15-.14.14Z"/>
    <path class="cls-1" d="M1269.22,619.98l-.14-.14,23.73-96.57.14-.14c.09,0,.14.05.14.14l-23.73,96.57-.14.14Z"/>
    <path class="cls-1" d="M1380.27,523.14c.09,0,.14.02.14.07s.04.07.14.07l-25.8,97.12-25.93-96.57-25.25,96.01-.14.14-.14-.14,25.66-97.12,25.8,96.57,25.38-96.02.14-.14Z"/>
    <path class="cls-1" d="M1412.96,523h17.11c6.35,0,11.45,1.84,15.31,5.52,3.86,3.68,6.05,9.38,6.55,17.11.5,7.72-.85,17.61-4.07,29.66-2.39,10.03-5.52,18.33-9.38,24.9-3.86,6.58-8.42,11.5-13.66,14.76-5.24,3.27-11.08,4.9-17.52,4.9h-18.21l23.87-96.84ZM1424.69,614.67c5.24-3.26,9.77-8.16,13.59-14.69,3.82-6.53,6.92-14.8,9.31-24.83,3.22-11.96,4.57-21.77,4.07-29.45-.51-7.68-2.64-13.33-6.42-16.97-3.77-3.63-8.83-5.45-15.17-5.45h-16.83l-23.87,96.29h17.93c6.35,0,12.14-1.63,17.38-4.9Z"/>
    <path class="cls-1" d="M1470.77,597.49l.14.14c-.09,4.51.73,8.6,2.48,12.28,1.75,3.68,4.3,6.6,7.66,8.76,3.36,2.16,7.2,3.24,11.52,3.24,4.78,0,9.17-1.13,13.17-3.38,4-2.25,7.26-5.22,9.79-8.9,2.53-3.68,3.98-7.68,4.35-12,.55-4.05.14-7.63-1.24-10.76-1.38-3.12-3.27-5.84-5.66-8.14-2.39-2.3-5.57-5.01-9.52-8.14-4.05-3.04-7.22-5.68-9.52-7.93-2.3-2.25-4.14-4.97-5.52-8.14-1.38-3.17-1.89-6.73-1.52-10.69.64-4.23,2.28-8.05,4.9-11.45,2.62-3.4,5.86-6.05,9.73-7.93s7.95-2.83,12.28-2.83,8.28.99,11.31,2.96c3.03,1.98,5.17,4.74,6.41,8.28,1.24,3.54,1.49,7.52.76,11.93l-.14.14-.14-.14c.73-4.41.5-8.35-.69-11.79-1.2-3.45-3.31-6.16-6.35-8.14-3.03-1.98-6.76-2.97-11.17-2.97s-8.28.92-12.14,2.76-7.1,4.46-9.73,7.86-4.21,7.17-4.76,11.31c-.37,3.86.11,7.36,1.45,10.48,1.33,3.13,3.19,5.82,5.59,8.07,2.39,2.26,5.56,4.9,9.52,7.93,3.95,3.13,7.13,5.84,9.52,8.14,2.39,2.3,4.3,5.04,5.73,8.21,1.42,3.17,1.81,6.83,1.17,10.97-.46,4.32-1.96,8.35-4.48,12.07-2.53,3.72-5.82,6.74-9.86,9.04-4.05,2.3-8.46,3.45-13.24,3.45-4.51,0-8.44-1.08-11.79-3.24-3.36-2.16-5.91-5.1-7.66-8.83-1.75-3.72-2.58-7.88-2.48-12.48l.14-.14Z"/>
    <path class="cls-1" d="M1542.02,619.15c-.23-.46-.3-1.01-.21-1.65.18-.74.5-1.33.97-1.79.46-.46.97-.69,1.52-.69s.9.23,1.03.69c.14.46.11,1.06-.07,1.79-.09.64-.37,1.2-.83,1.65s-.92.69-1.38.69-.81-.23-1.03-.69ZM1544.29,618.95c.37-.41.6-.9.69-1.45.18-.74.23-1.29.14-1.66-.09-.37-.37-.55-.83-.55s-.9.21-1.31.62c-.41.41-.71.95-.9,1.59-.09.64-.05,1.15.14,1.52.18.37.46.55.83.55.46,0,.87-.21,1.24-.62Z"/>
  </g>
  <g>
    <path class="cls-1" d="M347.13,337.28c-1.54-1.81-2.44-4.41-2.69-7.78-.25-3.37.17-7.32,1.26-11.85.94-4.13,2.22-7.72,3.86-10.76,1.64-3.04,3.49-5.39,5.56-7.05,2.07-1.66,4.23-2.49,6.49-2.49,2.53,0,4.56.88,6.08,2.63,1.52,1.75,2.43,4.27,2.72,7.55.29,3.28-.07,7.1-1.08,11.46-.98,4.29-2.28,8.01-3.92,11.14-1.64,3.14-3.49,5.57-5.56,7.28-2.07,1.72-4.23,2.57-6.49,2.57-2.61,0-4.69-.91-6.23-2.72ZM359.82,337.31c2.05-1.71,3.89-4.13,5.53-7.25,1.64-3.12,2.93-6.8,3.86-11.06,1.01-4.37,1.38-8.18,1.11-11.44-.27-3.26-1.16-5.75-2.66-7.49-1.5-1.74-3.52-2.6-6.05-2.6-2.26,0-4.42.82-6.46,2.46-2.05,1.64-3.88,3.97-5.5,6.99-1.62,3.02-2.9,6.6-3.83,10.73-1.09,4.53-1.52,8.45-1.29,11.79.23,3.33,1.12,5.91,2.66,7.72,1.54,1.81,3.6,2.72,6.17,2.72,2.26,0,4.42-.86,6.46-2.57Z"/>
    <path class="cls-1" d="M411.45,298.23l-.06.06h-23.4l-10.12,40.89-.06.06s.02-.02-.06-.06l10.18-41.01h23.46l.06.06ZM401.91,318.82l-.06.06h-18.9l-.06-.06.06-.06h18.9l.06.06Z"/>
  </g>
  <g>
    <path class="cls-1" d="M713.71,339.24l-4.68-40.89-24.92,40.89-.06-.06,25.04-41.07,4.74,41.13h-.12ZM711.6,319.53l-15.44-.12v-.12l15.44.12v.12Z"/>
    <path class="cls-1" d="M759.1,298.17s.06,0,.06.03c0,.02.02.03.06.03l-10.94,41.13-12.99-40.95-10.71,40.78-.06.06-.06-.06,10.82-41.13,12.99,40.95,10.76-40.78.06-.06Z"/>
    <path class="cls-1" d="M773.79,298.11h8.48c2.85,0,5.15.8,6.9,2.4,1.76,1.6,2.78,4.05,3.07,7.34.29,3.3-.26,7.48-1.67,12.55-1.01,4.25-2.39,7.75-4.12,10.5-1.74,2.75-3.76,4.82-6.08,6.2-2.32,1.38-4.96,2.08-7.93,2.08h-8.77l10.12-41.07ZM780.31,337.02c2.32-1.37,4.34-3.43,6.06-6.2,1.72-2.77,3.08-6.26,4.09-10.47,1.4-5.03,1.96-9.18,1.67-12.46-.29-3.28-1.3-5.7-3.01-7.28-1.72-1.58-4-2.37-6.84-2.37h-8.37l-10.12,40.83h8.66c2.93,0,5.55-.68,7.87-2.05Z"/>
  </g>
  <g>
    <path class="cls-1" d="M184.74,442.24l-.06.06h-23.4l-10.12,40.89-.06.06s.02-.02-.06-.06l10.18-41.01h23.46l.06.06ZM175.2,462.84l-.06.06h-18.9l-.06-.06.06-.06h18.9l.06.06Z"/>
    <path class="cls-1" d="M189.15,481.29c-1.54-1.81-2.44-4.41-2.69-7.78-.25-3.37.17-7.32,1.26-11.85.94-4.13,2.22-7.72,3.86-10.76,1.64-3.04,3.49-5.39,5.56-7.05,2.07-1.66,4.23-2.49,6.49-2.49,2.53,0,4.56.88,6.08,2.63,1.52,1.75,2.43,4.27,2.72,7.55.29,3.28-.07,7.1-1.08,11.46-.98,4.29-2.28,8.01-3.92,11.14-1.64,3.14-3.49,5.57-5.56,7.28-2.07,1.72-4.23,2.57-6.49,2.57-2.61,0-4.69-.91-6.23-2.72ZM201.85,481.32c2.05-1.71,3.89-4.13,5.53-7.25,1.64-3.12,2.93-6.8,3.86-11.06,1.01-4.37,1.38-8.18,1.11-11.44-.27-3.26-1.16-5.75-2.66-7.49-1.5-1.74-3.52-2.6-6.05-2.6-2.26,0-4.42.82-6.46,2.46-2.05,1.64-3.88,3.97-5.5,6.99-1.62,3.02-2.9,6.6-3.83,10.73-1.09,4.53-1.52,8.45-1.29,11.79.23,3.33,1.12,5.91,2.66,7.72,1.54,1.81,3.6,2.72,6.17,2.72,2.26,0,4.42-.86,6.46-2.57Z"/>
    <path class="cls-1" d="M225.45,460.38l.06-.06h14.33c1.99,0,3.8-.47,5.44-1.4,1.64-.94,2.98-2.18,4.04-3.74,1.05-1.56,1.72-3.2,1.99-4.91.19-1.56.06-2.95-.41-4.15-.47-1.21-1.26-2.14-2.37-2.81-1.11-.66-2.49-.99-4.12-.99h-14.39l-10.12,40.89-.06.06s.02-.02-.06-.06l10.18-41.01h14.45c1.68,0,3.07.34,4.18,1.02,1.11.68,1.91,1.64,2.4,2.87.49,1.23.63,2.62.44,4.18-.27,1.75-.95,3.41-2.02,4.97-1.07,1.56-2.42,2.82-4.04,3.77-1.62.96-3.46,1.43-5.53,1.43h-14.33l-.06-.06ZM241.19,483.25l-.06-.06-2.11-22.82s.02-.06.06-.06l.06.06,2.11,22.82s.02.02-.06.06Z"/>
  </g>
  <g>
    <path class="cls-1" d="M344.5,483.77c0,.08.04.11.11.11-.98,3.86-2.78,7.42-5.39,10.67-2.61,3.26-5.77,5.77-9.48,7.55-3.71,1.78-7.65,2.52-11.81,2.21-5.07-.23-9.14-1.95-12.21-5.17-3.07-3.22-4.84-8.04-5.34-14.48-.49-6.43.51-14.46,3.01-24.07,2.27-9.08,5-16.52,8.17-22.31,3.18-5.79,6.72-10.05,10.62-12.77,3.9-2.72,8.12-4.09,12.66-4.09,4.77,0,8.8,1.1,12.09,3.29,3.29,2.2,5.54,5.21,6.76,9.03,1.21,3.82,1.21,8.04,0,12.66h-.11l-.11-.12c1.21-4.54,1.19-8.7-.06-12.49-1.25-3.78-3.48-6.76-6.7-8.91-3.22-2.16-7.17-3.24-11.86-3.24s-8.84,1.34-12.66,4.03c-3.82,2.69-7.31,6.91-10.45,12.66-3.14,5.75-5.85,13.17-8.12,22.25-2.5,9.61-3.5,17.6-3.01,23.96.49,6.36,2.25,11.15,5.28,14.36,3.03,3.22,7.04,4.94,12.04,5.17,4.16.3,8.08-.44,11.75-2.21,3.67-1.78,6.81-4.28,9.42-7.49,2.61-3.22,4.37-6.72,5.28-10.5l.11-.11Z"/>
    <path class="cls-1" d="M430.22,423.02c.07,0,.11.04.11.12l-13.51,56.2c-1.29,5.22-3.31,9.67-6.07,13.34-2.76,3.67-5.98,6.47-9.65,8.4-3.67,1.93-7.7,2.93-12.09,3.01-5.07.15-9.29-.93-12.66-3.23-3.37-2.31-5.6-5.53-6.7-9.65-1.1-4.12-.96-8.72.4-13.79l12.49-54.27.11-.12c.07,0,.11.04.11.12l-12.6,54.27c-1.29,4.99-1.38,9.54-.28,13.62,1.1,4.09,3.29,7.29,6.59,9.59,3.29,2.31,7.47,3.39,12.55,3.24,4.31-.08,8.29-1.08,11.92-3.01,3.63-1.93,6.83-4.73,9.59-8.4,2.76-3.67,4.79-8.04,6.07-13.11l13.51-56.2.11-.12Z"/>
    <path class="cls-1" d="M449.63,458.33l.11-.11h27.82c3.86,0,7.38-.91,10.56-2.72,3.18-1.82,5.79-4.24,7.83-7.27,2.04-3.03,3.33-6.21,3.86-9.54.38-3.03.11-5.71-.79-8.06-.91-2.35-2.44-4.16-4.6-5.45s-4.83-1.93-8-1.93h-27.93l-19.64,79.36-.11.11c.07,0,.04-.04-.11-.11l19.76-79.59h28.04c3.25,0,5.96.66,8.12,1.99s3.71,3.18,4.66,5.56c.95,2.38,1.23,5.09.85,8.12-.53,3.41-1.84,6.62-3.92,9.65-2.08,3.03-4.69,5.47-7.83,7.32-3.14,1.86-6.72,2.78-10.73,2.78h-27.82l-.11-.12ZM480.18,502.73l-.11-.11-4.09-44.28c0-.07.04-.11.11-.11l.11.11,4.09,44.28c.07,0,.04.04-.11.11Z"/>
    <path class="cls-1" d="M512.2,502.73c-.15-.08-.19-.11-.11-.11l19.76-79.48.11-.12c.07,0,.11.04.11.12l-19.76,79.48-.11.11Z"/>
    <path class="cls-1" d="M551.65,498.92c-2.99-3.52-4.73-8.55-5.22-15.1-.49-6.55.32-14.21,2.44-22.99,1.82-8.02,4.31-14.99,7.49-20.89s6.77-10.46,10.79-13.68c4.01-3.22,8.21-4.82,12.6-4.82,4.92,0,8.86,1.7,11.81,5.11,2.95,3.4,4.71,8.29,5.28,14.65.57,6.36-.13,13.78-2.1,22.25-1.89,8.33-4.43,15.54-7.61,21.63-3.18,6.09-6.78,10.81-10.79,14.14-4.01,3.33-8.21,5-12.6,5-5.07,0-9.1-1.76-12.09-5.28ZM576.29,498.98c3.97-3.33,7.55-8.02,10.73-14.08,3.18-6.05,5.68-13.21,7.49-21.46,1.97-8.48,2.69-15.88,2.16-22.2-.53-6.32-2.25-11.16-5.17-14.53-2.92-3.37-6.83-5.05-11.75-5.05-4.39,0-8.57,1.59-12.55,4.77-3.97,3.18-7.53,7.7-10.67,13.57-3.14,5.87-5.62,12.81-7.44,20.83-2.12,8.78-2.95,16.41-2.5,22.88.45,6.47,2.18,11.47,5.17,14.99,2.99,3.52,6.98,5.28,11.98,5.28,4.39,0,8.57-1.66,12.55-4.99Z"/>
    <path class="cls-1" d="M676.14,423.02c.07,0,.11.04.11.12l-13.51,56.2c-1.29,5.22-3.31,9.67-6.07,13.34-2.76,3.67-5.98,6.47-9.65,8.4-3.67,1.93-7.7,2.93-12.09,3.01-5.07.15-9.29-.93-12.66-3.23-3.37-2.31-5.6-5.53-6.7-9.65-1.1-4.12-.96-8.72.4-13.79l12.49-54.27.11-.12c.07,0,.11.04.11.12l-12.6,54.27c-1.29,4.99-1.38,9.54-.28,13.62,1.1,4.09,3.29,7.29,6.59,9.59,3.29,2.31,7.47,3.39,12.55,3.24,4.31-.08,8.29-1.08,11.92-3.01,3.63-1.93,6.83-4.73,9.59-8.4,2.76-3.67,4.79-8.04,6.07-13.11l13.51-56.2.11-.12Z"/>
    <path class="cls-1" d="M683.86,483.31l.11.11c0,3.79.81,7.27,2.44,10.45,1.63,3.18,3.99,5.71,7.1,7.61,3.1,1.89,6.7,2.84,10.79,2.84s8.12-.91,11.64-2.72c3.52-1.82,6.38-4.22,8.57-7.21,2.19-2.99,3.48-6.22,3.86-9.71.6-3.48.24-6.55-1.08-9.2-1.33-2.65-3.12-4.92-5.39-6.81-2.27-1.89-5.3-4.05-9.08-6.47-3.79-2.5-6.79-4.66-9.03-6.47-2.23-1.82-3.99-4.03-5.28-6.64-1.29-2.61-1.7-5.62-1.25-9.03.53-3.63,1.97-6.81,4.31-9.54,2.35-2.72,5.22-4.86,8.63-6.41s7-2.33,10.79-2.33c4.16,0,7.68.85,10.56,2.55,2.88,1.7,4.9,4.09,6.07,7.15,1.17,3.07,1.46,6.46.85,10.16l-.11.11-.11-.11c.6-3.78.32-7.15-.85-10.11-1.17-2.95-3.18-5.28-6.02-6.98-2.84-1.7-6.3-2.55-10.39-2.55-3.79,0-7.36.76-10.73,2.27-3.37,1.52-6.21,3.63-8.52,6.36-2.31,2.72-3.73,5.87-4.26,9.42-.45,3.33-.06,6.28,1.19,8.86,1.25,2.57,3.01,4.79,5.28,6.64,2.27,1.86,5.3,3.99,9.08,6.42,3.78,2.57,6.81,4.77,9.08,6.58,2.27,1.82,4.07,4.07,5.39,6.76,1.32,2.69,1.68,5.81,1.08,9.37-.38,3.48-1.69,6.74-3.92,9.76-2.23,3.03-5.13,5.47-8.69,7.32-3.56,1.85-7.46,2.78-11.69,2.78s-7.82-.95-10.96-2.84c-3.14-1.89-5.55-4.45-7.21-7.66-1.67-3.22-2.46-6.76-2.38-10.62l.11-.11Z"/>
  </g>
  <g>
    <path class="cls-1" d="M820.97,550.01l-.12.12h-42.47l21.42-86.8.12-.12.12.12-21.42,86.55h42.23l.12.12Z"/>
    <path class="cls-1" d="M844.87,550.26l-.12-.12,21.3-86.68.12-.12c.08,0,.12.04.12.12l-21.3,86.68-.12.12Z"/>
    <path class="cls-1" d="M937.24,463.45l-.12.12h-45.32l-.12-.12.12-.12h45.32l.12.12ZM914.71,463.58c.08,0,.12.02.12.06,0,.04.04.06.12.06l-21.17,86.43-.12.12c-.08,0-.15-.02-.19-.06-.04-.04-.02-.06.06-.06l21.17-86.43v-.12Z"/>
    <path class="cls-1" d="M1003.49,463.45l-.12.12h-45.32l-.12-.12.12-.12h45.32l.12.12ZM980.96,463.58c.08,0,.12.02.12.06,0,.04.04.06.12.06l-21.17,86.43-.12.12c-.08,0-.15-.02-.19-.06-.04-.04-.02-.06.06-.06l21.17-86.43v-.12Z"/>
    <path class="cls-1" d="M1050.42,550.01l-.12.12h-42.47l21.42-86.8.12-.12.12.12-21.42,86.55h42.23l.12.12Z"/>
    <path class="cls-1" d="M1135.62,463.33l-.12.12h-42.23l-21.42,86.43h42.23l.12.12-.12.12h-42.47l21.42-86.93h42.47l.12.12ZM1118.53,506.67l-.12.12h-36.03l-.12-.12.12-.12h36.03l.12.12Z"/>
  </g>
  <g>
    <path class="cls-1" d="M196.99,110.66l-.14.14h-43.87l-23.73,96.29h43.87l.14.14-.14.14h-44.14l23.73-96.84h44.14l.14.14ZM177.96,158.95l-.14.14h-36.97l-.14-.14.14-.14h36.97l.14.14Z"/>
    <path class="cls-1" d="M266.93,110.8h.14l-71.46,96.57,71.32-96.57ZM243.21,207.37l-23.87-96.57h.14l24,96.57h-.28Z"/>
    <path class="cls-1" d="M337.15,110.8l-.14.14h-52.15l-.14-.14.14-.14h52.15l.14.14ZM311.21,110.94c.18,0,.28.05.28.14l-23.73,96.29-.14.14c-.09,0-.14-.05-.14-.14l23.73-96.29v-.14Z"/>
    <path class="cls-1" d="M352.32,153.15l.14-.14h31.31c4.6,0,8.81-1.12,12.62-3.38,3.82-2.25,6.9-5.2,9.24-8.83s3.84-7.47,4.48-11.52c.37-3.59,0-6.76-1.1-9.52-1.1-2.76-2.94-4.92-5.52-6.48-2.58-1.56-5.66-2.35-9.24-2.35h-31.18l-23.87,96.43-.14.14-.14-.14,24-96.7h31.31c3.77,0,6.92.81,9.45,2.41,2.53,1.61,4.37,3.79,5.52,6.55,1.15,2.76,1.54,5.98,1.17,9.66-.64,4.14-2.16,8.03-4.55,11.66-2.39,3.63-5.5,6.6-9.31,8.9-3.82,2.3-8.07,3.45-12.76,3.45h-31.31l-.14-.14ZM386.26,207.5l-.14-.14-4.41-54.21c0-.09.05-.14.14-.14l.14.14,4.41,54.21-.14.14Z"/>
    <path class="cls-1" d="M478.55,207.5l-9.1-96.29-56.84,96.29-.14-.14,57.11-96.98,9.24,97.12h-.28ZM474.41,161.01l-34.35-.28v-.28l34.35.28v.28Z"/>
    <path class="cls-1" d="M548.76,160.32l-.14.14h-42.35l-.14-.14.14-.14h42.35l.14.14Z"/>
    <path class="cls-1" d="M584.28,202.95c-3.36-4.23-5.24-10.32-5.66-18.28-.41-7.95.71-17.31,3.38-28.07,2.11-9.75,5.04-18.23,8.76-25.45,3.72-7.22,7.93-12.76,12.62-16.62,4.69-3.86,9.56-5.79,14.62-5.79,5.7,0,10.18,2.07,13.45,6.21,3.26,4.14,5.15,10.07,5.66,17.8.5,7.72-.44,16.74-2.83,27.04-2.3,10.12-5.31,18.9-9.04,26.35s-7.91,13.17-12.55,17.18c-4.65,4-9.45,6-14.42,6-5.98,0-10.65-2.12-14-6.35ZM612.7,203.02c4.64-4,8.81-9.7,12.48-17.11,3.68-7.4,6.67-16.12,8.97-26.14,2.3-10.3,3.22-19.29,2.76-26.97-.46-7.68-2.3-13.56-5.52-17.66-3.22-4.09-7.68-6.14-13.38-6.14-5.06,0-9.89,1.91-14.49,5.72-4.6,3.82-8.76,9.31-12.48,16.49s-6.65,15.63-8.76,25.38c-2.67,10.67-3.79,19.96-3.38,27.87.41,7.91,2.28,13.98,5.59,18.21,3.31,4.23,7.91,6.35,13.8,6.35,4.97,0,9.77-2,14.42-6Z"/>
    <path class="cls-1" d="M665.19,153.15l.14-.14h31.31c4.6,0,8.81-1.12,12.62-3.38,3.82-2.25,6.9-5.2,9.24-8.83s3.84-7.47,4.48-11.52c.37-3.59,0-6.76-1.1-9.52-1.1-2.76-2.94-4.92-5.52-6.48-2.58-1.56-5.66-2.35-9.24-2.35h-31.18l-23.87,96.43-.14.14-.14-.14,24-96.7h31.31c3.77,0,6.92.81,9.45,2.41,2.53,1.61,4.37,3.79,5.52,6.55,1.15,2.76,1.54,5.98,1.17,9.66-.64,4.14-2.16,8.03-4.55,11.66-2.39,3.63-5.5,6.6-9.31,8.9-3.82,2.3-8.07,3.45-12.76,3.45h-31.31l-.14-.14ZM699.13,207.5l-.14-.14-4.41-54.21c0-.09.05-.14.14-.14l.14.14,4.41,54.21-.14.14Z"/>
    <path class="cls-1" d="M755.69,110.52h18.07c6.44,0,11.61,1.84,15.52,5.52,3.91,3.68,6.16,9.41,6.76,17.18.6,7.77-.76,17.68-4.07,29.73-2.3,9.93-5.43,18.19-9.38,24.76-3.96,6.58-8.58,11.5-13.86,14.76-5.29,3.27-11.29,4.9-18,4.9h-19.04l24-96.84ZM768.59,202.26c5.29-3.22,9.88-8.12,13.79-14.69,3.91-6.57,7.01-14.83,9.31-24.76,3.31-11.86,4.67-21.68,4.07-29.45-.6-7.77-2.81-13.47-6.62-17.11-3.82-3.63-8.95-5.45-15.38-5.45h-17.8l-24,96.29h18.76c6.62,0,12.58-1.61,17.86-4.83Z"/>
    <path class="cls-1" d="M810.73,207.5l-.14-.14,24-96.57.14-.14v.14l-23.87,96.57-.14.14Z"/>
    <path class="cls-1" d="M923.58,110.66c.09,0,.14.02.14.07s.04.07.14.07l-25.93,97.12-27.31-96.57-25.25,96.01-.14.14-.14-.14,25.66-97.12,27.18,96.57,25.52-96.02.14-.14Z"/>
    <path class="cls-1" d="M988.83,207.5l-9.1-96.29-56.84,96.29-.14-.14,57.11-96.98,9.24,97.12h-.28ZM984.69,161.01l-34.35-.28v-.28l34.35.28v.28Z"/>
    <path class="cls-1" d="M1026.9,153.15l.14-.14h31.32c4.6,0,8.8-1.12,12.62-3.38,3.82-2.25,6.9-5.2,9.24-8.83,2.35-3.63,3.84-7.47,4.48-11.52.37-3.59,0-6.76-1.1-9.52-1.1-2.76-2.94-4.92-5.52-6.48-2.58-1.56-5.66-2.35-9.24-2.35h-31.18l-23.87,96.43-.14.14-.14-.14,24-96.7h31.32c3.77,0,6.92.81,9.45,2.41,2.53,1.61,4.37,3.79,5.52,6.55,1.15,2.76,1.54,5.98,1.17,9.66-.64,4.14-2.16,8.03-4.55,11.66-2.39,3.63-5.5,6.6-9.31,8.9-3.82,2.3-8.07,3.45-12.76,3.45h-31.32l-.14-.14ZM1060.84,207.5l-.14-.14-4.41-54.21c0-.09.04-.14.14-.14l.14.14,4.41,54.21-.14.14Z"/>
    <path class="cls-1" d="M1109.53,110.66l.14.14,14.76,44.28,36.56-44.28c0-.09.04-.14.14-.14l.14.14-36.97,45.11-14.9-45.11.14-.14ZM1111.6,207.5l-.14-.14,12.69-51.87.14-.14c.18.09.23.14.14.14l-12.69,51.87-.14.14Z"/>
    <path class="cls-1" d="M1294.25,110.8l-.14.14h-52.15l-.14-.14.14-.14h52.15l.14.14ZM1268.31,110.94c.18,0,.28.05.28.14l-23.73,96.29-.14.14c-.09,0-.14-.05-.14-.14l23.73-96.29v-.14Z"/>
    <path class="cls-1" d="M1346.53,207.5l-9.1-96.29-56.84,96.29-.14-.14,57.11-96.98,9.24,97.12h-.28ZM1342.39,161.01l-34.35-.28v-.28l34.35.28v.28Z"/>
    <path class="cls-1" d="M1421.3,207.23l-.14.14h-48.97l24-96.7.14-.14.14.14-24,96.43h48.7l.14.14Z"/>
    <path class="cls-1" d="M1517.87,110.66l-.14.14h-48.56l-24,96.29h48.7l.14.14-.14.14h-48.97l24-96.84h48.83l.14.14ZM1498.83,158.95l-.14.14h-41.66l-.14-.14.14-.14h41.66l.14.14Z"/>
    <path class="cls-1" d="M1523.93,184.05l.14.14c-.37,4.78.32,9.06,2.07,12.83,1.75,3.77,4.37,6.78,7.86,9.04,3.49,2.25,7.63,3.38,12.42,3.38s9.4-1.13,13.59-3.38c4.18-2.25,7.61-5.26,10.28-9.04,2.67-3.77,4.28-7.72,4.83-11.86.73-4.14.44-7.77-.9-10.9-1.33-3.12-3.22-5.82-5.66-8.07-2.44-2.25-5.73-4.94-9.86-8.07-4.05-3.04-7.24-5.68-9.59-7.93-2.35-2.25-4.21-4.94-5.59-8.07-1.38-3.13-1.79-6.62-1.24-10.48.74-4.32,2.53-8.19,5.38-11.59,2.85-3.4,6.32-6.07,10.42-8,4.09-1.93,8.35-2.9,12.76-2.9,4.78,0,8.78,1.06,12,3.17,3.22,2.12,5.43,4.99,6.62,8.62,1.19,3.63,1.29,7.7.28,12.21l-.14.14-.14-.14c1.01-4.6.92-8.67-.28-12.21-1.2-3.54-3.38-6.35-6.55-8.42-3.17-2.07-7.1-3.1-11.79-3.1-4.42,0-8.65.97-12.69,2.9-4.05,1.93-7.47,4.55-10.28,7.86-2.81,3.31-4.58,7.13-5.31,11.45-.55,3.77-.16,7.22,1.17,10.35,1.33,3.13,3.19,5.79,5.59,8,2.39,2.21,5.61,4.83,9.66,7.86,4.14,3.22,7.43,5.96,9.86,8.21,2.44,2.26,4.35,4.97,5.73,8.14,1.38,3.17,1.66,6.83.83,10.97-.55,4.23-2.16,8.25-4.83,12.07-2.67,3.82-6.12,6.85-10.35,9.11-4.23,2.25-8.83,3.38-13.79,3.38s-8.97-1.15-12.55-3.45c-3.59-2.3-6.25-5.36-8-9.17-1.75-3.81-2.44-8.12-2.07-12.9l.14-.14Z"/>
  </g>
</svg>