<?xml version="1.0" encoding="UTF-8"?>
<svg id="Layer_1" data-name="Layer 1" xmlns="http://www.w3.org/2000/svg" viewBox="0 0 45.36 32.84">
  <defs>
    <style>
      .cls-1 {
        fill: #e698a3;
      }

      .cls-2 {
        fill: #4d315c;
      }

      .cls-3 {
        stroke: #4d315c;
      }

      .cls-3, .cls-4 {
        fill: none;
        stroke-linecap: round;
        stroke-linejoin: round;
        stroke-width: 2px;
      }

      .cls-5 {
        fill: #fff;
      }

      .cls-6 {
        fill: #ec6471;
      }

      .cls-4 {
        stroke: #ec6471;
      }
    </style>
  </defs>
  <path class="cls-6" d="M40.54,19.94c.27,1.15,1.4,2.02,2.52,2.02,1.65,0,2.19-.89,2.19-2.02,0-1.21-.92-1.72-.92-1.72,0,0,1.02-.48,1.02-1.84,0-.98-.98-1.9-2.51-1.9h-2.14"/>
  <path class="cls-6" d="M41.17,19.13c.2.85,1.04,1.49,1.86,1.49,1.22,0,1.62-.66,1.62-1.49,0-.89-.68-1.27-.68-1.27,0,0,.76-.35.76-1.36,0-.73-.72-1.4-1.86-1.4h-1.58"/>
  <polyline class="cls-6" points="17.58 6.41 17.81 0 6.21 8.46 13.35 10.48"/>
  <polyline class="cls-6" points="10.84 13.49 0 8.03 .04 27.63 11.48 20.66"/>
  <polyline class="cls-6" points="14.52 22.12 8.4 24.97 16.43 32.84 18.58 25.2"/>
  <path class="cls-1" d="M27.98,4.63c12.95,0,13.94,7.34,13.94,10.74,0,8.91-6.78,11.86-15.66,11.86-4.82,0-17.11-4.26-17.11-10.24S15.59,4.63,27.98,4.63Z"/>
  <path class="cls-5" d="M37.69,10.09c-.77,0-2.28-.02-3.01,0-.88-.09-1.66.42-1.66,1.2,0,.41.28,1.21,1.13,1.21,1.08,0,2.28,0,3.57,0,1.11,0,1.75-.19,1.75-1.33,0-.88-.61-1.08-1.78-1.08Z"/>
  <path class="cls-4" d="M29.7,14.62s-4.69-.04-7.53-.04c-.88,0-.76,1.59-.66,2.54.42,3.15,4.06,3.31,8.18,3.31"/>
  <circle class="cls-2" cx="36.7" cy="11.3" r="1.21"/>
  <g>
    <line class="cls-3" x1="10.05" y1="14.58" x2="2.38" y2="12.19"/>
    <line class="cls-3" x1="10.1" y1="16.21" x2="2.38" y2="15.76"/>
    <line class="cls-3" x1="10.14" y1="17.84" x2="2.38" y2="19.32"/>
    <line class="cls-3" x1="10.19" y1="19.47" x2="2.38" y2="22.88"/>
  </g>
  <line class="cls-3" x1="14.89" y1="23.28" x2="11.2" y2="25.37"/>
  <line class="cls-3" x1="17.39" y1="25.2" x2="15.66" y2="29.47"/>
  <line class="cls-3" x1="16.07" y1="24.27" x2="13.45" y2="27.34"/>
  <line class="cls-3" x1="16.44" y1="6.68" x2="16.23" y2="2.94"/>
  <line class="cls-3" x1="14.97" y1="7.93" x2="12.99" y2="5.24"/>
  <line class="cls-3" x1="13.69" y1="9.31" x2="10.12" y2="7.79"/>
  <path class="cls-4" d="M27.11,6.3c.07,0,.1-.02.1-.1"/>
  <path class="cls-4" d="M19.63,7.83v-.19"/>
  <path class="cls-4" d="M13.88,11.76c-.08,0-.14-.03-.19-.1"/>
  <path class="cls-4" d="M13.21,17.13h-.29"/>
  <path class="cls-4" d="M18.67,22.21c-.11.08-.13.22-.1.38"/>
  <path class="cls-4" d="M26.63,23.74v.19"/>
  <path class="cls-4" d="M33.92,22.69c.13-.04.24-.02.29.1"/>
  <path class="cls-4" d="M37.08,18.66h.29"/>
  <path class="cls-4" d="M38.81,14.44l.19-.1"/>
  <path class="cls-4" d="M32.57,7.93c-.02-.11,0-.21.1-.29"/>
</svg>