<svg width="124" height="104" viewBox="0 0 124 104" fill="none" xmlns="http://www.w3.org/2000/svg">
<g clip-path="url(#clip0_5140_447)">
<path d="M9.39437 60.5701C8.90438 62.6501 6.86438 64.2001 4.86438 64.2001C1.89438 64.2001 0.924375 62.5901 0.924375 60.5701C0.924375 58.4001 2.57438 57.4801 2.57438 57.4801C2.57438 57.4701 0.734375 56.6101 0.734375 54.1601C0.734375 52.3901 2.49437 50.7501 5.25437 50.7501H9.10437" fill="#EC6471"/>
<path d="M82.3139 15.6001L81.7539 0.00012207L109.994 20.6101L92.6239 25.5301" fill="#EC6471"/>
<path d="M99.545 45.7702L123.835 33.5302L123.725 81.2701L95.875 64.3002" fill="#EC6471"/>
<path d="M87.3441 77.1501L102.254 84.0901L82.6941 103.27L77.6641 85.3801" fill="#EC6471"/>
<path d="M55.7543 7.55017C7.19431 7.55017 7.57431 43.1302 7.57431 51.4202C7.57431 82.0902 46.7743 100.99 75.2443 87.4802C114.014 69.0602 108.694 7.55017 55.7543 7.55017Z" fill="#E698A3"/>
<path d="M47.582 87.55L46.582 93.48" stroke="#EC6471" stroke-width="2" stroke-linecap="round" stroke-linejoin="round"/>
<path d="M39.6719 86.2101L38.6719 92.1501" stroke="#EC6471" stroke-width="2" stroke-linecap="round" stroke-linejoin="round"/>
<path d="M33.3713 83.1501L30.5312 88.4601" stroke="#EC6471" stroke-width="2" stroke-linecap="round" stroke-linejoin="round"/>
<path d="M26.2948 79.3801L23.4648 84.6901" stroke="#EC6471" stroke-width="2" stroke-linecap="round" stroke-linejoin="round"/>
<path d="M21.2844 74.77L16.7344 78.72" stroke="#EC6471" stroke-width="2" stroke-linecap="round" stroke-linejoin="round"/>
<path d="M16.0227 68.7101L11.4727 72.6601" stroke="#EC6471" stroke-width="2" stroke-linecap="round" stroke-linejoin="round"/>
<path d="M13.3825 63.66L8.0625 66.49" stroke="#EC6471" stroke-width="2" stroke-linecap="round" stroke-linejoin="round"/>
<path d="M11.2541 55.1401L5.41406 56.6401" stroke="#EC6471" stroke-width="2" stroke-linecap="round" stroke-linejoin="round"/>
<path d="M10.4631 48.2201L4.45312 47.8101" stroke="#EC6471" stroke-width="2" stroke-linecap="round" stroke-linejoin="round"/>
<path d="M11.0116 41.07L5.35156 39.03" stroke="#EC6471" stroke-width="2" stroke-linecap="round" stroke-linejoin="round"/>
<path d="M13.7325 33.5201L8.0625 31.4801" stroke="#EC6471" stroke-width="2" stroke-linecap="round" stroke-linejoin="round"/>
<path d="M16.0441 27.5901L12.1641 22.9901" stroke="#EC6471" stroke-width="2" stroke-linecap="round" stroke-linejoin="round"/>
<path d="M22.1713 22.4101L18.2812 17.8101" stroke="#EC6471" stroke-width="2" stroke-linecap="round" stroke-linejoin="round"/>
<path d="M28.3041 17.2301L24.4141 12.6301" stroke="#EC6471" stroke-width="2" stroke-linecap="round" stroke-linejoin="round"/>
<path d="M33.8525 14.5301L32.8125 8.6001" stroke="#EC6471" stroke-width="2" stroke-linecap="round" stroke-linejoin="round"/>
<path d="M41.7548 13.1401L40.7148 7.21008" stroke="#EC6471" stroke-width="2" stroke-linecap="round" stroke-linejoin="round"/>
<path d="M49.6533 11.7501L48.6133 5.82007" stroke="#EC6471" stroke-width="2" stroke-linecap="round" stroke-linejoin="round"/>
<path d="M56.5039 10.7601L57.5739 4.84009" stroke="#EC6471" stroke-width="2" stroke-linecap="round" stroke-linejoin="round"/>
<path d="M64.3945 12.1901L65.4645 6.26013" stroke="#EC6471" stroke-width="2" stroke-linecap="round" stroke-linejoin="round"/>
<path d="M72.293 13.6101L73.363 7.69006" stroke="#EC6471" stroke-width="2" stroke-linecap="round" stroke-linejoin="round"/>
<path d="M78.4336 16.01L81.8236 11.03" stroke="#EC6471" stroke-width="2" stroke-linecap="round" stroke-linejoin="round"/>
<path d="M85.0625 20.52L88.4525 15.55" stroke="#EC6471" stroke-width="2" stroke-linecap="round" stroke-linejoin="round"/>
<path d="M89.8516 25.2801L94.8416 21.9001" stroke="#EC6471" stroke-width="2" stroke-linecap="round" stroke-linejoin="round"/>
<path d="M94.3633 31.92L99.3433 28.54" stroke="#EC6471" stroke-width="2" stroke-linecap="round" stroke-linejoin="round"/>
<path d="M96.7422 38.7401L102.442 36.7701" stroke="#EC6471" stroke-width="2" stroke-linecap="round" stroke-linejoin="round"/>
<path d="M96.9219 45.7601L102.952 45.7001" stroke="#EC6471" stroke-width="2" stroke-linecap="round" stroke-linejoin="round"/>
<path d="M97.0117 53.7801L103.032 53.7201" stroke="#EC6471" stroke-width="2" stroke-linecap="round" stroke-linejoin="round"/>
<path d="M95.0234 60.1001L100.543 62.5001" stroke="#EC6471" stroke-width="2" stroke-linecap="round" stroke-linejoin="round"/>
<path d="M91.8242 67.4601L97.3442 69.8601" stroke="#EC6471" stroke-width="2" stroke-linecap="round" stroke-linejoin="round"/>
<path d="M89.2539 72.2201L93.6139 76.3701" stroke="#EC6471" stroke-width="2" stroke-linecap="round" stroke-linejoin="round"/>
<path d="M82.1523 78.1401L86.2523 82.5601" stroke="#EC6471" stroke-width="2" stroke-linecap="round" stroke-linejoin="round"/>
<path d="M75.9531 82.5701L78.0031 88.2301" stroke="#EC6471" stroke-width="2" stroke-linecap="round" stroke-linejoin="round"/>
<path d="M70.1328 85.5001L71.4228 91.3801" stroke="#EC6471" stroke-width="2" stroke-linecap="round" stroke-linejoin="round"/>
<path d="M62.293 87.2101L63.583 93.1001" stroke="#EC6471" stroke-width="2" stroke-linecap="round" stroke-linejoin="round"/>
<path d="M54.4648 88.9301L55.7448 94.8101" stroke="#EC6471" stroke-width="2" stroke-linecap="round" stroke-linejoin="round"/>
<path d="M47.6033 78.5701L46.6133 84.5101" stroke="#EC6471" stroke-width="2" stroke-linecap="round" stroke-linejoin="round"/>
<path d="M40.7734 76.9301L38.0234 82.2901" stroke="#EC6471" stroke-width="2" stroke-linecap="round" stroke-linejoin="round"/>
<path d="M33.6428 73.2601L30.8828 78.6101" stroke="#EC6471" stroke-width="2" stroke-linecap="round" stroke-linejoin="round"/>
<path d="M28.2213 69.0901L23.7812 73.1501" stroke="#EC6471" stroke-width="2" stroke-linecap="round" stroke-linejoin="round"/>
<path d="M22.8133 63.17L18.3633 67.24" stroke="#EC6471" stroke-width="2" stroke-linecap="round" stroke-linejoin="round"/>
<path d="M20.8334 56.9601L15.0234 58.5601" stroke="#EC6471" stroke-width="2" stroke-linecap="round" stroke-linejoin="round"/>
<path d="M19.3225 50.17L13.3125 49.78" stroke="#EC6471" stroke-width="2" stroke-linecap="round" stroke-linejoin="round"/>
<path d="M19.8844 42.5901L13.9844 41.3801" stroke="#EC6471" stroke-width="2" stroke-linecap="round" stroke-linejoin="round"/>
<path d="M22.4339 35.42L16.7539 33.42" stroke="#EC6471" stroke-width="2" stroke-linecap="round" stroke-linejoin="round"/>
<path d="M25.9831 30.4901L22.2031 25.8101" stroke="#EC6471" stroke-width="2" stroke-linecap="round" stroke-linejoin="round"/>
<path d="M32.2214 25.45L28.4414 20.77" stroke="#EC6471" stroke-width="2" stroke-linecap="round" stroke-linejoin="round"/>
<path d="M37.7513 22.59L36.7812 16.65" stroke="#EC6471" stroke-width="2" stroke-linecap="round" stroke-linejoin="round"/>
<path d="M45.6731 21.3101L44.7031 15.3601" stroke="#EC6471" stroke-width="2" stroke-linecap="round" stroke-linejoin="round"/>
<path d="M53.5811 20.0201L52.6211 14.0801" stroke="#EC6471" stroke-width="2" stroke-linecap="round" stroke-linejoin="round"/>
<path d="M60.5312 20.4101L61.5112 14.4601" stroke="#EC6471" stroke-width="2" stroke-linecap="round" stroke-linejoin="round"/>
<path d="M68.4531 21.7101L69.4231 15.7601" stroke="#EC6471" stroke-width="2" stroke-linecap="round" stroke-linejoin="round"/>
<path d="M74.6523 24.2001L77.8423 19.1001" stroke="#EC6471" stroke-width="2" stroke-linecap="round" stroke-linejoin="round"/>
<path d="M80.9727 28.1301L85.0827 23.7301" stroke="#EC6471" stroke-width="2" stroke-linecap="round" stroke-linejoin="round"/>
<path d="M85.293 34.19L90.173 30.66" stroke="#EC6471" stroke-width="2" stroke-linecap="round" stroke-linejoin="round"/>
<path d="M87.9844 40.78L93.6644 38.77" stroke="#EC6471" stroke-width="2" stroke-linecap="round" stroke-linejoin="round"/>
<path d="M88.1406 47.7801L94.1606 47.7201" stroke="#EC6471" stroke-width="2" stroke-linecap="round" stroke-linejoin="round"/>
<path d="M87.9141 54.4501L93.4341 56.8601" stroke="#EC6471" stroke-width="2" stroke-linecap="round" stroke-linejoin="round"/>
<path d="M84.6914 61.8L90.2114 64.21" stroke="#EC6471" stroke-width="2" stroke-linecap="round" stroke-linejoin="round"/>
<path d="M81.5312 67.4L85.3212 72.08" stroke="#EC6471" stroke-width="2" stroke-linecap="round" stroke-linejoin="round"/>
<path d="M75.3008 72.4501L79.0908 77.1301" stroke="#EC6471" stroke-width="2" stroke-linecap="round" stroke-linejoin="round"/>
<path d="M70.1406 76.52L71.4206 82.41" stroke="#EC6471" stroke-width="2" stroke-linecap="round" stroke-linejoin="round"/>
<path d="M62.3008 78.2201L63.5808 84.1101" stroke="#EC6471" stroke-width="2" stroke-linecap="round" stroke-linejoin="round"/>
<path d="M54.4609 79.9301L55.7409 85.8101" stroke="#EC6471" stroke-width="2" stroke-linecap="round" stroke-linejoin="round"/>
<path d="M47.7539 69.5801L46.7539 75.5201" stroke="#EC6471" stroke-width="2" stroke-linecap="round" stroke-linejoin="round"/>
<path d="M41.1836 67.1501L38.4336 72.5101" stroke="#EC6471" stroke-width="2" stroke-linecap="round" stroke-linejoin="round"/>
<path d="M35.1138 63.6301L30.8438 67.8601" stroke="#EC6471" stroke-width="2" stroke-linecap="round" stroke-linejoin="round"/>
<path d="M30.7959 58.7201L25.0859 60.6301" stroke="#EC6471" stroke-width="2" stroke-linecap="round" stroke-linejoin="round"/>
<path d="M28.2452 51.1101L22.5352 53.0201" stroke="#EC6471" stroke-width="2" stroke-linecap="round" stroke-linejoin="round"/>
<path d="M28.6467 44.26L22.6367 43.91" stroke="#EC6471" stroke-width="2" stroke-linecap="round" stroke-linejoin="round"/>
<path d="M31.1667 39.08L26.3867 35.41" stroke="#EC6471" stroke-width="2" stroke-linecap="round" stroke-linejoin="round"/>
<path d="M37.7441 34.6801L34.9141 29.3601" stroke="#EC6471" stroke-width="2" stroke-linecap="round" stroke-linejoin="round"/>
<path d="M41.4533 30.6801L40.6133 24.7201" stroke="#EC6471" stroke-width="2" stroke-linecap="round" stroke-linejoin="round"/>
<path d="M49.3947 29.5601L48.5547 23.6001" stroke="#EC6471" stroke-width="2" stroke-linecap="round" stroke-linejoin="round"/>
<path d="M56.3359 28.7501L57.4859 22.8401" stroke="#EC6471" stroke-width="2" stroke-linecap="round" stroke-linejoin="round"/>
<path d="M64.2148 30.2801L65.3648 24.3701" stroke="#EC6471" stroke-width="2" stroke-linecap="round" stroke-linejoin="round"/>
<path d="M70.3945 31.8501L74.2645 27.2401" stroke="#EC6471" stroke-width="2" stroke-linecap="round" stroke-linejoin="round"/>
<path d="M76.5469 37.0101L80.4169 32.3901" stroke="#EC6471" stroke-width="2" stroke-linecap="round" stroke-linejoin="round"/>
<path d="M79.2461 43.0001L84.7761 40.6101" stroke="#EC6471" stroke-width="2" stroke-linecap="round" stroke-linejoin="round"/>
<path d="M79.3438 49.7901L85.3637 49.7501" stroke="#EC6471" stroke-width="2" stroke-linecap="round" stroke-linejoin="round"/>
<path d="M77.5859 56.1401L83.0959 58.5801" stroke="#EC6471" stroke-width="2" stroke-linecap="round" stroke-linejoin="round"/>
<path d="M74.5352 61.8401L78.3152 66.5301" stroke="#EC6471" stroke-width="2" stroke-linecap="round" stroke-linejoin="round"/>
<path d="M68.2969 66.8701L72.0669 71.5601" stroke="#EC6471" stroke-width="2" stroke-linecap="round" stroke-linejoin="round"/>
<path d="M62.3164 69.2401L63.5764 75.1301" stroke="#EC6471" stroke-width="2" stroke-linecap="round" stroke-linejoin="round"/>
<path d="M54.4766 70.92L55.7366 76.81" stroke="#EC6471" stroke-width="2" stroke-linecap="round" stroke-linejoin="round"/>
<path d="M47.617 64.1901L47.207 65.4201" stroke="#EC6471" stroke-width="2" stroke-linecap="round" stroke-linejoin="round"/>
<path d="M41.4859 57.1801L39.5859 62.8901" stroke="#EC6471" stroke-width="2" stroke-linecap="round" stroke-linejoin="round"/>
<path d="M38.1347 53.1901L32.5547 55.4601" stroke="#EC6471" stroke-width="2" stroke-linecap="round" stroke-linejoin="round"/>
<path d="M37.4553 46.6601L31.4453 46.3901" stroke="#EC6471" stroke-width="2" stroke-linecap="round" stroke-linejoin="round"/>
<path d="M44.8245 38.8701L44.1445 32.8901" stroke="#EC6471" stroke-width="2" stroke-linecap="round" stroke-linejoin="round"/>
<path d="M52.795 37.9801L52.125 31.9901" stroke="#EC6471" stroke-width="2" stroke-linecap="round" stroke-linejoin="round"/>
<path d="M59.7656 38.4601L60.9756 32.5601" stroke="#EC6471" stroke-width="2" stroke-linecap="round" stroke-linejoin="round"/>
<path d="M66.5234 39.8001L69.7434 34.7201" stroke="#EC6471" stroke-width="2" stroke-linecap="round" stroke-linejoin="round"/>
<path d="M70.5352 45.4901L75.3552 41.8801" stroke="#EC6471" stroke-width="2" stroke-linecap="round" stroke-linejoin="round"/>
<path d="M69.957 51.2501L75.957 51.7301" stroke="#EC6471" stroke-width="2" stroke-linecap="round" stroke-linejoin="round"/>
<path d="M66.5547 55.8401L70.9447 59.9701" stroke="#EC6471" stroke-width="2" stroke-linecap="round" stroke-linejoin="round"/>
<path d="M61.7461 60.4601L64.1661 65.9801" stroke="#EC6471" stroke-width="2" stroke-linecap="round" stroke-linejoin="round"/>
<path d="M54.7539 63.2201L55.7239 67.8201" stroke="#EC6471" stroke-width="2" stroke-linecap="round" stroke-linejoin="round"/>
<path d="M42.0759 44.8601L38.3359 40.1301" stroke="#EC6471" stroke-width="2" stroke-linecap="round" stroke-linejoin="round"/>
<path d="M48.8445 47.1501L48.3945 41.1401" stroke="#EC6471" stroke-width="2" stroke-linecap="round" stroke-linejoin="round"/>
<path d="M56.3359 46.6602L56.8959 40.6602" stroke="#EC6471" stroke-width="2" stroke-linecap="round" stroke-linejoin="round"/>
<path d="M62.3672 48.4601L65.7272 43.4701" stroke="#EC6471" stroke-width="2" stroke-linecap="round" stroke-linejoin="round"/>
<path d="M16.7328 38.5601C18.6128 38.5801 22.2828 38.5201 24.0528 38.5801C26.1928 38.3601 28.1028 39.6001 28.1028 41.4901C28.1028 42.4901 27.4228 44.4301 25.3528 44.4301C22.7228 44.4301 19.8028 44.4501 16.6528 44.4501C13.9328 44.4501 12.3828 43.9801 12.3828 41.2001C12.3828 39.0501 13.8728 38.5601 16.7228 38.5601H16.7328Z" fill="white"/>
<path d="M42.9258 49.5901C42.9258 49.5901 54.3558 49.4901 61.2558 49.4901C63.3958 49.4901 63.0958 53.3601 62.8558 55.6701C61.8258 63.3401 52.9758 63.7301 42.9358 63.7301" stroke="#EC6471" stroke-width="2" stroke-linecap="round" stroke-linejoin="round"/>
<path d="M19.1431 44.4302C20.7668 44.4302 22.0831 43.1139 22.0831 41.4902C22.0831 39.8665 20.7668 38.5502 19.1431 38.5502C17.5194 38.5502 16.2031 39.8665 16.2031 41.4902C16.2031 43.1139 17.5194 44.4302 19.1431 44.4302Z" fill="#47385C"/>
<path d="M100.484 49.7302L118.044 43.6802" stroke="#47385C" stroke-width="2" stroke-linecap="round" stroke-linejoin="round"/>
<path d="M99.9922 53.6202L118.042 52.3502" stroke="#47385C" stroke-width="2" stroke-linecap="round" stroke-linejoin="round"/>
<path d="M99.5039 57.5101L118.044 61.0201" stroke="#47385C" stroke-width="2" stroke-linecap="round" stroke-linejoin="round"/>
<path d="M99.0234 61.4001L118.043 69.7001" stroke="#47385C" stroke-width="2" stroke-linecap="round" stroke-linejoin="round"/>
<path d="M86.4453 79.9701L95.4353 85.0701" stroke="#47385C" stroke-width="2" stroke-linecap="round" stroke-linejoin="round"/>
<path d="M80.3359 84.6602L84.5659 95.0502" stroke="#47385C" stroke-width="2" stroke-linecap="round" stroke-linejoin="round"/>
<path d="M83.5547 82.4001L89.9547 89.8501" stroke="#47385C" stroke-width="2" stroke-linecap="round" stroke-linejoin="round"/>
<path d="M85.0859 16.2702L85.5959 7.16016" stroke="#47385C" stroke-width="2" stroke-linecap="round" stroke-linejoin="round"/>
<path d="M88.6836 19.3101L93.4936 12.7601" stroke="#47385C" stroke-width="2" stroke-linecap="round" stroke-linejoin="round"/>
<path d="M91.7852 22.6801L100.485 18.9701" stroke="#47385C" stroke-width="2" stroke-linecap="round" stroke-linejoin="round"/>
</g>
<defs>
<clipPath id="clip0_5140_447">
<rect width="123.1" height="103.27" fill="white" transform="translate(0.734375 0.00012207)"/>
</clipPath>
</defs>
</svg>
