<?xml version="1.0" encoding="UTF-8"?>
<svg id="Layer_1" data-name="Layer 1" xmlns="http://www.w3.org/2000/svg" viewBox="0 0 69.54 58.34">
  <defs>
    <style>
      .cls-1 {
        fill: #e698a3;
      }

      .cls-2 {
        fill: #4d315c;
      }

      .cls-3 {
        stroke: #4d315c;
      }

      .cls-3, .cls-4 {
        fill: none;
        stroke-linecap: round;
        stroke-linejoin: round;
        stroke-width: 2px;
      }

      .cls-5 {
        fill: #fff;
      }

      .cls-6 {
        fill: #ec6471;
      }

      .cls-4 {
        stroke: #ec6471;
      }
    </style>
  </defs>
  <g>
    <path class="cls-6" d="M64.65,34.22c.28,1.17,1.43,2.05,2.56,2.05,1.68,0,2.22-.91,2.22-2.05,0-1.23-.93-1.75-.93-1.75,0,0,1.04-.49,1.04-1.87,0-1-.99-1.93-2.56-1.93h-2.17"/>
    <polyline class="cls-6" points="23.45 8.81 23.77 0 7.81 11.64 17.63 14.42"/>
    <polyline class="cls-6" points="13.72 25.86 0 18.94 .06 45.91 15.79 36.32"/>
    <polyline class="cls-6" points="20.61 43.59 12.19 47.5 23.24 58.34 26.08 48.23"/>
    <path class="cls-1" d="M38.45,4.27c27.43,0,27.22,20.1,27.22,24.78,0,17.32-22.15,28-38.23,20.37C5.54,39.02,8.55,4.27,38.45,4.27Z"/>
    <path class="cls-5" d="M60.5,21.78c-1.06,0-3.14-.02-4.14,0-1.21-.12-2.29.58-2.29,1.64,0,.56.39,1.66,1.55,1.66,1.48,0,3.14,0,4.91,0,1.53,0,2.41-.26,2.41-1.83,0-1.21-.84-1.49-2.45-1.49Z"/>
    <path class="cls-4" d="M45.7,28.02s-6.46-.06-10.35-.06c-1.21,0-1.04,2.18-.9,3.49.58,4.33,5.58,4.55,11.26,4.55"/>
    <circle class="cls-2" cx="59.14" cy="23.44" r="1.66"/>
    <g>
      <line class="cls-3" x1="13.19" y1="28.09" x2="3.27" y2="24.67"/>
      <line class="cls-3" x1="13.47" y1="30.29" x2="3.27" y2="29.57"/>
      <line class="cls-3" x1="13.74" y1="32.49" x2="3.27" y2="34.47"/>
      <line class="cls-3" x1="14.02" y1="34.68" x2="3.27" y2="39.37"/>
    </g>
    <line class="cls-3" x1="21.12" y1="45.17" x2="16.04" y2="48.06"/>
    <line class="cls-3" x1="24.57" y1="47.82" x2="22.18" y2="53.69"/>
    <line class="cls-3" x1="22.75" y1="46.55" x2="19.14" y2="50.76"/>
    <line class="cls-3" x1="21.89" y1="9.19" x2="21.6" y2="4.05"/>
    <line class="cls-3" x1="19.86" y1="10.91" x2="17.14" y2="7.21"/>
    <line class="cls-3" x1="18.1" y1="12.81" x2="13.19" y2="10.72"/>
  </g>
  <g>
    <line class="cls-4" x1="50.07" y1="46.54" x2="52.85" y2="51.88"/>
    <line class="cls-4" x1="59.17" y1="39.68" x2="63.97" y2="43.32"/>
    <line class="cls-4" x1="59.25" y1="15.02" x2="63.14" y2="10.42"/>
    <line class="cls-4" x1="46.39" y1="8.85" x2="47.43" y2="2.92"/>
    <line class="cls-4" x1="31" y1="9.63" x2="29.57" y2="3.78"/>
    <line class="cls-4" x1="17.59" y1="20" x2="12" y2="17.76"/>
    <line class="cls-4" x1="21.58" y1="39.65" x2="16.13" y2="42.21"/>
    <line class="cls-4" x1="36.65" y1="48" x2="35.36" y2="53.88"/>
  </g>
</svg>