<?xml version="1.0" encoding="UTF-8"?>
<svg id="Layer_1" data-name="Layer 1" xmlns="http://www.w3.org/2000/svg" viewBox="0 0 67.18 50.14">
  <defs>
    <style>
      .cls-1 {
        fill: #e698a3;
      }

      .cls-2 {
        fill: #4d315c;
      }

      .cls-3 {
        stroke: #4d315c;
      }

      .cls-3, .cls-4 {
        fill: none;
        stroke-linecap: round;
        stroke-linejoin: round;
        stroke-width: 2px;
      }

      .cls-5 {
        fill: #fff;
      }

      .cls-6 {
        fill: #ec6471;
      }

      .cls-4 {
        stroke: #ec6471;
      }
    </style>
  </defs>
  <path class="cls-6" d="M60.88,29.47c.36,1.51,1.84,2.64,3.29,2.64,2.16,0,2.86-1.17,2.86-2.64,0-1.58-1.2-2.25-1.2-2.25,0,0,1.34-.63,1.34-2.41,0-1.28-1.28-2.48-3.29-2.48h-2.8"/>
  <path class="cls-6" d="M61.62,28.91c.27,1.15,1.4,2.02,2.52,2.02,1.65,0,2.19-.89,2.19-2.02,0-1.21-.92-1.72-.92-1.72,0,0,1.02-.48,1.02-1.84,0-.98-.98-1.9-2.51-1.9h-2.14"/>
  <polyline class="cls-6" points="23.07 8.67 23.38 0 7.69 11.45 17.34 14.19"/>
  <polyline class="cls-6" points="14.67 21.28 0 13.89 .06 40.41 15.54 30.98"/>
  <polyline class="cls-6" points="19.65 35.63 11.37 39.48 22.23 50.14 25.03 40.2"/>
  <path class="cls-1" d="M37.83,4.2c23.5,0,24.81,15.02,24.81,19.63,0,12.06-13.1,19.68-25.12,19.68s-24.3-8.93-24.3-18.32S18.2,4.2,37.83,4.2Z"/>
  <g>
    <line class="cls-4" x1="27.84" y1="7.11" x2="25.4" y2="3.48"/>
    <line class="cls-4" x1="16.92" y1="17.83" x2="13.12" y2="15.66"/>
    <line class="cls-4" x1="18.01" y1="31.72" x2="14.32" y2="34.08"/>
    <line class="cls-4" x1="28.05" y1="39.17" x2="26.04" y2="43.06"/>
    <line class="cls-4" x1="39.17" y1="40.93" x2="40.05" y2="45.22"/>
    <line class="cls-4" x1="49.9" y1="38.39" x2="52.46" y2="41.94"/>
    <line class="cls-4" x1="57.76" y1="32.2" x2="61.87" y2="33.71"/>
    <line class="cls-4" x1="58" y1="14.52" x2="61.98" y2="12.68"/>
    <line class="cls-4" x1="50.73" y1="8.62" x2="52.49" y2="4.61"/>
    <line class="cls-4" x1="37.45" y1="6.35" x2="38.2" y2="2.04"/>
  </g>
  <path class="cls-5" d="M56.91,16.68c-1.05,0-3.09-.02-4.07,0-1.19-.12-2.25.57-2.25,1.62,0,.56.38,1.63,1.53,1.63,1.46,0,3.09,0,4.83,0,1.51,0,2.37-.26,2.37-1.8,0-1.19-.83-1.46-2.41-1.46Z"/>
  <path class="cls-4" d="M44.13,22.81s-6.35-.05-10.19-.05c-1.19,0-1.02,2.15-.89,3.43.57,4.26,5.49,4.48,11.07,4.48"/>
  <circle class="cls-2" cx="55.57" cy="18.31" r="1.63"/>
  <g>
    <line class="cls-3" x1="13.6" y1="22.76" x2="3.22" y2="19.52"/>
    <line class="cls-3" x1="13.66" y1="24.96" x2="3.22" y2="24.34"/>
    <line class="cls-3" x1="13.72" y1="27.16" x2="3.22" y2="29.16"/>
    <line class="cls-3" x1="13.79" y1="29.37" x2="3.22" y2="33.98"/>
  </g>
  <line class="cls-3" x1="20.15" y1="37.19" x2="15.15" y2="40.02"/>
  <line class="cls-3" x1="23.54" y1="39.79" x2="21.19" y2="45.57"/>
  <line class="cls-3" x1="21.75" y1="38.54" x2="18.2" y2="42.68"/>
  <line class="cls-3" x1="21.53" y1="9.04" x2="21.25" y2="3.98"/>
  <line class="cls-3" x1="19.53" y1="10.73" x2="16.86" y2="7.09"/>
  <line class="cls-3" x1="17.81" y1="12.6" x2="12.98" y2="10.54"/>
</svg>