<?xml version="1.0" encoding="UTF-8"?>
<svg id="Layer_1" data-name="Layer 1" xmlns="http://www.w3.org/2000/svg" viewBox="0 0 89.47 75.06">
  <defs>
    <style>
      .cls-1 {
        fill: #e698a3;
      }

      .cls-2 {
        fill: #4d315c;
      }

      .cls-3 {
        stroke: #4d315c;
      }

      .cls-3, .cls-4 {
        fill: none;
        stroke-linecap: round;
        stroke-linejoin: round;
        stroke-width: 2px;
      }

      .cls-5 {
        fill: #fff;
      }

      .cls-6 {
        fill: #ec6471;
      }

      .cls-4 {
        stroke: #ec6471;
      }
    </style>
  </defs>
  <path class="cls-6" d="M83.18,44.02c.36,1.51,1.84,2.64,3.29,2.64,2.16,0,2.86-1.17,2.86-2.64,0-1.58-1.2-2.25-1.2-2.25,0,0,1.34-.63,1.34-2.41,0-1.28-1.28-2.48-3.29-2.48h-2.8"/>
  <polyline class="cls-6" points="30.17 11.34 30.58 0 10.05 14.98 22.68 18.55"/>
  <polyline class="cls-6" points="17.65 33.27 0 24.37 .08 59.07 20.32 46.73"/>
  <polyline class="cls-6" points="26.52 56.08 15.69 61.12 29.9 75.06 33.56 62.06"/>
  <path class="cls-1" d="M49.48,5.49c35.29,0,35.02,25.86,35.02,31.89,0,22.29-28.5,36.03-49.18,26.21C7.13,50.2,11,5.49,49.48,5.49Z"/>
  <g>
    <line class="cls-4" x1="55.42" y1="63.63" x2="56.15" y2="67.95"/>
    <line class="cls-4" x1="61.17" y1="62.66" x2="61.9" y2="66.98"/>
    <line class="cls-4" x1="65.75" y1="60.44" x2="67.81" y2="64.3"/>
    <line class="cls-4" x1="70.89" y1="57.69" x2="72.95" y2="61.55"/>
    <line class="cls-4" x1="74.54" y1="54.34" x2="77.84" y2="57.21"/>
    <line class="cls-4" x1="78.36" y1="49.94" x2="81.67" y2="52.81"/>
    <line class="cls-4" x1="80.28" y1="46.27" x2="84.14" y2="48.33"/>
    <line class="cls-4" x1="81.83" y1="40.08" x2="86.07" y2="41.17"/>
    <line class="cls-4" x1="82.4" y1="35.05" x2="86.77" y2="34.75"/>
    <line class="cls-4" x1="82" y1="29.85" x2="86.12" y2="28.37"/>
    <line class="cls-4" x1="80.02" y1="24.36" x2="84.14" y2="22.88"/>
    <line class="cls-4" x1="78.34" y1="20.05" x2="81.17" y2="16.71"/>
    <line class="cls-4" x1="73.89" y1="16.29" x2="76.71" y2="12.95"/>
    <line class="cls-4" x1="69.43" y1="12.53" x2="72.26" y2="9.18"/>
    <line class="cls-4" x1="65.4" y1="10.56" x2="66.16" y2="6.25"/>
    <line class="cls-4" x1="59.66" y1="9.55" x2="60.41" y2="5.24"/>
    <line class="cls-4" x1="53.91" y1="8.54" x2="54.67" y2="4.23"/>
    <line class="cls-4" x1="48.94" y1="7.82" x2="48.16" y2="3.51"/>
    <line class="cls-4" x1="43.2" y1="8.86" x2="42.42" y2="4.55"/>
    <line class="cls-4" x1="37.46" y1="9.89" x2="36.68" y2="5.59"/>
    <line class="cls-4" x1="33" y1="11.64" x2="30.53" y2="8.02"/>
    <line class="cls-4" x1="28.18" y1="14.92" x2="25.71" y2="11.3"/>
    <line class="cls-4" x1="24.69" y1="18.38" x2="21.07" y2="15.92"/>
    <line class="cls-4" x1="21.42" y1="23.2" x2="17.8" y2="20.74"/>
    <line class="cls-4" x1="19.68" y1="28.15" x2="15.55" y2="26.72"/>
    <line class="cls-4" x1="19.55" y1="33.26" x2="15.18" y2="33.21"/>
    <line class="cls-4" x1="19.49" y1="39.09" x2="15.11" y2="39.04"/>
    <line class="cls-4" x1="20.94" y1="43.68" x2="16.92" y2="45.43"/>
    <line class="cls-4" x1="23.26" y1="49.03" x2="19.25" y2="50.78"/>
    <line class="cls-4" x1="25.13" y1="52.49" x2="21.96" y2="55.51"/>
    <line class="cls-4" x1="30.29" y1="56.8" x2="27.31" y2="60"/>
    <line class="cls-4" x1="34.8" y1="60.02" x2="33.31" y2="64.13"/>
    <line class="cls-4" x1="39.03" y1="62.14" x2="38.09" y2="66.42"/>
    <line class="cls-4" x1="44.73" y1="63.39" x2="43.79" y2="67.66"/>
    <line class="cls-4" x1="50.42" y1="64.63" x2="49.49" y2="68.91"/>
  </g>
  <g>
    <line class="cls-4" x1="55.41" y1="57.11" x2="56.12" y2="61.43"/>
    <line class="cls-4" x1="60.37" y1="55.92" x2="62.37" y2="59.81"/>
    <line class="cls-4" x1="65.55" y1="53.25" x2="67.55" y2="57.14"/>
    <line class="cls-4" x1="69.49" y1="50.22" x2="72.72" y2="53.17"/>
    <line class="cls-4" x1="73.42" y1="45.91" x2="76.65" y2="48.87"/>
    <line class="cls-4" x1="74.86" y1="41.4" x2="79.08" y2="42.56"/>
    <line class="cls-4" x1="75.96" y1="36.46" x2="80.33" y2="36.18"/>
    <line class="cls-4" x1="75.56" y1="30.96" x2="79.84" y2="30.08"/>
    <line class="cls-4" x1="73.7" y1="25.75" x2="77.83" y2="24.29"/>
    <line class="cls-4" x1="71.12" y1="22.16" x2="73.87" y2="18.76"/>
    <line class="cls-4" x1="66.58" y1="18.5" x2="69.33" y2="15.09"/>
    <line class="cls-4" x1="62.57" y1="16.42" x2="63.27" y2="12.1"/>
    <line class="cls-4" x1="56.81" y1="15.49" x2="57.51" y2="11.17"/>
    <line class="cls-4" x1="51.05" y1="14.55" x2="51.75" y2="10.23"/>
    <line class="cls-4" x1="46" y1="14.83" x2="45.3" y2="10.51"/>
    <line class="cls-4" x1="40.25" y1="15.78" x2="39.54" y2="11.46"/>
    <line class="cls-4" x1="35.75" y1="17.59" x2="33.43" y2="13.88"/>
    <line class="cls-4" x1="31.15" y1="20.45" x2="28.17" y2="17.25"/>
    <line class="cls-4" x1="28.01" y1="24.85" x2="24.46" y2="22.28"/>
    <line class="cls-4" x1="26.05" y1="29.64" x2="21.93" y2="28.18"/>
    <line class="cls-4" x1="25.94" y1="34.73" x2="21.56" y2="34.68"/>
    <line class="cls-4" x1="26.1" y1="39.58" x2="22.09" y2="41.33"/>
    <line class="cls-4" x1="28.44" y1="44.92" x2="24.43" y2="46.67"/>
    <line class="cls-4" x1="30.74" y1="48.99" x2="27.99" y2="52.39"/>
    <line class="cls-4" x1="35.27" y1="52.66" x2="32.52" y2="56.06"/>
    <line class="cls-4" x1="39.02" y1="55.62" x2="38.09" y2="59.9"/>
    <line class="cls-4" x1="44.72" y1="56.86" x2="43.79" y2="61.13"/>
    <line class="cls-4" x1="50.42" y1="58.09" x2="49.49" y2="62.37"/>
  </g>
  <g>
    <line class="cls-4" x1="55.3" y1="50.58" x2="56.02" y2="54.89"/>
    <line class="cls-4" x1="60.07" y1="48.81" x2="62.07" y2="52.7"/>
    <line class="cls-4" x1="64.48" y1="46.24" x2="67.59" y2="49.33"/>
    <line class="cls-4" x1="67.62" y1="42.68" x2="71.78" y2="44.07"/>
    <line class="cls-4" x1="69.48" y1="37.15" x2="73.63" y2="38.54"/>
    <line class="cls-4" x1="69.18" y1="32.17" x2="73.55" y2="31.92"/>
    <line class="cls-4" x1="67.35" y1="28.4" x2="70.83" y2="25.74"/>
    <line class="cls-4" x1="62.57" y1="25.21" x2="64.63" y2="21.34"/>
    <line class="cls-4" x1="59.87" y1="22.3" x2="60.49" y2="17.97"/>
    <line class="cls-4" x1="54.1" y1="21.48" x2="54.71" y2="17.15"/>
    <line class="cls-4" x1="49.06" y1="20.89" x2="48.22" y2="16.6"/>
    <line class="cls-4" x1="43.33" y1="22.01" x2="42.5" y2="17.71"/>
    <line class="cls-4" x1="38.84" y1="23.15" x2="36.02" y2="19.8"/>
    <line class="cls-4" x1="34.37" y1="26.9" x2="31.56" y2="23.54"/>
    <line class="cls-4" x1="32.41" y1="31.26" x2="28.39" y2="29.52"/>
    <line class="cls-4" x1="32.33" y1="36.19" x2="27.96" y2="36.16"/>
    <line class="cls-4" x1="33.61" y1="40.81" x2="29.61" y2="42.58"/>
    <line class="cls-4" x1="35.83" y1="44.95" x2="33.08" y2="48.36"/>
    <line class="cls-4" x1="40.37" y1="48.61" x2="37.62" y2="52.02"/>
    <line class="cls-4" x1="44.71" y1="50.33" x2="43.79" y2="54.61"/>
    <line class="cls-4" x1="50.41" y1="51.55" x2="49.49" y2="55.83"/>
  </g>
  <g>
    <line class="cls-4" x1="55.4" y1="46.65" x2="55.7" y2="47.55"/>
    <line class="cls-4" x1="59.85" y1="41.56" x2="61.23" y2="45.71"/>
    <line class="cls-4" x1="62.29" y1="38.66" x2="66.34" y2="40.31"/>
    <line class="cls-4" x1="62.78" y1="33.92" x2="67.15" y2="33.72"/>
    <line class="cls-4" x1="57.43" y1="28.25" x2="57.92" y2="23.9"/>
    <line class="cls-4" x1="51.63" y1="27.6" x2="52.12" y2="23.25"/>
    <line class="cls-4" x1="46.57" y1="27.95" x2="45.69" y2="23.67"/>
    <line class="cls-4" x1="41.65" y1="28.93" x2="39.31" y2="25.23"/>
    <line class="cls-4" x1="38.74" y1="33.06" x2="35.24" y2="30.44"/>
    <line class="cls-4" x1="39.16" y1="37.25" x2="34.8" y2="37.6"/>
    <line class="cls-4" x1="41.63" y1="40.58" x2="38.44" y2="43.59"/>
    <line class="cls-4" x1="45.12" y1="43.95" x2="43.37" y2="47.96"/>
    <line class="cls-4" x1="50.21" y1="45.95" x2="49.5" y2="49.29"/>
  </g>
  <g>
    <line class="cls-4" x1="59.43" y1="32.6" x2="62.14" y2="29.17"/>
    <line class="cls-4" x1="54.5" y1="34.27" x2="54.83" y2="29.9"/>
    <line class="cls-4" x1="49.06" y1="33.91" x2="48.65" y2="29.56"/>
    <line class="cls-4" x1="44.68" y1="35.22" x2="42.23" y2="31.59"/>
  </g>
  <path class="cls-5" d="M77.84,28.03c-1.37.01-4.04-.03-5.32.01-1.56-.16-2.95.74-2.95,2.12,0,.73.5,2.14,2,2.14,1.91,0,4.04.01,6.32.01,1.97,0,3.1-.34,3.1-2.36,0-1.56-1.08-1.92-3.16-1.92Z"/>
  <path class="cls-4" d="M58.8,36.05s-8.31-.07-13.32-.07c-1.56,0-1.34,2.81-1.16,4.49.75,5.58,7.18,5.86,14.48,5.86"/>
  <circle class="cls-2" cx="76.09" cy="30.16" r="2.14"/>
  <g>
    <line class="cls-3" x1="16.97" y1="36.15" x2="4.21" y2="31.75"/>
    <line class="cls-3" x1="17.33" y1="38.97" x2="4.21" y2="38.05"/>
    <line class="cls-3" x1="17.68" y1="41.8" x2="4.21" y2="44.35"/>
    <line class="cls-3" x1="18.03" y1="44.62" x2="4.21" y2="50.66"/>
  </g>
  <line class="cls-3" x1="27.18" y1="58.12" x2="20.64" y2="61.83"/>
  <line class="cls-3" x1="31.61" y1="61.53" x2="28.54" y2="69.08"/>
  <line class="cls-3" x1="29.27" y1="59.89" x2="24.62" y2="65.31"/>
  <line class="cls-3" x1="28.16" y1="11.83" x2="27.79" y2="5.21"/>
  <line class="cls-3" x1="25.55" y1="14.04" x2="22.05" y2="9.28"/>
  <line class="cls-3" x1="23.29" y1="16.48" x2="16.97" y2="13.79"/>
</svg>