<?xml version="1.0" encoding="UTF-8"?>
<svg id="Layer_1" data-name="Layer 1" xmlns="http://www.w3.org/2000/svg" xmlns:xlink="http://www.w3.org/1999/xlink" viewBox="0 0 126 179">
  <defs>
    <style>
      .cls-1, .cls-2 {
        fill: none;
      }

      .cls-3 {
        fill: #c3afb9;
      }

      .cls-2 {
        stroke: #3772b9;
        stroke-linecap: round;
        stroke-linejoin: round;
        stroke-width: 2px;
      }

      .cls-4 {
        clip-path: url(#clippath);
      }
    </style>
    <clipPath id="clippath">
      <rect class="cls-1" x=".73" y="0" width="125.22" height="178.33"/>
    </clipPath>
  </defs>
  <g class="cls-4">
    <g>
      <path class="cls-3" d="M94.29,176.15l-23.18-37.83,6.92-4.4,23.25,37.95,3.56-2.18-23.29-38.01,6.92-4.4,23.36,38.13,3.56-2.18-23.4-38.2,6.92-4.4,23.48,38.32,3.56-2.18-23.14-37.77c-7.89-12.87-17.65-14.9-24.85-13.36-1.81.39-3.65-.5-4.52-2.13L18.8,1.11,14.16,0,1.84,7.55l-1.11,4.64,66.4,95.18c1.06,1.51,1.01,3.56-.15,4.99-4.58,5.63-7.18,15.06.29,27.65h-.02l23.48,38.33,3.56-2.18h0Z"/>
      <path class="cls-2" d="M67.48,97.99L15.85,4.94l-.93-.22-9.2,5.64-.22.93,59.53,88.2"/>
    </g>
  </g>
</svg>