<?xml version="1.0" encoding="UTF-8"?>
<svg id="Layer_1" data-name="Layer 1" xmlns="http://www.w3.org/2000/svg" viewBox="0 0 55.52 54.84">
  <defs>
    <style>
      .cls-1 {
        fill: #3671b8;
      }

      .cls-2 {
        fill: none;
        stroke: #47385c;
        stroke-linecap: round;
        stroke-linejoin: round;
        stroke-width: 2px;
      }
    </style>
  </defs>
  <polygon class="cls-1" points="8.82 6.27 .79 29.31 13.03 52.76 38.63 53.84 54.52 35.96 49.66 15.07 31.6 1 8.82 6.27 8.82 6.27"/>
  <polygon class="cls-2" points="18.91 27.21 21.49 19.99 30.5 18.35 35.83 22.28 37.34 30.23 31.6 37.72 23.11 36.6 18.91 27.21 18.91 27.21"/>
  <line class="cls-2" x1="31.6" y1="37.72" x2="38.63" y2="53.84"/>
  <line class="cls-2" x1="37.34" y1="30.23" x2="54.52" y2="35.96"/>
  <line class="cls-2" x1="35.83" y1="22.28" x2="49.66" y2="15.07"/>
  <line class="cls-2" x1="30.5" y1="18.35" x2="31.6" y2="1"/>
  <line class="cls-2" x1="21.49" y1="19.99" x2="8.82" y2="6.27"/>
  <line class="cls-2" x1="18.91" y1="27.21" x2="1" y2="29.69"/>
  <line class="cls-2" x1="23.11" y1="36.6" x2="13.03" y2="52.76"/>
</svg>