<?xml version="1.0" encoding="UTF-8"?>
<svg id="Layer_1" data-name="Layer 1" xmlns="http://www.w3.org/2000/svg" viewBox="0 0 49.35 32.7">
  <defs>
    <style>
      .cls-1 {
        fill: #4d315c;
      }

      .cls-2 {
        fill: none;
        stroke: #4d315c;
        stroke-linecap: round;
        stroke-linejoin: round;
        stroke-width: 2px;
      }

      .cls-3 {
        fill: #fff;
      }

      .cls-4 {
        fill: #f47f51;
      }
    </style>
  </defs>
  <polyline class="cls-4" points="34.58 21.63 31.08 30.67 25.55 25.21 31.86 21.01"/>
  <path class="cls-4" d="M17.81,12.26c1.09-.2,2.05-.96,2.94-1.63,5.15-3.75,10.52-5.33,16.89-4.55,4.84.61,15.39,4.98,10.4,10.9-3.96,4.57-14.43,5.75-20.63,4.12-2.48-.51-5.06-1.44-7.25-2.53-1.07-.48-2.09-.73-3.09-.5-2.13.59-3.8,2.53-5.09,4.26-2.23,3.11-2.92,7.55-6.63,9.51-3.47,1.84-6.43.73-3.68-3.29,3.22-4.8,6.25-10.64,4.13-16.24-.82-2.37-3.65-6.27-4.97-8.33C.26,3.04-.35,1.77.23.76,1.29-.67,3.54.21,4.79,1.03c3.99,2.74,7.47,11.01,12.85,11.26l.16-.03Z"/>
  <path class="cls-2" d="M34.52,21.78c-1.22.04-2.41.01-3.56-.09"/>
  <path class="cls-4" d="M32.94,6.1l-2.43-3.48c-1.95-2.79-5.98-3.11-8.3-.62s-4.48,5.91-4.92,10.53"/>
  <path class="cls-3" d="M44.11,11.26c-.62-.03-2-.1-3.16,0-1.04.09-1.91.4-1.91,1.21,0,1.08,1.12,1.41,1.95,1.41h3.07c1.35,0,1.77-.73,1.77-1.3,0-.76-.61-1.32-1.73-1.32Z"/>
  <circle class="cls-1" cx="42.61" cy="12.55" r="1.34"/>
  <path class="cls-2" d="M38,9.59c-3,2.25-2.56,6.19.28,8.35"/>
  <path class="cls-2" d="M48.25,16.03c-1.53.24-3.74-.26-4.79,1.12"/>
  <path class="cls-2" d="M17.81,12.26c1.09-.2,2.05-.96,2.94-1.63,3.63-2.65,7.37-4.21,11.5-4.63"/>
  <line class="cls-2" x1="29.88" y1="6.38" x2="27.44" y2="2.27"/>
  <line class="cls-2" x1="20.98" y1="10.47" x2="19.67" y2="9.13"/>
  <line class="cls-2" x1="26.83" y1="7.28" x2="23.47" y2="3.18"/>
  <line class="cls-2" x1="23.64" y1="8.77" x2="21.15" y2="6.21"/>
  <line class="cls-2" x1="32.94" y1="21.8" x2="30.06" y2="25.84"/>
  <line class="cls-2" x1="14.24" y1="13.43" x2="7.14" y2="7.28"/>
  <line class="cls-2" x1="13.54" y1="15.25" x2="8.43" y2="15.25"/>
  <line class="cls-2" x1="13.77" y1="17.15" x2="7.61" y2="22.93"/>
</svg>