<svg width="195" height="19" viewBox="0 0 195 19" fill="none" xmlns="http://www.w3.org/2000/svg">
<path d="M6.19838 18.336C3.00638 18.336 0.678375 16.248 0.414375 13.248L4.71038 12.768C4.78238 13.656 5.35838 14.232 6.12638 14.232C6.94238 14.232 7.54238 13.608 7.54238 12.672V1.2H11.8864V13.2C11.8864 16.224 9.53438 18.336 6.19838 18.336ZM13.9245 18L19.3005 1.2H23.9805L29.3805 18H24.6285L23.8845 15.288H19.4205L18.6765 18H13.9245ZM20.4285 11.52H22.8765L21.6525 7.032L20.4285 11.52ZM32.2125 18V1.2H37.5405L41.2605 11.568L44.9325 1.2H50.3325V18H46.0845L46.1085 9.24L43.1325 18H39.4365L36.4125 9.216L36.4365 18H32.2125ZM60.7311 18.336C56.8911 18.336 54.2271 15.792 54.2271 12.168V1.2H58.5711V12.072C58.5711 13.32 59.4591 14.208 60.7311 14.208C61.9791 14.208 62.8911 13.32 62.8911 12.072V1.2H67.2351V12.168C67.2351 15.792 64.5471 18.336 60.7311 18.336ZM77.2016 18.384C73.7696 18.384 70.9136 16.176 70.1216 13.416L74.4896 12.48C74.8016 13.608 75.8336 14.376 77.0816 14.376C78.2096 14.376 79.0016 13.776 79.0016 12.984C79.0016 12.312 78.3776 12.024 77.6096 11.688C76.7696 11.328 75.7616 11.064 74.6816 10.656C72.7376 9.936 70.8416 8.688 70.8416 5.904C70.8416 2.904 73.2176 0.863999 76.6736 0.863999C79.8656 0.863999 82.4336 2.568 83.0096 4.992L78.8576 5.976C78.5936 5.112 77.8256 4.56 76.8416 4.56C75.8816 4.56 75.2096 5.112 75.2096 5.76C75.2096 6.312 75.7616 6.624 76.5296 6.936C77.2736 7.248 78.3296 7.512 79.3136 7.896C81.3776 8.688 83.2976 10.032 83.2976 12.912C83.2976 16.032 80.7776 18.384 77.2016 18.384ZM101.26 18.384C97.8278 18.384 94.9718 16.176 94.1798 13.416L98.5478 12.48C98.8598 13.608 99.8918 14.376 101.14 14.376C102.268 14.376 103.06 13.776 103.06 12.984C103.06 12.312 102.436 12.024 101.668 11.688C100.828 11.328 99.8198 11.064 98.7398 10.656C96.7958 9.936 94.8998 8.688 94.8998 5.904C94.8998 2.904 97.2758 0.863999 100.732 0.863999C103.924 0.863999 106.492 2.568 107.068 4.992L102.916 5.976C102.652 5.112 101.884 4.56 100.9 4.56C99.9398 4.56 99.2678 5.112 99.2678 5.76C99.2678 6.312 99.8198 6.624 100.588 6.936C101.332 7.248 102.388 7.512 103.372 7.896C105.436 8.688 107.356 10.032 107.356 12.912C107.356 16.032 104.836 18.384 101.26 18.384ZM114.052 18V5.16H110.38V1.2H122.092V5.16H118.396V18H114.052ZM131.372 18.384C127.028 18.384 123.98 14.784 123.98 9.648C123.98 4.464 127.052 0.816 131.444 0.816C135.788 0.816 138.86 4.392 138.86 9.456C138.86 14.688 135.764 18.384 131.372 18.384ZM131.42 14.352C133.22 14.352 134.492 12.336 134.492 9.456C134.492 6.84 133.22 5.016 131.42 5.016C129.596 5.016 128.348 6.936 128.348 9.648C128.348 12.408 129.596 14.352 131.42 14.352ZM142.292 18V1.2H149.852C153.068 1.2 155.348 3.288 155.348 6.288C155.348 8.496 154.22 10.2 152.42 10.992L155.396 18H151.004L148.196 11.448H146.636V18H142.292ZM149.012 7.728C149.9 7.728 150.5 7.224 150.5 6.504C150.5 5.808 149.9 5.304 149.036 5.304H146.636V7.728H149.012ZM159.079 18V1.2H163.423V18H159.079ZM167.592 18V1.2H178.752V5.28H172.464V7.416H177V11.496H172.464V13.92H178.992V18H167.592ZM188.739 18.384C185.307 18.384 182.451 16.176 181.659 13.416L186.027 12.48C186.339 13.608 187.371 14.376 188.619 14.376C189.747 14.376 190.539 13.776 190.539 12.984C190.539 12.312 189.915 12.024 189.147 11.688C188.307 11.328 187.299 11.064 186.219 10.656C184.275 9.936 182.379 8.688 182.379 5.904C182.379 2.904 184.755 0.863999 188.211 0.863999C191.403 0.863999 193.971 2.568 194.547 4.992L190.395 5.976C190.131 5.112 189.363 4.56 188.379 4.56C187.419 4.56 186.747 5.112 186.747 5.76C186.747 6.312 187.299 6.624 188.067 6.936C188.811 7.248 189.867 7.512 190.851 7.896C192.915 8.688 194.835 10.032 194.835 12.912C194.835 16.032 192.315 18.384 188.739 18.384Z" fill="#3B315D"/>
</svg>
