<svg width="160" height="108" viewBox="0 0 160 108" fill="none" xmlns="http://www.w3.org/2000/svg">
<path d="M33.0703 45.8715L38.1166 45.3083C38.2012 46.3502 38.8778 47.0259 39.7799 47.0259C40.7384 47.0259 41.4432 46.2938 41.4432 45.1957V31.7362H46.5458V45.8152C46.5458 49.363 43.7831 51.8409 39.8645 51.8409C35.9458 51.8409 33.3804 49.3912 33.0703 45.8715Z" fill="#3B315D"/>
<path d="M54.1313 31.7362H59.6286L65.9717 51.4467H60.3898L59.5159 48.2649H54.2723L53.3983 51.4467H47.8164L54.1313 31.7362ZM58.3318 43.8441L56.8941 38.5786L55.4563 43.8441H58.3318Z" fill="#3B315D"/>
<path d="M67.7461 31.7362H74.0046L78.3743 43.9004L82.6876 31.7362H89.0307V51.4467H84.0408V41.1691L80.5732 51.4467H76.2317L72.6796 41.1409V51.4467H67.7461V31.7362Z" fill="#3B315D"/>
<path d="M92.0742 44.6044V31.7362H97.1769V44.4917C97.1769 45.9559 98.22 46.9978 99.7141 46.9978C101.208 46.9978 102.251 45.9559 102.251 44.4917V31.7362H107.354V44.6044C107.354 48.8562 104.197 51.8409 99.7141 51.8409C95.2317 51.8409 92.0742 48.8562 92.0742 44.6044Z" fill="#3B315D"/>
<path d="M109.273 46.0404L114.404 44.9423C114.771 46.2657 115.983 47.1667 117.449 47.1667C118.774 47.1667 119.704 46.4628 119.704 45.5336C119.704 44.7452 118.971 44.4073 118.069 44.0131C117.082 43.5907 115.898 43.2809 114.63 42.8023C112.346 41.9575 110.119 40.4933 110.119 37.227C110.119 33.7073 112.91 31.3138 116.97 31.3138C120.719 31.3138 123.736 33.3131 124.412 36.157L119.535 37.3115C119.225 36.2978 118.323 35.6502 117.167 35.6502C116.011 35.6502 115.25 36.2978 115.25 37.0581C115.25 37.7057 115.898 38.0717 116.801 38.4378C117.674 38.8038 118.915 39.1136 120.071 39.5641C122.495 40.4933 124.751 42.0702 124.751 45.4491C124.751 49.1096 121.79 51.8691 117.59 51.8691C113.389 51.8691 110.204 49.2786 109.273 46.0404Z" fill="#3B315D"/>
<path d="M25.1211 69.2706L30.2519 68.1725C30.6184 69.4959 31.8307 70.397 33.2966 70.397C34.6216 70.397 35.5519 69.693 35.5519 68.7638C35.5519 67.9754 34.819 67.6375 33.9168 67.2433C32.9301 66.8209 31.7461 66.5112 30.4775 66.0325C28.194 65.1878 25.9668 63.7235 25.9668 60.4572C25.9668 56.9375 28.7578 54.5441 32.8174 54.5441C36.5668 54.5441 39.5833 56.5433 40.2599 59.3872L35.3828 60.5417C35.0727 59.528 34.1706 58.8804 33.0147 58.8804C31.8589 58.8804 31.0977 59.528 31.0977 60.2883C31.0977 60.9359 31.7461 61.302 32.6482 61.668C33.5222 62.0341 34.7626 62.3438 35.9184 62.7943C38.3429 63.7235 40.5982 65.3004 40.5982 68.6793C40.5982 72.3399 37.6381 75.0993 33.4376 75.0993C29.2371 75.0993 26.0514 72.5088 25.1211 69.2706Z" fill="#3B315D"/>
<path d="M46.2078 59.6125H41.8945V54.9664H55.652V59.6125H51.3105V74.677H46.2078V59.6125Z" fill="#3B315D"/>
<path d="M56.2148 64.8781C56.2148 58.796 59.8234 54.516 64.9824 54.516C70.1414 54.516 73.6936 58.7115 73.6936 64.6528C73.6936 70.5942 70.0569 75.1276 64.8978 75.1276C59.7388 75.1276 56.2148 70.9039 56.2148 64.8781ZM68.5627 64.6528C68.5627 61.5836 67.0686 59.4436 64.9542 59.4436C62.8398 59.4436 61.3457 61.6963 61.3457 64.8781C61.3457 68.0599 62.8117 70.397 64.9542 70.397C67.0968 70.397 68.5627 68.0318 68.5627 64.6528Z" fill="#3B315D"/>
<path d="M75.5273 54.9664H84.4077C88.1853 54.9664 90.8635 57.4162 90.8635 60.9359C90.8635 63.5264 89.5385 65.5256 87.4241 66.4549L90.9199 74.677H85.7609L82.4624 66.9899H80.63V74.677H75.5273V54.9664ZM85.1688 61.1893C85.1688 60.3727 84.464 59.7814 83.4492 59.7814H80.63V62.6254H83.421C84.464 62.6254 85.1688 62.0341 85.1688 61.1893Z" fill="#3B315D"/>
<path d="M93.543 54.9664H98.6456V74.677H93.543V54.9664Z" fill="#3B315D"/>
<path d="M102.422 54.9664H115.531V59.7533H108.145V62.2593H113.473V67.0462H108.145V69.8901H115.813V74.677H102.422V54.9664Z" fill="#3B315D"/>
<path d="M117.449 69.2706L122.58 68.1725C122.947 69.4959 124.159 70.397 125.625 70.397C126.95 70.397 127.88 69.693 127.88 68.7638C127.88 67.9754 127.147 67.6375 126.245 67.2433C125.258 66.8209 124.074 66.5112 122.806 66.0325C120.522 65.1878 118.295 63.7235 118.295 60.4572C118.295 56.9375 121.086 54.5441 125.145 54.5441C128.895 54.5441 131.911 56.5433 132.588 59.3872L127.711 60.5417C127.401 59.528 126.499 58.8804 125.343 58.8804C124.187 58.8804 123.426 59.528 123.426 60.2883C123.426 60.9359 124.074 61.302 124.976 61.668C125.85 62.0341 127.091 62.3438 128.247 62.7943C130.671 63.7235 132.926 65.3004 132.926 68.6793C132.926 72.3399 129.966 75.0993 125.766 75.0993C121.565 75.0993 118.38 72.5088 117.449 69.2706Z" fill="#3B315D"/>
<path d="M81.8125 22.078V3.18408" stroke="#3B315D" stroke-width="3" stroke-linecap="round" stroke-linejoin="round"/>
<path d="M109.582 22.078L117.335 3.18408" stroke="#3B315D" stroke-width="3" stroke-linecap="round" stroke-linejoin="round"/>
<path d="M109.582 85.6586L117.335 104.553" stroke="#3B315D" stroke-width="3" stroke-linecap="round" stroke-linejoin="round"/>
<path d="M135.629 24.4433L156.913 3.18408" stroke="#3B315D" stroke-width="3" stroke-linecap="round" stroke-linejoin="round"/>
<path d="M3.55469 52.3478H14.6903" stroke="#3B315D" stroke-width="3" stroke-linecap="round" stroke-linejoin="round"/>
<path d="M156.917 52.3478H145.781" stroke="#3B315D" stroke-width="3" stroke-linecap="round" stroke-linejoin="round"/>
<path d="M24.8393 24.4433L3.55469 3.18408" stroke="#3B315D" stroke-width="3" stroke-linecap="round" stroke-linejoin="round"/>
<path d="M24.8393 41.1127L3.55469 28.6106" stroke="#3B315D" stroke-width="3" stroke-linecap="round" stroke-linejoin="round"/>
<path d="M135.629 41.1127L156.913 28.6106" stroke="#3B315D" stroke-width="3" stroke-linecap="round" stroke-linejoin="round"/>
<path d="M14.6903 69.524L3.55469 76.0567" stroke="#3B315D" stroke-width="3" stroke-linecap="round" stroke-linejoin="round"/>
<path d="M147.473 70.5096L156.917 76.0567" stroke="#3B315D" stroke-width="3" stroke-linecap="round" stroke-linejoin="round"/>
<path d="M81.8125 85.6586V104.553" stroke="#3B315D" stroke-width="3" stroke-linecap="round" stroke-linejoin="round"/>
<path d="M54.0426 22.078L46.2617 3.18408" stroke="#3B315D" stroke-width="3" stroke-linecap="round" stroke-linejoin="round"/>
<path d="M54.0426 85.6586L46.2617 104.553" stroke="#3B315D" stroke-width="3" stroke-linecap="round" stroke-linejoin="round"/>
<path d="M135.629 83.2933L156.913 104.553" stroke="#3B315D" stroke-width="3" stroke-linecap="round" stroke-linejoin="round"/>
<path d="M24.8393 83.2933L3.55469 104.553" stroke="#3B315D" stroke-width="3" stroke-linecap="round" stroke-linejoin="round"/>
</svg>
