<?xml version="1.0" encoding="UTF-8"?>
<svg id="sketch" xmlns="http://www.w3.org/2000/svg" xmlns:xlink="http://www.w3.org/1999/xlink" viewBox="0 0 2423.08 370.8">
  <defs>
    <style>
      .cls-1, .cls-2, .cls-3, .cls-4, .cls-5, .cls-6, .cls-7, .cls-8, .cls-9, .cls-10, .cls-11 {
        fill: none;
      }

      .cls-12 {
        fill: #f0e9ec;
      }

      .cls-13 {
        fill: #e698a3;
      }

      .cls-14 {
        fill: #1c9b79;
      }

      .cls-15 {
        fill: #eae4e7;
      }

      .cls-16 {
        fill: #c3afb9;
      }

      .cls-17 {
        fill: #3671b8;
      }

      .cls-18 {
        fill: #f2e34d;
      }

      .cls-2, .cls-3, .cls-4, .cls-5, .cls-6, .cls-7, .cls-8, .cls-9, .cls-10, .cls-11 {
        stroke-linecap: round;
      }

      .cls-2, .cls-3, .cls-5, .cls-9, .cls-10, .cls-11 {
        stroke-linejoin: round;
      }

      .cls-2, .cls-3, .cls-6, .cls-7, .cls-8, .cls-9, .cls-10, .cls-11 {
        stroke-width: 2px;
      }

      .cls-2, .cls-4, .cls-5, .cls-8 {
        stroke: #47385c;
      }

      .cls-19 {
        fill: #47385c;
      }

      .cls-3 {
        stroke: #dfdde7;
      }

      .cls-4, .cls-5 {
        stroke-width: 1.5px;
      }

      .cls-4, .cls-6, .cls-7, .cls-8 {
        stroke-miterlimit: 10;
      }

      .cls-20 {
        fill: #fff;
      }

      .cls-6 {
        stroke: #f58b63;
      }

      .cls-21 {
        fill: #ec6471;
      }

      .cls-22 {
        fill: #f0484a;
      }

      .cls-7, .cls-9 {
        stroke: #ec6471;
      }

      .cls-10 {
        stroke: #beb9cc;
      }

      .cls-11 {
        stroke: #675b7d;
      }

      .cls-23 {
        fill: #f58b63;
      }

      .cls-24 {
        clip-path: url(#clippath);
      }

      .cls-25 {
        fill: #d1bac5;
      }

      .cls-26 {
        fill: #f48992;
      }
    </style>
    <clipPath id="clippath">
      <rect class="cls-1" x="1255.78" y="14.54" width="301.82" height="356.26"/>
    </clipPath>
  </defs>
  <circle class="cls-14" cx="2164.65" cy="178.91" r="5.8"/>
  <circle class="cls-14" cx="2135.08" cy="115.11" r="5.8"/>
  <circle class="cls-14" cx="2023.72" cy="294.75" r="5.8"/>
  <circle class="cls-14" cx="2036.59" cy="270.36" r="5.8"/>
  <circle class="cls-14" cx="2381.8" cy="308.95" r="5.8"/>
  <circle class="cls-14" cx="2223.23" cy="354.92" r="5.8"/>
  <g>
    <polygon class="cls-18" points="326.43 262.32 337.46 229.71 388.23 205.38 423.06 214.22 411.95 253.47 360.74 279.1 326.43 262.32 326.43 262.32"/>
    <polygon class="cls-2" points="352.49 248.79 371.27 254.39 390.12 243.49 396.3 227.81 396.33 227.84 384.27 225.68 372.13 230.01 358.14 237.08 352.49 248.79 352.49 248.79"/>
    <line class="cls-2" x1="396.33" y1="227.84" x2="423.06" y2="214.22"/>
    <line class="cls-2" x1="384.27" y1="225.68" x2="388.23" y2="205.38"/>
    <line class="cls-2" x1="358.14" y1="237.08" x2="337.46" y2="229.71"/>
    <line class="cls-2" x1="352.49" y1="248.79" x2="326.43" y2="262.32"/>
    <line class="cls-2" x1="371.27" y1="254.39" x2="360.74" y2="279.1"/>
    <line class="cls-2" x1="390.12" y1="243.49" x2="411.95" y2="253.47"/>
  </g>
  <circle class="cls-14" cx="1400.12" cy="60.48" r="5.8"/>
  <circle class="cls-14" cx="1412.84" cy="60.38" r="5.8"/>
  <circle class="cls-14" cx="1351.8" cy="61.22" r="5.8"/>
  <g>
    <polygon class="cls-17" points="992.76 142.57 1005.35 121.66 1031.21 116.1 1048.4 135.11 1044.8 158.75 1025.62 168.36 1003.26 163.46 992.76 142.57 992.76 142.57"/>
    <polygon class="cls-2" points="1015.31 136.95 1011.41 143.55 1015.91 151.52 1022.33 153.12 1029.42 149.2 1031.51 140 1025.22 134.18 1015.31 136.95 1015.31 136.95"/>
    <line class="cls-2" x1="1031.51" y1="140" x2="1048.4" y2="135.11"/>
    <line class="cls-2" x1="1029.42" y1="149.2" x2="1044.8" y2="158.75"/>
    <line class="cls-2" x1="1022.33" y1="153.12" x2="1025.62" y2="168.36"/>
    <line class="cls-2" x1="1015.91" y1="151.52" x2="1003.26" y2="163.46"/>
    <line class="cls-2" x1="1011.41" y1="143.55" x2="992.76" y2="142.57"/>
    <line class="cls-2" x1="1015.31" y1="136.95" x2="1005.78" y2="121.59"/>
    <line class="cls-2" x1="1025.22" y1="134.18" x2="1031.21" y2="116.1"/>
  </g>
  <path class="cls-25" d="M1116.47,305.7c-26.28-23.53-64.58-30.59-95.79-31.36-41.64-1.03-76.02-1.71-118.5-2.73-7.18-.17-13.33-5.21-14.9-12.22l-15.32-68.39c-3.72-16.61-18.27-28.55-35.28-28.97l-63.21-1.56c.39,5.14,10.44,46.7,15.46,62.46,8.35,26.22,20.26,29.58,20.06,37.62-.05,2.1-1.21,3.91-2.54,5.63-5,6.51-9.55,13.34-9.75,21.54h0c-.31,12.5,7.07,23.94,18.61,28.74,45.77,19.03,157.51,53.07,208.72,54.33,47.75,1.18,76.59-13.98,89.53-25.81l2.9-39.29Z"/>
  <circle class="cls-14" cx="900.04" cy="365" r="5.8"/>
  <circle class="cls-14" cx="955.47" cy="206.88" r="5.8"/>
  <circle class="cls-14" cx="944.97" cy="202.95" r="5.8"/>
  <circle class="cls-14" cx="1067.71" cy="210.26" r="5.8"/>
  <circle class="cls-14" cx="1010.54" cy="114.55" r="5.8"/>
  <circle class="cls-14" cx="683.2" cy="365" r="5.8"/>
  <circle class="cls-14" cx="668.85" cy="365" r="5.8"/>
  <circle class="cls-14" cx="780.44" cy="365" r="5.8"/>
  <circle class="cls-14" cx="542.25" cy="365" r="5.8"/>
  <circle class="cls-14" cx="221.35" cy="365" r="5.8"/>
  <circle class="cls-14" cx="207.15" cy="365" r="5.8"/>
  <circle class="cls-14" cx="53.83" cy="365" r="5.8"/>
  <circle class="cls-14" cx="82.29" cy="365" r="5.8"/>
  <circle class="cls-14" cx="96.6" cy="365" r="5.8"/>
  <circle class="cls-14" cx="78.11" cy="354.64" r="5.8"/>
  <circle class="cls-14" cx="70.69" cy="365" r="5.8"/>
  <circle class="cls-14" cx="140.09" cy="317.43" r="5.8"/>
  <circle class="cls-14" cx="291.03" cy="360.38" r="5.8"/>
  <circle class="cls-14" cx="330.87" cy="165.04" r="5.8"/>
  <circle class="cls-14" cx="345.26" cy="161.03" r="5.8"/>
  <circle class="cls-14" cx="393.77" cy="270.67" r="5.8"/>
  <circle class="cls-14" cx="433.8" cy="312.11" r="5.8"/>
  <circle class="cls-14" cx="204.63" cy="353.81" r="5.8"/>
  <circle class="cls-14" cx="1554.49" cy="365" r="5.8"/>
  <path class="cls-16" d="M875.92,207.44c40.96-14.24,82.72,6.95,82.72,6.95l-20.86,57.59c-11.42-.26-23.16-.08-35.59-.38-7.18-.17-13.33-5.21-14.9-12.22l-11.37-51.95Z"/>
  <path class="cls-2" d="M881.82,232.58c7.76-2.35,16.24-3.43,25.24-3.2,19.58.48,36.46,6.94,42.6,9.59"/>
  <path class="cls-2" d="M887.88,259.63c5.11-1.55,10.93-2.25,17.33-2.09,15.56.38,29.79,5.71,34.83,7.81"/>
  <polygon class="cls-16" points="1116.27 308.41 1113.87 342.04 1163.75 346.6 1166.29 310.98 1116.27 308.41"/>
  <line class="cls-2" x1="1164.96" y1="329.6" x2="1181.18" y2="330.76"/>
  <path class="cls-16" d="M900.04,345.29c-25.97,23.49-74.53,25.93-93.28,25.47-13.31-.33-13.18-8.37-13.09-11.96.01-.46.31-12.02.32-12.49.29-11.77,10.07-21.08,21.84-20.79l24.77.61"/>
  <circle class="cls-23" cx="1186.6" cy="331.15" r="5.44"/>
  <path class="cls-2" d="M804.42,287.45s162.41,28.01,290.78,37.18c5.2.37,19.82,1.42,19.82,1.42"/>
  <polygon class="cls-2" points="827.69 268.01 800.87 176.85 842.14 177.84 863.18 269.33 827.69 268.01"/>
  <path class="cls-2" d="M840.6,326.12c17.2,6.14,37.87,12.86,59.44,19.17"/>
  <g>
    <line class="cls-2" x1="1113.19" y1="351.68" x2="1116.77" y2="301.4"/>
    <line class="cls-2" x1="1125.41" y1="356.23" x2="1129.59" y2="297.73"/>
    <line class="cls-2" x1="1137.63" y1="360.79" x2="1142.4" y2="294.06"/>
    <line class="cls-2" x1="1149.86" y1="365.35" x2="1155.21" y2="290.39"/>
    <line class="cls-2" x1="1168.02" y1="286.72" x2="1162.08" y2="369.91"/>
  </g>
  <g>
    <path class="cls-2" d="M901.5,323.9c-1.55,3.43,0,4.96,1.4,5.05,1.62.1,3.66-.3,5.85-5.12.41-.92,1.66-3.65,2.94-6.48.98-2.16.24-3.8-1.55-4.35-2.13-.46-4.18,1.07-5.18,3.29l-3.45,7.61Z"/>
    <path class="cls-2" d="M878.6,320.11c-1.55,3.43-.3,5,1.04,5.26,1.59.31,4.03-.52,6.21-5.33l2.94-6.48c.98-2.16.24-3.8-1.55-4.35-2.13-.46-4.18,1.07-5.18,3.29l-3.45,7.61Z"/>
    <path class="cls-2" d="M893.29,314.89c1.57-3.43,4.16-4.18,5.42-3.76,1.45.48,2.83,1.53.62,6.34-.42.91-1.5,3.31-2.79,6.13-.99,2.16-3.16,3.62-5.13,3.46-2.18-.36-2.45-2.7-1.43-4.92l3.31-7.26Z"/>
    <path class="cls-2" d="M924.96,317.59c-.32-1.27-1.02-2.42-2.77-2.75s-4.97,1.03-6.6,4.59c-1.13,2.46-.62,4.58,1.24,5.21,2.39.82,4.31-.24,4.31-.24l-3.92,6.55-4.95-.89"/>
  </g>
  <path class="cls-2" d="M1065.31,341.31l-3.94-.64c-.68-.11-1.34-.08-1.97.08-.63.17-1.22.49-1.77.97-.55.48-.99,1.11-1.34,1.88-.2.55-.26,1.11-.18,1.67.08.56.3,1.05.67,1.47s.83.67,1.42.77l4.15.68,6.6-15.59h.05s-6.63,15.64-6.63,15.64l-4.17-.68c-.59-.1-1.07-.35-1.43-.77-.37-.42-.6-.92-.68-1.5-.09-.59-.03-1.15.17-1.69.35-.78.8-1.42,1.35-1.9.55-.48,1.14-.81,1.79-.98.65-.17,1.31-.2,1.99-.09l3.94.64v.05Z"/>
  <path class="cls-2" d="M1043.08,346.14l.03-.02,6.59.83,6.61-15.54-6.59-.83-.02-.03.03-.02,6.63.83-6.63,15.63-6.63-.83-.02-.03ZM1047.58,338.54l.03-.02,5.43.64.02.03-.03.02-5.43-.64-.02-.03Z"/>
  <path class="cls-2" d="M1036.67,329.09l-2.04,16.29,11.16-14.8.02.03-11.23,14.91,2.04-16.43h.05ZM1035.64,336.97l4.73.8v.05s-4.74-.8-4.74-.8v-.05Z"/>
  <path class="cls-2" d="M1024.05,331.54l-.02-.03c.32-.77.74-1.44,1.27-2.01.53-.56,1.12-.97,1.77-1.23.65-.26,1.31-.33,1.98-.22.88.14,1.52.56,1.9,1.24.39.68.48,1.68.28,3-.2,1.32-.74,2.96-1.62,4.93-.81,1.87-1.6,3.36-2.37,4.47s-1.52,1.89-2.25,2.34c-.73.44-1.48.6-2.23.48-.74-.12-1.33-.44-1.78-.94-.44-.51-.69-1.14-.74-1.88-.05-.75.11-1.54.48-2.36l.03-.02.02.03c-.37.83-.53,1.61-.48,2.35.05.74.3,1.36.73,1.86.43.5,1.01.81,1.74.93.76.12,1.5-.03,2.22-.47s1.46-1.21,2.22-2.32,1.55-2.59,2.36-4.46c.88-1.97,1.41-3.6,1.61-4.9.2-1.3.11-2.29-.28-2.97-.38-.68-1-1.09-1.87-1.23-.67-.11-1.32-.03-1.97.23-.65.26-1.23.67-1.76,1.22-.53.56-.94,1.22-1.24,1.98l-.03.02Z"/>
  <path class="cls-2" d="M1007.01,342.18l.03-.02,6.59.83,6.61-15.54-6.59-.83-.02-.03.03-.02,6.63.83-6.63,15.63-6.63-.83-.02-.03ZM1011.51,334.59l.03-.02,5.43.64.02.03-.03.02-5.43-.64-.02-.03Z"/>
  <path class="cls-2" d="M999.88,333.22l.03-.02,6.29.78.02.03-.03.02-6.29-.78-.02-.03Z"/>
  <path class="cls-2" d="M997.49,325.74l.02.03-6.68,15.65-1.37-8.25-7.73,6.79,6.7-15.67.03-.02.02.03-6.63,15.49,7.64-6.7,1.33,8.19,6.63-15.51.03-.02Z"/>
  <path class="cls-2" d="M973.66,322.48l-2.04,16.29,11.16-14.8.02.03-11.23,14.91,2.04-16.43h.05ZM972.63,330.36l4.73.8v.05s-4.74-.8-4.74-.8v-.05Z"/>
  <path class="cls-2" d="M954.67,336.52l10.89-7.63.02.05-10.89,7.63-.02-.05ZM960.98,321.08l.34,10.75h-.05s-.34-10.76-.34-10.76h.05ZM968.52,322.31l-6.62,15.59h-.02s6.62-15.59,6.62-15.59h.02Z"/>
  <path class="cls-2" d="M942.17,335.17l.03-.02,6.59,1.08,6.61-15.54-6.59-1.08-.02-.03.03-.02,6.63,1.09-6.63,15.63-6.63-1.08-.02-.03ZM946.67,327.57l.03-.02,5.43.89.02.03-.03.02-5.43-.89-.02-.03Z"/>
  <path class="cls-2" d="M939.99,327.69l-.03.02-3.9-.64c-.77-.13-1.5-.04-2.18.25-.68.29-1.26.72-1.74,1.29-.47.57-.8,1.18-.99,1.83-.12.55-.13,1.06-.01,1.52.11.46.35.85.7,1.15.36.3.81.5,1.37.59l3.9.64,6.59-15.57.03-.02.02.03-6.63,15.61-3.92-.64c-.57-.09-1.03-.3-1.39-.61-.35-.31-.59-.7-.71-1.16-.12-.47-.12-.98,0-1.55.19-.67.52-1.28,1-1.85.48-.56,1.06-1,1.75-1.3.68-.3,1.42-.39,2.21-.26l3.9.64.02.03ZM937.41,317.71l.02.03-1.08,9.35s-.01.02-.03.02l-.02-.03,1.08-9.35.03-.02Z"/>
  <path class="cls-2" d="M937.76,272.44c-11.42-.26-23.15-.53-35.58-.82-7.18-.17-13.33-5.21-14.9-12.22l-11.63-51.89"/>
  <circle class="cls-14" cx="1623.13" cy="305.92" r="5.8"/>
  <circle class="cls-14" cx="1598.41" cy="326.54" r="5.8"/>
  <circle class="cls-14" cx="1617.33" cy="296.43" r="5.8"/>
  <g>
    <path class="cls-26" d="M1603.9,329.37c2.89-2.73,5.88-5.34,8.68-8.16,4.84-5.02,10.6-11.76,18.35-10.17,5.36,1.33,9.81,5.63,12.65,10.23,2.47,4,3.52,8.62,4.51,13.17.79,3.6,1.69,7.23,3.08,10.64.92,2.38,2.05,4.69,2.59,7.19,1.06,5.11-.37,10.76-3.68,14.77-2.16,2.52-5.48,3.73-8.76,3.54-2.65-.09-5.12-1.02-7.63-1.85-3.94-1.41-8.06-1.8-12.23-1.75-7.9-.12-15.67,1.72-23.38,3.2-3.8.79-7.73,1.05-11.6.88-1.6-.07-3.28-.22-4.79-.69-4.96-1.33-7.46-6.88-6.39-11.68,1.28-5.73,7.12-9.5,11.2-13.23,5.83-5.34,11.62-10.72,17.42-16.08"/>
    <path class="cls-2" d="M1650.95,352.16c-2.41.07-5.15.37-7.09-1.3-3.38-3.2-2.73-11.72-2.49-16.46"/>
    <path class="cls-2" d="M1636.98,369.77c-3.85-1.32-10.48-5.25-10.62-9.94"/>
  </g>
  <g>
    <polygon class="cls-22" points="1115.71 241.6 1098.52 292.98 1058.08 261.76 1075.6 204.07 1115.71 241.6 1115.71 241.6"/>
    <polyline class="cls-2" points="1075.6 204.07 1082.04 229.36 1075.62 255.75 1058.08 261.76"/>
    <polyline class="cls-2" points="1075.62 255.75 1092.8 270.44 1098.52 292.98"/>
    <polyline class="cls-2" points="1092.8 270.44 1099.56 245.57 1115.71 241.6"/>
    <line class="cls-2" x1="1099.56" y1="245.57" x2="1082.04" y2="229.36"/>
  </g>
  <g>
    <polygon class="cls-22" points="1718.15 371.08 1737.18 356.03 1740.24 330.48 1723.93 312.54 1701.64 311.8 1670.83 325.74 1662.44 349.14 1686.32 371.08 1718.15 371.08"/>
    <polyline class="cls-2" points="1670.83 325.74 1693.58 336.51 1707.51 329.73 1701.64 311.8"/>
    <polyline class="cls-2" points="1707.51 329.73 1717.77 332.16 1723.93 312.54"/>
    <polyline class="cls-2" points="1717.77 332.16 1720.96 337.64 1740.24 330.48"/>
    <polyline class="cls-2" points="1720.96 337.64 1718.16 345.81 1737.18 356.03"/>
    <polyline class="cls-2" points="1718.16 345.81 1705.15 351.42 1718.15 371.08"/>
    <polyline class="cls-2" points="1705.15 351.42 1697.24 351.54 1693.58 347.33 1693.58 336.51"/>
    <line class="cls-2" x1="1693.58" y1="347.33" x2="1662.44" y2="349.14"/>
    <line class="cls-2" x1="1697.24" y1="351.54" x2="1686.32" y2="371.08"/>
  </g>
  <g>
    <polygon class="cls-18" points="1022.27 167.91 1071.4 222.95 1033.3 275.11 968.81 273.16 947.4 240.35 974.25 177.81 1022.27 167.91 1022.27 167.91"/>
    <polyline class="cls-2" points="974.25 177.81 994.92 204.84 1014.62 201.08 1022.27 167.91"/>
    <polyline class="cls-2" points="1014.62 201.08 1033.16 225.28 1071.4 222.95"/>
    <polyline class="cls-2" points="1033.16 225.28 1023.21 239.45 1033.3 275.11"/>
    <polyline class="cls-2" points="1023.21 239.45 995.39 238.62 968.81 273.16"/>
    <polyline class="cls-2" points="995.39 238.62 980.99 230.92 947.4 240.35"/>
    <line class="cls-2" x1="980.99" y1="230.92" x2="994.92" y2="204.84"/>
  </g>
  <g>
    <polygon class="cls-14" points="779.53 340.56 757.04 290.17 713.05 301.04 697.04 346.28 712.56 370.86 760.26 370.86 779.53 340.56 779.53 340.56"/>
    <polyline class="cls-2" points="760.26 370.86 748.28 348.51 755.99 335.99 779.53 340.56"/>
    <polyline class="cls-2" points="755.99 335.99 745.28 315.95 757.04 290.17"/>
    <polyline class="cls-2" points="726.53 338.14 727.66 350.41 712.56 370.86"/>
    <line class="cls-2" x1="727.66" y1="350.41" x2="748.28" y2="348.51"/>
    <polyline class="cls-2" points="745.28 315.95 733.44 318.63 726.53 338.14 697.04 346.28"/>
    <line class="cls-2" x1="733.44" y1="318.63" x2="713.05" y2="301.04"/>
  </g>
  <circle class="cls-14" cx="1130.62" cy="365" r="5.8"/>
  <circle class="cls-14" cx="1280.26" cy="365" r="5.8"/>
  <circle class="cls-14" cx="1101.54" cy="365" r="5.8"/>
  <circle class="cls-14" cx="1100.37" cy="353.87" r="5.8"/>
  <circle class="cls-14" cx="1081.2" cy="365" r="5.8"/>
  <circle class="cls-14" cx="1046.77" cy="365" r="5.8"/>
  <circle class="cls-14" cx="1035.17" cy="365" r="5.8"/>
  <circle class="cls-14" cx="1020.63" cy="365" r="5.8"/>
  <circle class="cls-14" cx="1027.9" cy="356.16" r="5.8"/>
  <g>
    <rect class="cls-14" x="140.74" y="326.09" width="87.95" height="4.41" transform="translate(-93.64 582.1) rotate(-103)"/>
    <path class="cls-14" d="M116.45,324.59c-.07.14-.17.24-.24.39-.15.35.11.72.4.91s.73.21,1.03.03c.33-.2.45-.68.81-.89.67-.4,1.06-1.04,1.18-1.8.05-.34.07-.7.2-1.02.15-.36.43-.59.5-1,.26-1.55.59-3.17.04-4.7-.02-.05-.04-.11-.08-.14-.27-.25-1.02-.14-1.35-.14-.64,0-1.27.02-1.91.07-1.86.16-3.94.49-5.69,1.14-.21.08-.42.17-.57.33-.59.61.06,1.83.23,2.49.39,1.52.81,3.73,2.75,3.83.43.02,2.87-.76,2.75.32,0,.07-.03.13-.05.18Z"/>
    <path class="cls-14" d="M128.16,330.38c4.69-.12,9.39-.24,14.08-.35.61-.02,1.37.02,2.19.07,3.11.17,5.18-3.18,3.63-5.88-.45-.78-.92-1.59-1.38-2.38-2.25-3.88.02-8.81,4.42-9.65,3.34-.64,6.83-.87,8.62-.96,4.63-.23,11.65-.83,11.65-.83l2.08-10.21,2.64-.61,4.2,18.21-15.84,3.66,5.91,7.53s10.12-2.34,10.14-2.34c8.77-2.02,6.93,12.87,6.06,17.51-.69,3.68-1.39,7.36-2.08,11.04l7.71,5.73s.65,2.8.65,2.8c-1.36-.16-2.72-.33-4.08-.49-2.62-.31-5.54-.17-7.91-1.44,0,0,.2-.15-1.02.67s-4.67-.02-4.53-1.25,2.27-20.54,2.27-20.54c0,0-4.85,1.84-10.39,3.61l2.4,6.22c-9.54,2.43-22.47,4.81-34.6,4.78-10.51-.02-14.83-7.78-15.83-10.86-1.97-6.08.61-9.56.61-9.56"/>
    <rect class="cls-14" x="111.37" y="316.3" width="3.79" height="10.02" transform="translate(-174.35 503.93) rotate(-103)"/>
    <path class="cls-14" d="M107.34,280.97c-.37-1.59,1.41-1.52.89-3.76l-.56-2.43-9.77,2.25.56,2.43c.52,2.24,2.08,1.4,2.45,2.99l18.99,82.29c.36,1.55-1.41,1.49-.91,3.68l.55,2.38,9.77-2.25-.55-2.38c-.5-2.19-2.07-1.36-2.43-2.91l-18.99-82.29Z"/>
    <path class="cls-14" d="M126.25,324.19l-6.35-1.6-.2-6.76,9.11.88c9.11.88,8.26,10.44,8.26,10.44l.09,5.4-8.81-.12-2.11-8.25Z"/>
    <path class="cls-14" d="M118.06,327.41s9.28-2.14,13.45-.09c.8.4,2.02,1.44,2.66,4.2.67,2.91-1.71,7.86-2.28,9-1.28,2.54-2.48,5.72-5.45,6.39-3.46.79-5.25-.89-5.86-3.54s1.31-4.49,2.82-6.38c.7-.89,1.95-3.08,1.95-3.08-1.04.24-5.58.93-5.58.93l-1.72-7.44Z"/>
    <path class="cls-2" d="M118.06,327.41s9.14-2.11,13.45-.09c.81.38,2.02,1.44,2.66,4.2.67,2.91-1.71,7.86-2.28,9-1.28,2.54-2.48,5.72-5.45,6.39-3.46.79-5.25-.89-5.86-3.54s1.31-4.49,2.82-6.38c.7-.89,1.95-3.08,1.95-3.08-1.04.24-5.58.93-5.58.93l-1.72-7.44Z"/>
    <path class="cls-14" d="M117.93,346.61c-.81.27-1.71.93-2.33,1.49-1.31,1.18-2.76,1.58-4.45,1.97l.32,1.64s-12,4.06-14.55-7.01c-1.55-6.71,2.87-10.22,9.95-12.94l.68,2.48,4.05-1.72c.14.66.22.92.35,1.59,1.31-.3,1.98-.58,2.99-.51l3,12.99Z"/>
    <line class="cls-2" x1="106.86" y1="331.78" x2="111.46" y2="351.72"/>
    <path class="cls-2" d="M110.45,335.69c.14.52.41,1.67.41,1.67"/>
    <rect class="cls-2" x="108.25" y="319.42" width="10.02" height="3.79" transform="translate(-69.35 33.7) rotate(-13)"/>
    <line class="cls-2" x1="100.73" y1="281.65" x2="106.79" y2="280.25"/>
    <line class="cls-2" x1="119.9" y1="364.74" x2="126.33" y2="363.26"/>
    <line class="cls-2" x1="119.54" y1="370.8" x2="129.31" y2="368.54"/>
    <line class="cls-2" x1="97.9" y1="277.03" x2="107.67" y2="274.78"/>
    <polygon class="cls-14" points="137.07 327.16 146 320.14 152.94 323.5 153.28 332 137.16 332.56 135.15 328.5 137.07 327.16"/>
    <line class="cls-2" x1="161.73" y1="330.28" x2="170.37" y2="328.98"/>
    <path class="cls-2" d="M165.89,338.54c3.91-.9,7.92-1.64,11.76-2.74-.7-2.14-1.7-5.77-1.46-8.1"/>
    <path class="cls-2" d="M184.91,354.05c-2.63.6-6.69,1.03-8.43-1.44"/>
    <line class="cls-2" x1="123.5" y1="350.97" x2="126.33" y2="363.26"/>
    <path class="cls-2" d="M134.75,333.39c2.43,1.05,19.57-12.95,22.78-14.06l9.67,24.94"/>
    <line class="cls-2" x1="117.81" y1="355.67" x2="110.48" y2="323.91"/>
    <path class="cls-2" d="M139.62,350.34c3.01-.69,6.46-.96,9.31-1.99-.92-2.55-1.93-5.41-2.59-8.03"/>
    <path class="cls-2" d="M139.23,350.25c-.66-2.34-2.66-5.06-2.31-7.56"/>
    <path class="cls-2" d="M111.29,350.76c2.56-.61,2.54-1.49,4.15-3.22"/>
    <path class="cls-2" d="M110.73,347.5c2.09-.48,4-.85,3.53-3.45"/>
    <path class="cls-2" d="M109.99,344.29c1.73-.4,3.4-.72,4.92-1.51"/>
    <path class="cls-2" d="M109.37,341.61c1.41-.33,3.32-.43,4.12-1.71"/>
    <line class="cls-2" x1="116.91" y1="322.42" x2="119.77" y2="334.84"/>
    <line class="cls-2" x1="119.9" y1="322.59" x2="119.69" y2="315.83"/>
    <line class="cls-2" x1="116.05" y1="318.73" x2="114.04" y2="310"/>
    <line class="cls-2" x1="109.7" y1="320.19" x2="102.81" y2="290.35"/>
    <path class="cls-2" d="M148.49,325.3c-.09-.37-.23-.73-.43-1.08-.45-.78-.92-1.59-1.38-2.38-2.25-3.88.02-8.81,4.42-9.65"/>
    <path class="cls-2" d="M123.51,350.99c-2.52-2.33-3.85-5.04-4.35-6.58-1.97-6.08.61-9.56.61-9.56"/>
    <path class="cls-2" d="M134.99,355.27c-5.25-.01-8.96-1.96-11.48-4.28"/>
    <path class="cls-2" d="M175.56,359.17c3.18-.19,6.9,1.45,10.11,1.89,1.72.23,5.02.63,5.02.63"/>
    <path class="cls-2" d="M186.69,360.89c-.32-1.52.36-2.68.95-3.94"/>
    <path class="cls-2" d="M180.95,354.64c.24,2.09,3.32,4.76,5.43,4.33"/>
    <path class="cls-2" d="M173.28,319.64c-.45-1.93-.73-4.02-1.52-5.84-.5-1.15-1.29-2.28-1.47-3.53"/>
    <path class="cls-2" d="M172.65,303.77c1.13,2.09,3.68,1.97,5.07,1.69"/>
    <line class="cls-2" x1="175.01" y1="306.08" x2="177.9" y2="318.58"/>
    <path class="cls-2" d="M172.04,314.03c1.25-.21,3.98-2.47,3.58-5.34"/>
    <line class="cls-2" x1="192.23" y1="369.48" x2="173.87" y2="289.91"/>
    <path class="cls-2" d="M119.1,334.98c-2.15.5-5.65,1.45-6.67-1.21"/>
    <path class="cls-2" d="M117.42,327.69c-1.16.27-2.08.57-3.22.3-.92-.22-2.2-.67-2.9-.36"/>
    <path class="cls-2" d="M118.96,336.49c-.84.83-1.73,1.44-2.8,1.93"/>
    <path class="cls-2" d="M115.36,333.28c-.91-.15-2.16-.62-2.86-1.31"/>
    <path class="cls-2" d="M114.53,330.52c-.71.25-1.49.03-1.99-.52"/>
  </g>
  <g>
    <path class="cls-14" d="M296.45,253.04l1.08,1.38c1.38,2.5,1.68,5.17,2.28,7.91.69,3.15,1.57,6.26,2.45,9.36,1.22,4.32.02,8.97-3.14,12.16l-11.75,11.87s3.21,16.2,5.23,20.08c16.03,15.86,16.87,32.56,16.87,32.56l3.89,13.89c.33,1.19.34,2.44.03,3.63h0c-.12.45-.53.76-.99.76h-4.97c-3.41,0-1.84-3.74-3.32-5.46-1.8-2.1-1.26-2.6-1.32-5.07-.03-1.26-.91-5.73-.91-5.73l-6.07-12.32-14.51-11.3-9.79,15.02,6.58,21.29c.06.2.09.41.09.62v2.95s-16.63,0-16.63,0v-1.59c0-.91.4-1.77,1.09-2.36l4.94-3.29c.45-.39.49-1.07.07-1.5-1.83-1.83-6.1-7.16-6.1-16.98,0-12.48,8.6-21.5,8.6-21.5l-5.92-16.36s-1.44,7.51-7.85,11.82c-6.41,4.31-14.19,3.37-14.19,3.37v-1.8s0-6.41,0-6.41l10.01-2.38s2.38-6.34,4.18-11.02c1.8-4.68,3.67-5.47,3.67-5.47l6.52-5.26-.7-4.94-2.86,1.72s-6.92-11.09.63-15.58c7.55-4.49,12.58.09,16.17,5.48l-3.05,1.85,3.68,2.85-1.84,1.73s1.92,4.92,0,6.73l14.98-8.2.69-12.37-.88-1.33s-5.53-2.16-6.8-4.03.11-1.77,1.29-.98,2.56.59,3.05.59-1.28-5.01-2.06-5.6"/>
    <path class="cls-2" d="M290.95,259.43c.49,0-1.28-5.01-2.06-5.6"/>
    <path class="cls-2" d="M296.45,253.04l1.08,1.38c1.38,2.5,1.68,5.17,2.28,7.91"/>
    <rect class="cls-14" x="255.17" y="367.1" width="65.92" height="3.7" transform="translate(576.27 737.9) rotate(180)"/>
    <path class="cls-2" d="M270.39,282.31s-2.01.09-2.69-2.37"/>
    <line class="cls-2" x1="279.33" y1="281.69" x2="277.19" y2="282.31"/>
    <path class="cls-2" d="M276.05,277.22l-1.8.49"/>
    <polyline class="cls-2" points="266.58 285.93 275.43 299.18 275.69 287.19"/>
    <line class="cls-2" x1="279.18" y1="312.11" x2="280.94" y2="319.37"/>
    <polyline class="cls-2" points="263.74 288.22 265.03 294.79 268.65 294.5 266.23 297.31 273.01 300.94"/>
    <path class="cls-2" d="M278.62,285.75c-1.92,1.81-5.53,1.4-5.53,1.4l-2.71-2.38"/>
    <line class="cls-2" x1="279.82" y1="272.6" x2="263.02" y2="282.7"/>
    <polyline class="cls-2" points="295.49 318.84 284.03 325.74 280.94 319.37 277.69 326.28 267.7 322.56"/>
    <polyline class="cls-2" points="272.68 324.41 269.13 333.41 262.75 332.79"/>
    <polyline class="cls-2" points="290.62 322.56 297.32 331.36 302.14 327.82"/>
    <path class="cls-14" d="M237.17,311.45s-2.15.91-3.19,1.18-1.17-.34-1.17-1.01,2.06-1.41,3.5-2.27,1.63-.25,3.19.74,2.7.86,2.7.86h1.4s0,6.15,0,6.15c0,0-7.48.79-8.66-.7s2.23-4.94,2.23-4.94Z"/>
    <path class="cls-14" d="M237.17,311.45l-.1-3.3-2.06-2.31-14.01-.5v3.35s8.99.31,8.99.31c0,0-.39,3.24,2.39,3.24"/>
    <line class="cls-2" x1="242.2" y1="317.09" x2="238.52" y2="316.89"/>
    <polyline class="cls-2" points="232.81 313.72 237.07 312.47 237.09 308.99"/>
    <line class="cls-2" x1="237.5" y1="313.92" x2="233.75" y2="314.9"/>
    <line class="cls-2" x1="238.52" y1="315.58" x2="234.3" y2="316.38"/>
    <line class="cls-2" x1="221" y1="306.71" x2="233.75" y2="307.09"/>
    <polygon class="cls-14" points="235.53 306.42 236.66 305.34 237.3 306.06 236.8 307.85 235.53 306.42"/>
    <path class="cls-2" d="M293.35,257.56s-1.38-4.13-2.56-5.21"/>
    <path class="cls-2" d="M295.61,256.48s-.88-3.78-2.26-4.91"/>
    <polyline class="cls-2" points="275.43 299.18 276.99 303.07 280.66 292.81 278.58 291.62 281.31 289.6 280.71 284.61"/>
    <line class="cls-2" x1="294.28" y1="265.18" x2="300.49" y2="265.18"/>
    <g>
      <rect class="cls-2" x="277.74" y="302.1" width="4.44" height="9.81" transform="translate(610.78 558.37) rotate(169.59)"/>
      <rect class="cls-2" x="271.03" y="303.33" width="4.44" height="9.81" transform="translate(597.7 562.03) rotate(169.59)"/>
      <polyline class="cls-2" points="272.08 301.11 270.26 301.45 270.47 302.58 273.84 301.96 273.63 300.83 272.08 301.11"/>
      <rect class="cls-2" x="275.42" y="303.97" width="2.38" height="7.31" transform="translate(604.24 560.2) rotate(169.59)"/>
      <rect class="cls-2" x="271.08" y="302.26" width="2.36" height="1.16" transform="translate(594.76 551.51) rotate(169.59)"/>
      <rect class="cls-2" x="277.05" y="299.89" width="3.43" height="1.16" transform="translate(607.22 545.63) rotate(169.59)"/>
      <rect class="cls-2" x="277.79" y="301.03" width="2.36" height="1.16" transform="translate(607.84 547.85) rotate(169.59)"/>
    </g>
    <path class="cls-2" d="M310.83,353.45c-1.64.9-6.39.22-7.08-1.81"/>
    <path class="cls-2" d="M303.15,356.61c2.97.12,2.49,5.9,4.07,6.48"/>
    <path class="cls-2" d="M305.41,365.35c1.26-2.26,6.06-1.86,7.68-.15"/>
    <path class="cls-2" d="M310.23,363.54c2-.2,2.09-7.23.45-8.14"/>
    <path class="cls-2" d="M276.93,358.27c-1.45,1.71-6.21,2.72-7.68.6"/>
    <path class="cls-2" d="M262.02,362.64c1.62-.24,3.33,1.31,3.47,2.86"/>
    <line class="cls-2" x1="278.29" y1="364.14" x2="265.63" y2="364.14"/>
    <path class="cls-2" d="M273.01,360.38c.3,2.02-4.35,3.22-5.88,3.47"/>
    <path class="cls-2" d="M321.38,367.02h-.15s-65.6,0-65.6,0"/>
    <path class="cls-14" d="M288.22,306.6l2.63-.55c.23-.05.38-.28.33-.51l-.05-.26-.3.06c-.09.02-.18-.04-.2-.13l-.28-1.32c-.02-.09.04-.18.13-.2l2.23-.47c.09-.02.18.04.2.13l.28,1.32c.02.09-.04.18-.13.2l-.3.06.05.26c.05.23.28.38.51.33l1.1-.23c.62-.13,1.23.27,1.37.89l1.41,6.71c.13.62-.27,1.23-.89,1.37l-6.22,1.31c-.62.13-1.23-.27-1.37-.89l-1.41-6.71c-.13-.62.27-1.23.89-1.37Z"/>
    <line class="cls-2" x1="289.69" y1="306.28" x2="292.27" y2="315.11"/>
    <line class="cls-2" x1="232.28" y1="310.35" x2="231.45" y2="310.35"/>
  </g>
  <g>
    <rect class="cls-14" x="2256.55" y="366.39" width="55.21" height="4.41"/>
    <path class="cls-14" d="M2296.73,273.82l1.68,5.04-1.96.35c.37,1.33.35,3.88-.45,5.07-.87,1.3-4.36,1.27-5.76,1.35-3.13.18-5.3-.05-7.17-2.89-.81-1.24-1.23-2.52-1.83-5.58l-1.4.3s-4.52-13.08,6.41-16.35c10.93-3.27,13.47,10.04,13.88,11.99l-3.4.73Z"/>
    <rect class="cls-14" x="2283.75" y="283.47" width="11.41" height="5.54"/>
    <g>
      <polygon class="cls-14" points="2287.54 326.41 2275.46 332.37 2273.39 323.77 2293.23 318.94 2300.13 313.76 2356.08 299.29 2357.22 303.91 2317.76 314.16 2317.76 314.16 2299.11 319.1 2287.54 326.41"/>
      <polyline class="cls-14" points="2353.67 299.92 2353 297.29 2349.97 297.95 2347.89 301.41"/>
    </g>
    <path class="cls-14" d="M2333.34,309.99c0-1.41-1.22-.66-1.97-.66s-2.32-.28-2.32-1.29-1.09-.6.18-1.52c0,0,1.19-.6.81-1.54-.27-.68-1.19-.6-1.97-.23-.7.33-3.32.91-3.32.91-2.66-.23-3.74,1.67-3.74,1.67l-11.44-5.33-2.23-9.09c-.86-4.15-3.53-6.63-8.02-6.63h-1.76c.18-.48.38-.96.61-1.42.12-.26-.07-.56-.35-.56h-3.32s-.72,1.98-.72,1.98c-1.94,0-3.92,0-5.09,0h-4.27s-.89-1.98-.89-1.98h-2.02c-.26,0-.47.22-.46.48l.09,1.53c-8.02.24-16.7,2.18-16.7,17.54,0,3.83.13,9.94,5.44,14.39-.08.32-1.2,4.06-1.1,4.37.31.94,5.04,2.74,6.03,2.99.66,1.87,1.7,3.77,3.3,5.56l-2.46,10.63-23.67,16.16s1.02,3.49,2.81,3.49,1.25,4.96,3.93,4.96h11.44s0-2.61,0-2.61l-5.36-4.35c13.2-4.62,22.06-11.75,27.51-19.96,2.59,1.19,2.62,1.19,2.62,1.19l-7.23,25.73h20.25s.03-3.99.03-3.99l-8.69-2.46c2.23-3.1,6.89-10.66,6.11-18.89-.54-5.66-4.34-9.97-7.83-12.78.36-1.22.66-2.46.91-3.69l3.1-.99v-12.81s-2.25,0-2.25,0v-13.4c2.83,12.88,10.63,14.44,16.18,13.75,3.44-.43.47,3.5.47,3.5.73-.2,1.47-.4,2.2-.6.37-.1.73-.2,1.1-.3.32-.09.79-.38,1.07-.05.07.08.12.18.18.27.17.24.4.3.65.42.32.16.67.29,1.01.4.48.16,1,.2,1.47.37.48.17.87.59,1.42.39.28-.1.43-.33.73-.4.46-.11.92-.17,1.36-.37.48-.21.96-.42,1.47-.53,2.2-.49,3.96-1.32,4.48-3.29l.15-.19c.52-.28.08-.31.08-.77Z"/>
    <path class="cls-2" d="M2277.34,286.59c.25,2.67,1.39,5.81,1.99,8.1.99,3.77,2.25,7.56,2.84,11.37.28,1.81.61,4.92.6,6.79"/>
    <path class="cls-2" d="M2287.49,326.56c1.52.55,2.72,2.21,4.33,2.45-.61,1.46-2.14,2.59-3.28,3.73-1.09,1.09-2.08,2.43-3.29,3.4"/>
    <path class="cls-2" d="M2289.39,297.38c-.11,1.91-.77,5.44-.77,8.28,0,2.49,0,4.97,0,7.46"/>
    <path class="cls-2" d="M2264.27,359.23c-4.33-.15-3.83-4.58-3.74-7.12"/>
    <path class="cls-2" d="M2290.67,356.64s5.63.13,9.28,1.18"/>
    <path class="cls-2" d="M2295.71,312.15c.05-3.63-.09-7.54.98-10.77,1.22-3.7,2.57-5.34,3.08-9.31.24-1.88,0-3.79,0-5.69"/>
    <path class="cls-2" d="M2285.39,288.46s1.54,1.09,3.61,1.09c2.07,0,3.55-1.09,3.55-1.09"/>
    <path class="cls-2" d="M2286.1,276.32c0,3.32.97,6.46,2.53,9.24"/>
    <path class="cls-2" d="M2288.39,275.62c0,3.43,1.01,7.1,2.98,9.95"/>
    <path class="cls-2" d="M2283.3,276.75c0,1.69.81,3.71,2.69,3.15"/>
    <path class="cls-2" d="M2269.78,289.41c2.04,2.12,4.05,5.01,4.05,8.22l.03,12.12,15.73,6.91-1.06,7.11c-9.42-.38-15.16-2.6-18.66-5.53"/>
    <path class="cls-2" d="M2289.59,316.66c1.61.55,1.7.65,2.69.65,0,0,.65-1.35,1.97-1.95,1.95-.89,2.38.33,3.3.33"/>
    <line class="cls-2" x1="2300.13" y1="273.09" x2="2279.84" y2="277.46"/>
    <path class="cls-2" d="M2292.27,339.45c-1.43-.66-3.63-1.66-7.02-3.22-3.15-1.45-5.46-3.2-7.14-5.07"/>
    <path class="cls-2" d="M2279.68,312.31c1.8.33,4.88.86,6.68,1.15.92.15,1.87.25,2.81.21,1.71-.08,3.48-.47,5.11-.97,1.71-.53,3.65-1.92,7.28-1.92"/>
    <path class="cls-2" d="M2281.13,286.31c.08,1.39.33,2.77.64,4.14.24,1.05.21,1.23,1.27,1.12.36-.04.76-.06,1.09-.14-.28.54-.81,1.2-.88,1.8-.05.41.21.83.21.83.2.2.34.38.53.57,1.41,1.52,3.57,4.34,5.08,5.64"/>
    <polyline class="cls-2" points="2293.77 286.14 2289.39 297.38 2284.41 286.27"/>
    <path class="cls-2" d="M2289.09,300.27c.92-1.12,3.06-3.14,4.04-4.22.66-.73,1.19-1.57,1.66-2.44.26-.48.51-.72.3-1.24-.18-.44-.58-.77-.74-1.23.52-.15,1.29-.49,1.72-.82.49-.38.56-1.1.73-1.69.22-.78.47-1.58.76-2.35"/>
    <polyline class="cls-2" points="2299.11 319.1 2301.56 318.45 2317.76 314.16"/>
    <polyline class="cls-2" points="2278.75 322.46 2273.06 323.85 2275.46 332.37 2287.54 326.41 2290.65 324.45"/>
    <polyline class="cls-2" points="2300.13 313.76 2356.08 299.29 2356.67 301.74 2317.21 311.98"/>
    <line class="cls-2" x1="2357.22" y1="303.91" x2="2317.76" y2="314.16"/>
    <line class="cls-2" x1="2316.58" y1="309.5" x2="2317.76" y2="314.16"/>
    <path class="cls-2" d="M2295.98,280.96c-.96,0-2.05.39-2.74-.37"/>
    <path class="cls-2" d="M2295.25,285.19s-.54.49-1.21.71c-2.52.82-8.77,1.31-10.23-2.77"/>
    <path class="cls-2" d="M2284.41,286.27c0-.82-.6-2.16-.6-3.14,0-.3-.23-.64-.43-.84-.44-.44-1.05-.87-1.34-1.43-.6-1.19-.44-2.44-.8-3.71"/>
    <path class="cls-2" d="M2305.1,361.59c-1.89.49-2.44,3.55-2.44,4.74"/>
    <path class="cls-2" d="M2267.84,362.64c-2.03-.12-5.11.95-5.86,2.82"/>
    <path class="cls-2" d="M2254.45,356.25c-.04.83,1.02,2.65,1.59,3.1.59.47.87,1.04,1.19,1.71.65,1.38,2.61,4.54,3.83,5.55"/>
    <path class="cls-2" d="M2258.72,366.61c.16,0,52.07,0,52.07,0"/>
    <path class="cls-2" d="M2288.91,363.57h.77s13.45.25,13.45.25"/>
    <path class="cls-14" d="M2323.38,313.71c.12-.18.42-.31.59-.48.11-.11.25-.22.35-.33.2-.22.46-.52.63-.78.22-.33.31-.8.48-1.18.15-.32.31-.74.68-.87.45-.16.7.1,1.05.28.36-.42.44-.91,1-1.14.3-.12,1.02-.07,1.1.34.46-.24.65-1.08,1.31-1.03.22.02.51.22.64.39s.18.36.17.56c.67-.23.55-.79,1.31-.75.46.03.58.38.63.69.03.19,0,.51-.07.91-.19,1.03-.6,1.68-.6,1.68l-9.28,1.71Z"/>
    <path class="cls-2" d="M2327.18,311.19c.02.3-.22.65-.35.91-.14.29-.27.58-.43.86-.19.33-.2.69-.38,1.02"/>
    <path class="cls-2" d="M2329.31,310.45c.01.11-.04.19-.09.28-.16.32-.33.63-.48.95-.21.44-.35.91-.51,1.37-.06.19-.12.43-.26.58"/>
    <path class="cls-2" d="M2331.24,310.14c0,.07-.02.1-.05.16-.14.29-.42.56-.58.85-.25.44-.42.88-.6,1.34"/>
    <path class="cls-2" d="M2299.49,323.57c.55.05,1.18-.02,1.9-.26,4.32-1.44,1.76-5.25,3.27-5.69"/>
    <path class="cls-14" d="M2289.99,324.06c.47.25,2.07.91,2.56,1.23.72.48,1.47.78,2.28,1.08,1.16.43,3.09,1.37,3.71-.14.18-.43.35-.48.55-.94.17-.4.21-1.07.07-1.49-.34-1.05-1.3-1.18-2.18-1.55-.69-.29-1.35-.55-2.11-.6-.7-.05-1.21.15-1.82.47-.27.14-.43.31-.65.48-.31.24-1.13.06-1.52.2l-.88,1.27Z"/>
    <path class="cls-2" d="M2288.53,323.77c2.99.66,4.92,3.86,8.38,3.86"/>
    <path class="cls-2" d="M2293.23,323.51c.76.59,1.62,1.17,2.31,1.45,1.05.43,1.63.74,2.7.81"/>
    <path class="cls-2" d="M2295.36,322.09c.81.45,1.59,1.01,2.11,1.29.44.24,1.34.34,1.86.38"/>
    <path class="cls-2" d="M2300.13,313.76l-1.05.78-4.84,3.63c.33.36,1.11.23,1.74.36,1.55.31,1.53.64,2.29.66.61.02,2.07-.22,2.51-.22.86,0,1.29,1.04,1.22,1.65-.09.73-1.54,1.23-2.24,1.4-1.18.29-2.62.26-4.42.08l-.96-.43"/>
    <path class="cls-14" d="M2295.55,316s-1.22,1.72-.72,2.42c.51.7,1.11,1.03,1.84,1.28.74.25-5.03.14-5.03.14l1.84-2.34s1.7-1.47,2.07-1.49Z"/>
    <path class="cls-2" d="M2294.75,276.61c-.57-.02-1.52.39-1.52.39"/>
    <path class="cls-2" d="M2302.23,363.34c-1.28-.04-2.51-.09-3.75-.31-.87-.15-1.86-.2-2.42-1.01-1.06-1.53.49-3.31.95-4.69"/>
    <path class="cls-2" d="M2262.43,363.62c-.64-.56-3.59-5.45-1.31-5.39"/>
  </g>
  <polygon class="cls-18" points="2111.43 310.5 2068.92 221.51 2023.72 307.17 1978.52 221.51 1936.01 310.5 1859.13 221.51 1877.85 370.72 2169.95 370.72 2188.31 221.51 2111.43 310.5"/>
  <path class="cls-6" d="M1870.03,309.61c8.35,3.01,13.24-8.63,5.65-12.51l-.78-.33c-2.34-.83-4.53-.45-6.26.59"/>
  <path class="cls-6" d="M1985.91,301.47c-8.31-7.65-18.62,6.03-7.46,10.78,6.15,2.24,12.24-4.65,8.02-10.13l-.56-.65Z"/>
  <path class="cls-6" d="M2076.06,303.82c-4.71-6.6-17.16.29-11.09,8.07,4.4,5.61,15.3.08,11.63-7.24l-.54-.83Z"/>
  <path class="cls-6" d="M2178.22,303.34c-6.16-1.62-12.67,6.44-5.47,12.68,1.27,1,2.66,1.46,4.01,1.51"/>
  <g>
    <polygon class="cls-21" points="2361.4 370.8 2391.89 370.9 2407.24 350.24 2401.99 326.57 2383 314.86 2349.33 311.68 2330.44 327.83 2340.27 358.73 2361.4 370.8"/>
    <polyline class="cls-2" points="2349.33 311.68 2363.74 332.31 2379.2 333.35 2383 314.86"/>
    <polyline class="cls-2" points="2379.2 333.35 2386.89 340.54 2401.99 326.57"/>
    <polyline class="cls-2" points="2386.89 340.54 2386.95 346.88 2407.24 350.24"/>
    <polyline class="cls-2" points="2386.95 346.88 2380.46 352.59 2391.89 370.9"/>
    <polyline class="cls-2" points="2380.46 352.59 2366.38 351 2361.4 370.8"/>
    <polyline class="cls-2" points="2366.38 351 2359.45 347.18 2358.37 341.71 2363.74 332.31"/>
    <line class="cls-2" x1="2358.37" y1="341.71" x2="2330.44" y2="327.83"/>
    <line class="cls-2" x1="2359.45" y1="347.18" x2="2340.27" y2="358.73"/>
  </g>
  <g>
    <polygon class="cls-17" points="433.92 317.92 423.96 371.18 474.48 363.55 487.22 304.61 433.92 317.92 433.92 317.92"/>
    <polyline class="cls-2" points="487.22 304.61 469.29 323.59 462.07 349.76 474.48 363.55"/>
    <polyline class="cls-2" points="462.07 349.76 439.91 354.25 423.96 371.18"/>
    <polyline class="cls-2" points="439.91 354.25 446.1 329.23 433.92 317.92"/>
    <line class="cls-2" x1="446.1" y1="329.23" x2="469.29" y2="323.59"/>
  </g>
  <g>
    <polygon class="cls-13" points="627.35 288.81 664.35 327.61 637.96 373.61 595.55 331.23 627.35 288.81 627.35 288.81"/>
    <polyline class="cls-2" points="627.35 288.81 629.95 311.74 648.02 329.47 664.35 327.61"/>
    <polyline class="cls-2" points="648.02 329.47 635.01 348.78 637.96 373.61"/>
    <polyline class="cls-2" points="635.01 348.78 616.36 331.21 595.55 331.23"/>
    <line class="cls-2" x1="616.36" y1="331.21" x2="629.95" y2="311.74"/>
  </g>
  <g>
    <polygon class="cls-22" points="329.79 311.33 350.51 371.76 410.46 370.85 433.8 321.16 409.5 279.75 373.62 272.45 329.79 311.33 329.79 311.33"/>
    <polyline class="cls-2" points="409.5 279.75 393.77 313.58 377.77 312.24 373.62 272.45"/>
    <polyline class="cls-2" points="377.77 312.24 370.37 323.53 329.79 311.33"/>
    <polyline class="cls-2" points="370.37 323.53 375.91 341.35 350.51 371.76"/>
    <polyline class="cls-2" points="375.91 341.35 389.96 343.56 410.46 370.85"/>
    <polyline class="cls-2" points="389.96 343.56 401.42 329.29 433.8 321.16"/>
    <line class="cls-2" x1="401.42" y1="329.29" x2="393.77" y2="313.58"/>
  </g>
  <g>
    <polygon class="cls-14" points="2109.39 205.65 2136.97 213.47 2153.64 248.51 2138.13 279.27 2104.77 277.42 2085 254.67 2081.53 223.25 2109.39 205.65"/>
    <polygon class="cls-2" points="2103.39 243.51 2109.93 252.09 2123.08 254.69 2129.78 241.4 2123.23 228.77 2112.97 226.72 2103.11 232.74 2103.39 243.51 2103.39 243.51"/>
    <line class="cls-2" x1="2112.97" y1="226.72" x2="2109.39" y2="205.65"/>
    <line class="cls-2" x1="2136.97" y1="213.47" x2="2123.23" y2="228.77"/>
    <line class="cls-2" x1="2103.11" y1="232.74" x2="2081.53" y2="223.25"/>
    <line class="cls-2" x1="2103.39" y1="243.51" x2="2085" y2="254.67"/>
    <line class="cls-2" x1="2109.93" y1="252.09" x2="2104.77" y2="277.42"/>
    <line class="cls-2" x1="2138.13" y1="279.27" x2="2123.08" y2="254.69"/>
    <line class="cls-2" x1="2129.78" y1="241.4" x2="2153.64" y2="248.51"/>
  </g>
  <g>
    <polygon class="cls-17" points="333.91 169.56 325.88 192.61 338.12 216.06 363.72 217.13 379.61 199.26 374.75 178.36 356.7 164.29 333.91 169.56 333.91 169.56"/>
    <polygon class="cls-2" points="344 190.5 346.58 183.28 355.59 181.65 360.92 185.57 362.43 193.53 356.7 201.01 348.2 199.89 344 190.5 344 190.5"/>
    <line class="cls-2" x1="356.7" y1="201.01" x2="363.72" y2="217.13"/>
    <line class="cls-2" x1="362.43" y1="193.53" x2="379.61" y2="199.26"/>
    <line class="cls-2" x1="360.92" y1="185.57" x2="374.75" y2="178.36"/>
    <line class="cls-2" x1="355.59" y1="181.65" x2="356.7" y2="164.29"/>
    <line class="cls-2" x1="346.58" y1="183.28" x2="333.91" y2="169.56"/>
    <line class="cls-2" x1="344" y1="190.5" x2="326.09" y2="192.98"/>
    <line class="cls-2" x1="348.2" y1="199.89" x2="338.12" y2="216.06"/>
  </g>
  <g>
    <line class="cls-2" x1="1822.81" y1="313.5" x2="1824.56" y2="328.03"/>
    <line class="cls-2" x1="1819.43" y1="313.29" x2="1822" y2="328.03"/>
    <g>
      <path class="cls-14" d="M1793.43,362.4l2.25-.61c.53-.14.96-.51,1.19-1l.91-1.94s-3.18-15.44-3.18-16.47c0-1.03,1.56-8.13,8.89-8.13,7.33,0,9.37,1.46,9.37,1.46-1.39-1.06-2.23-1.77-2.23-1.77l.03-12.23s-.78.14-2.09,1.36l-6.7,4.84c-2.32,2.15-6.91,1.84-8.84-.65l-5.99-9.85,6.95-1.04,5.07,3.27s5.1-9.79,7.36-12.92,5.97-4.04,9.03-4.04l22.76.55s-.15,5.3.03,9.64c.18,4.55.75,7.9.89,11.93l-2.02.58,2.41,8.48,1.45-.45c.99,2.33.79,4.54,2.09,6.86,0,0-3.36.26-4.12.63,0,0,11.11,13.01,12.75,18.7,1.01,3.52.21,7.42-2.01,7.42s-6.86,0-9.95,0c-3.09,0-4.53-8.48-4.53-8.48l-8.39-9.93-19.19-3.86-.87,14.1,3.15,8.18h-19.38s.47-2.09.47-2.09c.28-1.23,1.21-2.2,2.43-2.53Z"/>
      <polygon class="cls-14" points="1837.11 325.38 1839.13 324.79 1841.45 324.12 1844.53 332.32 1840.98 333.41 1839.52 333.86 1837.11 325.38"/>
    </g>
    <path class="cls-14" d="M1802.51,310.98c-1.52.08-3.07.52-4.67.52-1.08,0-27.75.09-27.75.09v-4.43s4.95,0,4.95,0v-1.57s17.8,0,17.8,0l11.06.18,3.23,1.22h1.23"/>
    <path class="cls-14" d="M1814.55,302.66c-1.02-.09-1.97-.27-2.6-.58-2.12-1.05-1.57-4.82-1.57-4.82l-2.93-.53,1.38-4.12h-1.39s-1.21-13.82,8.42-15.15c10.33-1.43,12.82,6.05,12.94,14.26l-.91.04c-.01.33-.03.65-.05.98-.05,1.08-.76,1.8-1.12,2.77-.07.18-.21,2.31-.13,2.31,0,0,1.58,0,3.98,0,2.41,0,7.64,1.96,7.64,5.43"/>
    <line class="cls-2" x1="1817.97" y1="306.2" x2="1815.45" y2="302.68"/>
    <path class="cls-2" d="M1837.75,303.23c0,3.3-1.09,10.44-5.43,10.44-13.4,0-18.53-1.16-18.53-1.16v-5.78s8.68-1.11,8.68-1.11c1.64-.21,3.1-1.15,3.97-2.56l1.8-2.93"/>
    <line class="cls-2" x1="1828.8" y1="291.71" x2="1807.44" y2="292.6"/>
    <path class="cls-2" d="M1823.38,292.68c.68-.01.97.17,1.17.82.19.6.38,1.51.05,2.09s-.84.85-1.38.92"/>
    <path class="cls-2" d="M1814.92,294.72c-.42,0-.99.1-1.37-.05"/>
    <path class="cls-14" d="M1787.3,317.5c-.56-.9-1.13-1.68-1.5-2.71-.63-1.75-.42-3.98-.24-5.81.11-1.1.09-4.74,2.15-2.79.2-.49.37-.75.85-.86s1.05.05,1.08.58c.44-.81,1.6-.94,2.01,0-.06-.81.75-.71,1.19-.33.49.43.87,1.58.97,2.22.43,2.67-.05,5.9-.05,8.6l-6.47,1.1Z"/>
    <path class="cls-14" d="M1794.92,311.38v5.75h6.11s0-2.43,0-5.98"/>
    <path class="cls-2" d="M1813.79,312.51c-.96-.07-1.65.42-2.66,1.62s-1.7,2.02-1.7,2.02c0,0-.64.93-1.34.25-.52-.51,0-.88,0-.88,0,0-.92.49-1.47,0s-.2-1.09-.2-1.09c0,0-1.18.3-1.51,0s-.47-1.11,0-1.51,1.07-1.68,1.07-1.68c-.87.24-2.12,1.6-3.13.96-2.1-1.33,2.05-2.7,2.81-3.02s1.27-.88,1.9-1.45c.8-.73,1.5-1.58,2.6-1.53s2.79.13,3.74.61"/>
    <rect class="cls-14" x="1751.24" y="307.83" width="18.85" height="3.32" transform="translate(3521.33 618.97) rotate(180)"/>
    <polygon class="cls-14" points="1760.1 307.83 1758.84 305.59 1756.99 305.59 1756.99 307.83 1760.1 307.83"/>
    <line class="cls-2" x1="1756.99" y1="307.83" x2="1756.99" y2="311.14"/>
    <line class="cls-2" x1="1760.1" y1="307.83" x2="1760.1" y2="311.14"/>
    <rect class="cls-14" x="1782.99" y="367.03" width="75.93" height="3.7"/>
    <path class="cls-2" d="M1812.86,335.71c1.78,1.37,4.47,3.34,7.41,5.19.6.38,1.17.78,1.77,1.05l2.84-4.62"/>
    <path class="cls-2" d="M1823.86,330.87c.34,2.16.63,4.01.82,5.15.78,4.78.49,6.83.49,6.83,5.21,1.04,11.59-.88,13.78-1.94"/>
    <path class="cls-2" d="M1821.2,313.67s1.19,7.75,2.22,14.35"/>
    <polygon class="cls-2" points="1839.52 333.86 1844.53 332.32 1841.45 324.12 1837.11 325.38 1839.52 333.86"/>
    <polyline class="cls-2" points="1811.1 330.87 1838.67 330.87 1837.87 328.03 1810.15 328.03"/>
    <path class="cls-2" d="M1826.79,298.07l-6.87,7.88s3.05-3.37,4.42-3.18,2.1.29,2.1.29l3.17-4.99h-2.81Z"/>
    <line class="cls-2" x1="1797.78" y1="357.93" x2="1806.77" y2="357.93"/>
    <path class="cls-2" d="M1820.25,302.66s-2.57.23-4.8.02"/>
    <path class="cls-2" d="M1821.99,292.16c.07,3.57.7,7.28-.94,10.48"/>
    <path class="cls-2" d="M1819.37,292.49c-.02,1.94.11,3.87.14,5.81.02,1.14-.14,3.61-1.16,4.44"/>
    <path class="cls-2" d="M1827.77,291.83c.16,1.11-.43,2.37-.9,3.27-.48.93-.55,1.08-.7,2.12"/>
    <path class="cls-2" d="M1826.77,313.76c.01,4.56,5.02,9.06,5.02,13.63"/>
    <path class="cls-2" d="M1816.25,313.29c-.02,1.42,3.67,14.73,3.67,14.73"/>
    <path class="cls-2" d="M1814.65,306.26c-.5-.88-1.41-2.53-2.13-3"/>
    <path class="cls-2" d="M1801.06,359.77c0,1.65.25,3.1-1.3,4.07-1.03.64-2.36.6-3.45.93"/>
    <path class="cls-2" d="M1794.55,362.53c1.32.61,1.8,2.99,1.5,4.25"/>
    <line class="cls-2" x1="1782.99" y1="367.03" x2="1858.93" y2="367.03"/>
    <path class="cls-2" d="M1808.77,364.53c-2.25,0-5.97,0-8.22,0"/>
    <path class="cls-2" d="M1816.4,339.9c-3.79,0-7.61-.78-11.36-.64.31-1.5-.44-2.83-.77-4.23"/>
    <path class="cls-2" d="M1831.24,344.4c1.91,2.12,3.62,4.39,5.51,6.51,1.27,1.43,1.21,1.35,3.05.68,1.35-.5,2.54-1.27,3.88-1.76.69-.25,1.44-.31,1.81-1.06"/>
    <path class="cls-2" d="M1785.1,311.65c0-1.22.03-2.39.25-3.6.09-.53.1-1.13.31-1.63.09-.2.23-.37.3-.59"/>
    <path class="cls-2" d="M1787.76,311.05c0-.88-.05-1.77.03-2.65s.35-1.68.53-2.53"/>
    <path class="cls-2" d="M1790.15,311.61c0-.45,0-.9,0-1.35,0-1.05.21-2.03.28-3.07.05-.71.26-1.33.4-1.92"/>
    <path class="cls-2" d="M1792.8,312.08c0-1.27,0-2.54,0-3.81,0-.77.24-1.55.21-2.31"/>
    <path class="cls-2" d="M1785.36,314.22c-.3-1.67-1.12-3.26-1.45-4.92"/>
    <path class="cls-2" d="M1780.27,309.47h-.39s-9.31,0-9.31,0"/>
    <line class="cls-2" x1="1793.99" y1="316.37" x2="1787.04" y2="317.41"/>
    <line class="cls-2" x1="1800.56" y1="311.21" x2="1794.92" y2="311.21"/>
    <path class="cls-2" d="M1801.39,315.46c0,.68.01,1.37-.01,2.04-.64.01-1.82.26-1.77.02"/>
    <path class="cls-2" d="M1810.83,299.67c.4,0,2.32-.95,2.72-.95"/>
    <path class="cls-2" d="M1833.09,330.88c-.23,2.44,1.34,5.51,1.72,8,.13.9.15,2.42.59,3.1"/>
    <path class="cls-2" d="M1820.41,331.32c-.09,3.09,2.27,5.91,2.16,8.79"/>
  </g>
  <g>
    <line class="cls-2" x1="587.74" y1="311.43" x2="576.09" y2="320.27"/>
    <line class="cls-2" x1="586.22" y1="308.4" x2="574.8" y2="318.06"/>
    <g>
      <path class="cls-14" d="M530.7,310.77l1.67,1.63c.39.38.93.57,1.47.52l2.13-.2s11.72-10.55,12.61-11.07,7.81-2.76,11.51,3.56c3.7,6.32,3.47,8.82,3.47,8.82.22-1.73.4-2.82.4-2.82l10.57-6.15s-.51-.6-2.23-1.12l-7.56-3.34c-3.02-.92-5.08-5.03-3.91-7.96l5.48-10.14,4.41,5.47-.26,6.03s11.03-.55,14.87-.18c3.84.37,6.5,3.11,8.05,5.75l11.03,19.92s-4.65,2.55-8.3,4.89-6.44,4.64-9.84,6.79l-1.52-1.45-6.11,6.37,1.12,1.03c-1.51,2.03-3.52,2.98-4.87,5.27,0,0-1.93-2.77-2.63-3.24,0,0-5.61,16.16-9.69,20.45-2.53,2.65-6.3,3.93-7.42,2.01s-3.47-5.92-5.03-8.59c-1.56-2.66,5.03-8.2,5.03-8.2l4.33-12.26-6.36-18.51-12.6,6.37-5.47,6.85-9.79-16.73,2.04-.65c1.2-.38,2.51-.07,3.41.81Z"/>
      <polygon class="cls-14" points="584.72 329.76 586.24 331.21 587.99 332.87 582.48 339.67 579.74 337.16 578.61 336.13 584.72 329.76"/>
    </g>
    <path class="cls-14" d="M579.66,292.63c-.83-1.28-2-2.39-2.81-3.77-.54-.93-14.09-23.91-14.09-23.91l3.83-2.24,2.5,4.28,1.35-.79,8.99,15.36,5.43,9.63.57,3.4.62,1.06"/>
    <path class="cls-14" d="M592.93,298.82c-.43-.92-.76-1.83-.81-2.54-.16-2.36,3.37-3.79,3.37-3.79l-1.02-2.8,4.25-.89-.7-1.2s11.32-8.03,17.33-.39c6.45,8.19,1.26,14.12-5.77,18.37l-.49-.76c-.29.15-.58.3-.87.46-.96.51-1.94.25-2.95.43-.19.03-2.1.99-2.06,1.05,0,0,.8,1.36,2.01,3.44,1.22,2.08,2.17,7.58-.82,9.34"/>
    <line class="cls-2" x1="591.6" y1="303.55" x2="593.36" y2="299.6"/>
    <path class="cls-2" d="M604.15,319.12c-2.85,1.67-9.56,4.33-11.75.59-6.77-11.56-8.36-16.58-8.36-16.58l4.99-2.92,5.35,6.93c1.01,1.31,2.56,2.09,4.22,2.13l3.44.07"/>
    <line class="cls-2" x1="609.57" y1="305.58" x2="598.01" y2="287.59"/>
    <path class="cls-2" d="M606,301.39c.36.58.34.92-.12,1.43-.42.46-1.11,1.09-1.78,1.1s-1.16-.29-1.49-.72"/>
    <path class="cls-2" d="M599.96,295.13c-.21-.36-.58-.8-.65-1.21"/>
    <path class="cls-14" d="M566.35,282.79c.5-.94.88-1.83,1.58-2.67,1.19-1.42,3.23-2.37,4.89-3.14,1-.46,4.13-2.32,3.49.45.53-.07.84-.06,1.17.3s.49.94.05,1.23c.92-.03,1.62.9,1.01,1.74.67-.46.99.29.88.87-.12.64-.93,1.55-1.43,1.96-2.08,1.72-5.12,2.94-7.44,4.3l-4.21-5.03Z"/>
    <path class="cls-14" d="M575.49,286.28l-4.96,2.9,3.09,5.28s2.09-1.23,5.16-3.02"/>
    <path class="cls-2" d="M584.04,303.14c-.42-.86-1.19-1.21-2.74-1.47s-2.61-.45-2.61-.45c0,0-1.13-.08-.89-1.03.18-.71.76-.45.76-.45,0,0-.89-.55-.74-1.27s.84-.72.84-.72c0,0-.85-.87-.76-1.3s.72-.97,1.3-.76,1.99.08,1.99.08c-.65-.63-2.45-1.02-2.41-2.22.09-2.48,3.36.4,4.03.9s1.4.65,2.21.91c1.03.33,2.12.49,2.63,1.47s1.3,2.47,1.36,3.53"/>
    <rect class="cls-14" x="550.39" y="254.1" width="18.85" height="3.32" transform="translate(621.86 868.09) rotate(-120.34)"/>
    <polygon class="cls-14" points="560.96 254.43 562.26 252.22 561.32 250.61 559.39 251.75 560.96 254.43"/>
    <line class="cls-2" x1="559.39" y1="251.75" x2="556.53" y2="253.42"/>
    <line class="cls-2" x1="560.96" y1="254.43" x2="558.1" y2="256.11"/>
    <rect class="cls-14" x="537.17" y="299.83" width="3.7" height="75.93" transform="translate(-96.81 318.54) rotate(-30.34)"/>
    <path class="cls-2" d="M563.55,314.05c-.28,2.23-.63,5.54-.74,9.02-.02.71-.09,1.4-.01,2.06l5.42.12"/>
    <path class="cls-2" d="M573.28,321.1c-1.7,1.39-3.15,2.57-4.03,3.3-3.73,3.09-5.65,3.87-5.65,3.87,1.74,5.02,6.62,9.56,8.63,10.91"/>
    <path class="cls-2" d="M586.78,310.12s-6.09,4.94-11.27,9.16"/>
    <polygon class="cls-2" points="578.61 336.13 582.48 339.67 587.99 332.87 584.72 329.76 578.61 336.13"/>
    <polyline class="cls-2" points="566.84 310.09 580.77 333.89 582.81 331.75 568.81 307.83"/>
    <path class="cls-2" d="M603.07,307.06l-10.27-1.95s4.45.93,4.98,2.21.81,1.96.81,1.96l5.91.21-1.42-2.43Z"/>
    <line class="cls-2" x1="536.76" y1="312.26" x2="541.3" y2="320.01"/>
    <path class="cls-2" d="M595.8,303.73s-1.49-2.1-2.44-4.13"/>
    <path class="cls-2" d="M605.75,299.93c-3.04,1.86-5.93,4.28-9.52,4.48"/>
    <path class="cls-2" d="M604.14,297.84c-1.68.96-3.29,2.05-4.94,3.05-.97.59-3.18,1.7-4.42,1.25"/>
    <path class="cls-2" d="M608.94,304.75c-.87.7-2.26.82-3.27.88-1.05.06-1.21.07-2.18.47"/>
    <path class="cls-2" d="M589.52,314.98c-3.93,2.31-5.29,8.91-9.23,11.22"/>
    <path class="cls-2" d="M584.61,305.66c-1.24.7-10.86,10.61-10.86,10.61"/>
    <path class="cls-2" d="M589.87,300.72c.51-.87,1.47-2.49,1.52-3.35"/>
    <path class="cls-2" d="M536.82,316.02c-1.42.83-2.55,1.78-4.17.93-1.08-.56-1.71-1.73-2.55-2.51"/>
    <path class="cls-2" d="M531.16,311.8c.14,1.45-1.67,3.07-2.91,3.44"/>
    <line class="cls-2" x1="521.43" y1="304.09" x2="559.79" y2="369.63"/>
    <path class="cls-2" d="M536.61,325.08c-1.14-1.94-3.01-5.15-4.15-7.09"/>
    <path class="cls-2" d="M561.72,319.22c-1.91-3.27-3.17-6.96-5.18-10.13,1.45-.49,2.22-1.81,3.27-2.8"/>
    <path class="cls-2" d="M565.34,334.3c-.86,2.72-1.96,5.34-2.84,8.05-.59,1.82-.56,1.73.96,2.98,1.11.92,2.38,1.55,3.47,2.46.56.47,1,1.09,1.83,1.03"/>
    <path class="cls-2" d="M570.29,277.94c1.06-.62,2.08-1.18,3.23-1.61.5-.19,1.03-.48,1.56-.55.22-.03.44.01.66-.04"/>
    <path class="cls-2" d="M572.15,279.93c.76-.44,1.5-.94,2.3-1.31s1.63-.54,2.45-.82"/>
    <path class="cls-2" d="M572.88,282.28c.39-.23.78-.45,1.16-.68.9-.53,1.86-.84,2.79-1.31.64-.32,1.28-.45,1.86-.62"/>
    <path class="cls-2" d="M573.81,284.81c1.1-.64,2.19-1.28,3.29-1.93.67-.39,1.46-.58,2.1-.98"/>
    <path class="cls-2" d="M568.21,279.46c1.29-1.1,2.25-2.62,3.51-3.74"/>
    <path class="cls-2" d="M569.73,272.67l-.19-.33-4.7-8.03"/>
    <line class="cls-2" x1="570.71" y1="288" x2="566.3" y2="282.52"/>
    <line class="cls-2" x1="578.48" y1="291.06" x2="575.63" y2="286.19"/>
    <path class="cls-2" d="M575.23,293.92c-.59.34-1.17.7-1.77,1.02-.33-.54-1.14-1.44-.91-1.52"/>
    <path class="cls-2" d="M593.63,294.09c.2.35,1.99,1.52,2.2,1.87"/>
    <path class="cls-2" d="M577.93,329.07c-2.22,1.04-4.08,3.95-6.03,5.52-.71.57-2.02,1.35-2.38,2.07"/>
    <path class="cls-2" d="M571.15,318.35c-2.71,1.48-3.95,4.94-6.49,6.3"/>
  </g>
  <circle class="cls-14" cx="461.39" cy="364.83" r="5.8"/>
  <circle class="cls-14" cx="595.55" cy="364.83" r="5.8"/>
  <g>
    <polygon class="cls-18" points="2171.68 142.79 2154.61 189.62 2121.38 209.73 2113.34 174.56 2127.1 128.32 2160.14 103.44 2160.14 103.44 2171.68 142.79"/>
    <path class="cls-2" d="M2160.14,103.44l-8.54,25.23s-11.8,10.29-11.72,9.69-12.78-10.04-12.78-10.04"/>
    <polyline class="cls-2" points="2139.88 138.36 2128.78 174.14 2113.34 174.56"/>
    <polyline class="cls-2" points="2128.78 174.14 2129.28 186.56 2121.38 209.73"/>
    <polyline class="cls-2" points="2129.28 186.56 2139.79 180.26 2154.61 189.62"/>
    <polyline class="cls-2" points="2139.79 180.26 2155.11 143.37 2171.68 142.79"/>
    <line class="cls-2" x1="2155.11" y1="143.37" x2="2151.6" y2="128.67"/>
  </g>
  <g>
    <polygon class="cls-17" points="2188.19 195.23 2190.1 220.41 2162.22 239.02 2142.83 226.89 2139.72 201.07 2161.58 183.87 2188.19 195.23"/>
    <polyline class="cls-2" points="2161.58 183.87 2162.04 202.52 2174.66 205.56 2188.19 195.23"/>
    <polyline class="cls-2" points="2174.66 205.56 2174.88 214.67 2190.1 220.41"/>
    <polyline class="cls-2" points="2174.88 214.67 2161.36 221.12 2162.22 239.02"/>
    <polyline class="cls-2" points="2161.36 221.12 2155.06 218.4 2142.83 226.89"/>
    <polyline class="cls-2" points="2155.06 218.4 2153.74 209 2139.72 201.07"/>
    <line class="cls-2" x1="2153.74" y1="209" x2="2162.04" y2="202.52"/>
  </g>
  <circle class="cls-14" cx="1876.72" cy="365" r="5.8"/>
  <circle class="cls-14" cx="1746.04" cy="365" r="5.8"/>
  <circle class="cls-14" cx="1760.66" cy="365" r="5.8"/>
  <circle class="cls-14" cx="2027.78" cy="365" r="5.8"/>
  <circle class="cls-14" cx="2124.97" cy="365" r="5.8"/>
  <circle class="cls-14" cx="2218.95" cy="365" r="5.8"/>
  <circle class="cls-14" cx="2323.38" cy="365" r="5.8"/>
  <circle class="cls-14" cx="2408.76" cy="365" r="5.8"/>
  <circle class="cls-14" cx="2111.18" cy="365" r="5.8"/>
  <circle class="cls-14" cx="2094.2" cy="365" r="5.8"/>
  <circle class="cls-14" cx="2102.71" cy="357.35" r="5.8"/>
  <circle class="cls-14" cx="1934.72" cy="300.14" r="5.8"/>
  <circle class="cls-14" cx="1927.35" cy="291.71" r="5.8"/>
  <circle class="cls-14" cx="2112.86" cy="300.09" r="5.8"/>
  <g class="cls-24">
    <g>
      <g>
        <path class="cls-23" d="M1540.21,512.38c-5.27-41.54-30.46-79.72-35.54-119.33-1.39-10.81-.92-20.21.81-29.24,0,0,33.03-1.58,33.03-1.58-4.29-48.17-7.15-99.14-31.59-141.99-15.82-27.74-34.55-59.85-66.35-71.05-9-3.17-17.02-4.42-24.37-4.13-7.36-.29-15.37.96-24.37,4.13-26.03,9.17-43.6,32.16-56.12,55.7-15.16,28.51-27.63,56.95-31.96,89.18-3.04,22.68-5.82,45.38-7.85,68.17-1.58,25.95,2.15,91.82,3.77,118.22-3.38,10.47-6.13,21.08-7.5,31.93-6.1,48.12,30.92,66.5,72.19,75.05,10.72,2.22,21.24,3.37,31.84,3.98,3.43.42,6.93.71,10.56.7,3.17,0,6.31-.03,9.43-.07,3.12.04,6.26.06,9.43.07,3.63,0,7.13-.27,10.56-.7,10.6-.61,21.13-1.76,31.84-3.98,41.27-8.56,78.29-26.94,72.19-75.05Z"/>
        <path class="cls-15" d="M1299.14,371.03c-1.67,37.1-3.46,61.18-2.54,98.28.68,27.21,8.59,39.62,27.76,38.72,23.08-1.09,20.5-22.23,21.95-36.84,2.9-29.2,5.6-135.95,5.6-135.95"/>
        <path class="cls-23" d="M1297.17,407.7c.54-14.82,1.26-29.76,1.97-45.45l9.89-5.06c11.61-.99,34.37-3.48,38.99.3,1.37,1.12,4.19,2.12,4.9,4.99-.28,9.46-2.44,21.79-2.84,33.25-4.78,10.5-16.87,17.82-27.55,19.56-16.13,2.63-22.78-.88-25.36-7.58Z"/>
        <path class="cls-15" d="M1322.96,383.16c2.55,14.16,13.3,16.75,27,15.85,1.05-.07-.96-13.12.22-20.14.94-5.54,4.27-9.48,9.16-12.04,4.56-2.39,11.26.29,14.52-1.3,5.98-2.92,6.94-13.49,2.53-18.55-6.59-7.57-18.16-8.15-15.25-20.31,2.21-9.24,9.09-17.12,6.2-27.55-5.28-19.07-42.91-23.46-62.45-12.46-.43,2.45-.83,4.91-1.16,7.41-1.6,11.92-3.12,23.86-4.5,35.8,2.75,5.24,6.2,10.24,9.88,15.21,9.39,12.66,11.1,22.76,13.85,38.08Z"/>
        <path class="cls-2" d="M1350.99,329.6s-.67,47.23-.67,71.06"/>
        <path class="cls-15" d="M1499.89,371.85c-.56-7.44-2.84-13.71-9.97-13.73-12.64-.02-10.16,13.61-13.9,21.73-5.66,12.31-21.27,12.84-28.76,23.02-3.03,4.12-5.57,11.91-3.01,16.59,3.52,6.46,9.16,3.64,15.09,5.04,7.01,1.66,8.76,3.98,16.16,3.59,6.22-.32,11.88-1.18,17.04-4.88,10.36-7.44,6.96-21.01,6.99-32.43.01-4.86.86-12.35.36-18.94Z"/>
        <path class="cls-19" d="M1538.5,362.23s-.36,82.44-2.76,111.69c-1.2,14.62,1.74,35.72-21.31,37.21-19.16,1.23-27.27-11.05-28.42-38.24-1.56-37.08-1.39-75.4-.36-112.52.43-15.58-4.86-46.33,18.77-45.1,7.39.38,12.71,2.35,15.93,9.63,2.99,6.76,2.15,13.06,8.31,18.74,6.41,5.91,9.77,9.38,9.84,18.6Z"/>
        <path class="cls-19" d="M1340.09,255.94c.09-10.17-12.35-14.07-21.58-15.08-4.23,10.29-7.83,20.77-10.57,31.62,2.94-.35,6.8-.8,9.45-1.07,14.92-1.92,22.59-2.66,22.7-15.47Z"/>
        <path class="cls-15" d="M1495.9,260.17l-.08.15c-1.96,4.14-1.69,9.9-1.16,14.58.81,7.61,6.22,11.08,13.09,12.79,5.33,1.38,15.83,2.84,22.79,3.17-2.6-14.96-6.14-29.67-11.31-43.81-8.18,1.68-20.91,8.44-23.33,13.11Z"/>
      </g>
      <g id="cat_head" data-name="cat head">
        <g>
          <path class="cls-12" d="M1535.92,70.14c.27,42.98-4.02,88.37-25.12,126.13-18.7,33.45-52.19,45.1-89.11,44.94-30.64-.13-62.12-7.18-85.88-30.05-22.83-21.98-32.41-55.67-33.65-86.54-.68-17.02-.36-34.18.48-51.19.44-8.83,3.46-55.35,3.46-55.35,0,0,43.17,48.97,43.17,48.97l133.61-1.83s46.88-50.63,46.91-50.64c3.34-1.56,5.78,37.31,5.88,40.94.13,4.83.22,9.71.25,14.61Z"/>
          <path class="cls-19" d="M1456.03,99.32c2.07,7.26,3.48,12.07,10.99,12.34,9.4.34,20.84,2.77,28.39,8.86,4.57,3.68,7.3,8.57,10.29,13.45,4.8,7.84,13.05,14.39,16.66,22.71l-3.32-11.09c1.13,3.84,5.79,4.07,8.3,1.61.53-.52,1.24-1.09,2.01-1.7,2.83-13.11,4.56-26.53,5.52-40-5.67-4.94-15.08-7.48-19.61-12.9-5.01-5.99-9.31-12.63-8.89-20.74.45-8.76,4.99-19.5,9.39-27.3,1.81-3.21,6.35-8.87,9-11.9,3.82-4.36,3.52-7.21,1.88-8.29-4.2-2.77-11.25,5.75-15.41,10.24-13.11,14.15-28.35,30.61-28.35,30.61l-30.77.42c-.73,10.44,1.05,23.6,3.93,33.68Z"/>
          <path class="cls-19" d="M1302.64,73.43c-.84,17.01-1.16,34.17-.48,51.19.47,11.74,2.15,23.88,5.31,35.63,2.97,6.69,6.99,12.85,11.82,18.75,9.32,11.39,38.46,7.21,51.11,3.51,9.65-2.83,16.02-7.96,20.52-17.1,4.69-9.52,1.9-17.6,2.3-27.83,4.79-10.93,2.03-17.5,14.17-21.89,14.55-5.26,35.81.25,44.33-15.28,3.08-5.61,12.45-26.51,7.53-33.06-.5-.66-1.24-1.24-2.13-1.77l-107.84,1.48-43.17-48.97c-.57,8.83-3.08,47.59-3.46,55.35Z"/>
          <path class="cls-23" d="M1390.61,128.95c-.86-1.21-1.79-2.38-2.78-3.49-3.18-3.54-7.11-6.57-11.5-8.46-2.44-1.05-11.11-2.04-11.73-4.98-1.24-5.85,4.81-7.39,9.31-7.87,8-.85,13.42-8.74,20.67-11.49,6.41-2.42,8.29.98,12.44,4.8,5.35,4.92,9.22,2.87,13.65-1.6,2.22-2.24,5.91-6.96,9.58-6.25,5.53,1.08,4.65,11.36,11.56,9.8,6.02-1.36,4.42-9.45,6.57-13.63,3.67-7.14,10.41-3.2,15.34.59,8.69,6.68,20.08,7.67,30.03,11.53,9.84,3.81,19.26,11.11,24.58,20.31,11.79,20.42,6.18,63.1-22.63,66.31-6.87.76-23.73-3.48-29.85-6.84-5.16-2.83-8.34-11.91-15.7-8.37-2.54,1.22-4.17,3.89-6.24,5.71-1.28,1.13-2.77,1.99-4.54,1.8-3.09-.34-5.34-3.91-5.13-6.86.23-3.3.98-8.17.98-8.17-.45,0-2.63-2.37-4.98-7.18-1.29-2.64-7.57-31.37-14.09-25.61-.64.56-.74,1.49-.89,2.33-.9,4.88-5.86,9.51-9.27,12.85-.82.8-7.75,6.21-7.71,6.94-.5-7.86-3.1-15.71-7.67-22.17Z"/>
          <path class="cls-21" d="M1401.3,162.48s.07,2.79.14,4.71c.13,3.78-1.84,19.34,5.92,16.63,2.08-.73,1.87-3.86,4-4.46,4.58-1.31,2.52,4.52,7.08,4.54,3.04.01,2.46-5.72,7.4-5.7,1.34,0,2.35.71,3.05,1.81s.76,2.61,1.81,3.45c.72.57,1.77.74,2.6.34,1.77-.86,1.17-3.49,1.2-5.07.03-1.67.11-3.35.19-5.02.15-3.33.31-6.66.49-9.99,0-.04.04-.85.05-.85-2.3,0-14.65-.3-20.3-.33-3.68-.02-13.62-.06-13.62-.06Z"/>
          <path class="cls-14" d="M1458.62,134.74c-1.26-4.76,2.45-9.26,6.91-10.95,3.16-1.22,6.61-1.28,9.97-1.34,4.36-.06,8.96.11,12.59,2.11,5.62,2.79,8.35,10.98,2.65,15.18-3.44,2.82-9.06,3.08-13.86,3.16-7.26.13-15.45-.62-18.2-7.98l-.05-.18Z"/>
          <line class="cls-7" x1="1454.21" y1="162.13" x2="1509.66" y2="162.37"/>
          <line class="cls-7" x1="1454.96" y1="181.16" x2="1509.55" y2="189.05"/>
          <line class="cls-7" x1="1459.18" y1="201.4" x2="1496.88" y2="215.3"/>
          <line class="cls-7" x1="1381.11" y1="161.82" x2="1324.46" y2="161.57"/>
          <line class="cls-7" x1="1381.03" y1="181.35" x2="1325.63" y2="187.31"/>
          <line class="cls-7" x1="1376.35" y1="201.04" x2="1335.8" y2="211.16"/>
          <path class="cls-19" d="M1476.1,123.36c-10.68.88-9.93,20.23,1.13,19.09,9.79-1.37,8.58-18.63-.96-19.09h-.17Z"/>
          <path class="cls-7" d="M1489.8,115.18c-23.98-8.45-47.17,13.62-51.04,36.12-.65,3.76-1.29,7.52-1.94,11.29"/>
          <path class="cls-7" d="M1345.33,115.84c24.06-8.26,49.01,7.93,53.5,32.84.68,3.76.68,9.98,1.29,13.75"/>
          <path class="cls-23" d="M1521.36,72.14c-6.56-7.61-9.04-15.14-20.38-7.87-13.82,8.87,9.41,24.09,14.31,30.24,4.48,5.62,12.8,15.88,16.24,18.34.42.57,2.3.49,2.66.74,1.2-12.63,1.68-25.32,1.73-37.86-5.27.82-10.47,1.14-14.56-3.59Z"/>
          <path class="cls-21" d="M1493.87,69.39s2.89-6.06,11.19-15.74c1.07-1.25,19.69-20.98,19.69-20.98,1.81,12.18,2.4,24.45,3.23,36.72,0,0-34.11,0-34.11,0Z"/>
          <path class="cls-21" d="M1341.39,68.73s-6.95-8.74-15.17-18.49c-1.06-1.26-15.39-18.49-15.39-18.49-1.91,12.16-.91,37.5-.91,37.5,0,0,31.47-.52,31.47-.52Z"/>
        </g>
        <line class="cls-7" x1="1418.24" y1="177.53" x2="1418.12" y2="204.26"/>
        <path class="cls-9" d="M1435.31,205.76c-3.2-4.72-10.25-1.5-17.18-1.5-9.1,0-14.15-3.22-17.63,1.95"/>
      </g>
      <path class="cls-14" d="M1373.18,134.48c1.52-9.23-9.8-12.24-17.1-11.79-5.29.08-10.8.6-14.74,4.03-6.02,5.18-3.76,13.31,3.83,15.32,8.15,1.98,25.04,2.57,27.96-7.39l.04-.18Z"/>
      <path class="cls-19" d="M1355.35,142.5c-10.68-.88-9.93-20.23,1.13-19.09,9.79,1.37,8.58,18.63-.96,19.09h-.17Z"/>
    </g>
  </g>
  <g>
    <polyline class="cls-8" points="1914.95 182.5 1899.56 180.41 1914.31 185.28"/>
    <path class="cls-2" d="M1917.71,193.69c-.73,4.82-6.46,8.19-6.94,8.12"/>
    <path class="cls-2" d="M1928.7,191.91c-.78,5.13-4.93,6.34-4.93,6.34"/>
    <path class="cls-2" d="M1940.9,189.26c2.04,3.24,4.21,4.16,8.04,4.28"/>
    <path class="cls-18" d="M1918.9,193.82c-3.63-1.15-6.84-3.53-6.84-7.74,0-2.77,1.8-5.93,4.6-6.73,1.68-.48,2.61-1.36,4.52-1.28,1.42.06,2.62-.16,4.05-.35,1.69-.22,3.62-.23,5.3.02,5.05.74,12.02,1.82,12.02,8.34,0,8.94-12.53,8.89-18.73,8.6-1.55-.07-3.28-.34-4.91-.86Z"/>
    <path class="cls-2" d="M1918.4,189.13c-1.19,7.81-11.91,8.93-11.91,8.93"/>
    <path class="cls-2" d="M1928.92,191.4c1.39,9.09-5.1,11.57-5.1,11.57"/>
    <path class="cls-2" d="M1937.96,192.09c.87,3.6.71,7.16,5.43,7.71"/>
    <path class="cls-8" d="M1941.17,181.24s-18.39-9.97-23.48-11.4c-2.7-.76-5.55,0-5.97,4.22-.45,4.53,7.13,5.06,10.23,5.42,4.42.52,8.8.76,13.23,1.19,2,.19,3.99.38,5.99.57"/>
    <path class="cls-8" d="M1941.86,180.94s-17.31-11.75-20.91-15.61c-1.92-2.05-2.56-4.93,1-7.25,3.65-2.38,7.38,3.76,9.08,6.27,2.53,3.73,4.98,7.51,7.42,11.29,1.14,1.76,2.28,3.53,3.41,5.3"/>
    <path class="cls-18" d="M1940.18,179.17c.19-.79.5-1.56,1.02-2.2.45-.56,1.09-1.23,1.74-1.56,2-1.34,4.08-1.38,6.46-1.11,3.65.42,5.68,3.76,5.73,7.21.04,3.38-2.22,7.07-5.47,8.21-1.79.63-4.09,0-5.69-.9-1.01-.57-1.96-1.37-2.64-2.32-1.26-1.76-1.59-4.08-1.35-6.19.03-.26.07-.52.12-.78.02-.12.05-.25.08-.37Z"/>
    <path class="cls-20" d="M1949.71,179.38c.55-.92,3.24-1,3.48.28-.02,1.37-3.75,1.3-3.52-.16l.04-.12Z"/>
    <path class="cls-20" d="M1942.43,179.11c.68-1.04,3.71-.96,3.8.56-.23,1.51-4.19,1.4-3.86-.43l.06-.13Z"/>
    <polygon class="cls-19" points="1949.62 182.99 1946.24 182.99 1948.12 180.01 1949.62 182.99"/>
    <path class="cls-19" d="M1951.58,180.57c-1.44.07-1.31-2.58.21-1.96.66.39.63,1.6-.07,1.92l-.14.04ZM1950.89,179.76s0,0,0,0c0,0,0,0,0,0ZM1950.89,179.76s0,0,0,0c0,0,0,0,0,0Z"/>
    <path class="cls-5" d="M1949.65,178.93s2.98-1.28,3.54-1.46"/>
    <path class="cls-19" d="M1944.11,180.58c-.77-.24-.92-1.6-.17-1.97,1.44-.54,1.65,1.93.32,1.99l-.15-.02Z"/>
    <line class="cls-5" x1="1946.22" y1="178.52" x2="1942.11" y2="177.59"/>
  </g>
  <path class="cls-4" d="M1945.41,185.75c1.69,0,3.39-.08,5.08,0"/>
  <g>
    <g>
      <polyline class="cls-8" points="693.3 230.07 708.69 227.99 693.95 232.86"/>
      <path class="cls-2" d="M690.54,241.27c.73,4.82,6.46,8.19,6.94,8.12"/>
      <path class="cls-2" d="M679.56,239.49c.78,5.13,4.93,6.34,4.93,6.34"/>
      <path class="cls-2" d="M667.35,236.84c-2.04,3.24-4.21,4.16-8.04,4.28"/>
      <path class="cls-18" d="M689.36,241.4c3.63-1.15,6.84-3.53,6.84-7.74,0-2.77-1.8-5.93-4.6-6.73-1.68-.48-2.61-1.36-4.52-1.28-1.42.06-2.62-.16-4.05-.35-1.69-.22-3.62-.23-5.3.02-5.05.74-12.02,1.82-12.02,8.34,0,8.94,12.53,8.89,18.73,8.6,1.55-.07,3.28-.34,4.91-.86Z"/>
      <path class="cls-2" d="M689.86,236.71c1.19,7.81,11.91,8.93,11.91,8.93"/>
      <path class="cls-2" d="M679.34,238.98c-1.39,9.09,5.1,11.57,5.1,11.57"/>
      <path class="cls-2" d="M670.3,239.66c-.87,3.6-.71,7.16-5.43,7.71"/>
      <path class="cls-8" d="M667.09,228.82s18.39-9.97,23.48-11.4c2.7-.76,5.55,0,5.97,4.22.45,4.53-7.13,5.06-10.23,5.42-4.42.52-8.8.76-13.23,1.19-2,.19-3.99.38-5.99.57"/>
      <path class="cls-8" d="M666.39,228.52s17.31-11.75,20.91-15.61c1.92-2.05,2.56-4.93-1-7.25-3.65-2.38-7.38,3.76-9.08,6.27-2.53,3.73-4.98,7.51-7.42,11.29-1.14,1.76-2.28,3.53-3.41,5.3"/>
      <path class="cls-18" d="M668.07,226.75c-.19-.79-.5-1.56-1.02-2.2-.45-.56-1.09-1.23-1.74-1.56-2-1.34-4.08-1.38-6.46-1.11-3.65.42-5.68,3.76-5.73,7.21-.04,3.38,2.22,7.07,5.47,8.21,1.79.63,4.09,0,5.69-.9,1.01-.57,1.96-1.37,2.64-2.32,1.26-1.76,1.59-4.08,1.35-6.19-.03-.26-.07-.52-.12-.78-.02-.12-.05-.25-.08-.37Z"/>
      <path class="cls-20" d="M658.54,226.95c-.55-.92-3.24-1-3.48.28.02,1.37,3.75,1.3,3.52-.16l-.04-.12Z"/>
      <path class="cls-20" d="M665.83,226.68c-.68-1.04-3.71-.96-3.8.56.23,1.51,4.19,1.4,3.86-.43l-.06-.13Z"/>
      <polygon class="cls-19" points="658.64 230.56 662.02 230.56 660.13 227.58 658.64 230.56"/>
      <path class="cls-19" d="M656.53,228.11c-.7-.32-.73-1.53-.07-1.92,1.52-.62,1.65,2.03.21,1.96l-.14-.04ZM657.36,227.34s0,0,0,0c0,0,0,0,0,0ZM657.36,227.33s0,0,0,0c0,0,0,0,0,0Z"/>
      <path class="cls-5" d="M658.61,226.51s-2.98-1.28-3.54-1.46"/>
      <path class="cls-19" d="M664.14,228.15c.77-.24.92-1.6.17-1.97-1.44-.54-1.65,1.93-.32,1.99l.15-.02Z"/>
      <line class="cls-5" x1="662.03" y1="226.1" x2="666.15" y2="225.17"/>
    </g>
    <path class="cls-4" d="M662.85,233.33c-1.69,0-3.39-.08-5.08,0"/>
  </g>
  <g>
    <polyline class="cls-8" points="179.59 223.26 194.98 221.18 180.23 226.05"/>
    <path class="cls-2" d="M176.83,234.46c.73,4.82,6.46,8.19,6.94,8.12"/>
    <path class="cls-2" d="M165.84,232.68c.78,5.13,4.93,6.34,4.93,6.34"/>
    <path class="cls-2" d="M153.64,230.03c-2.04,3.24-4.21,4.16-8.04,4.28"/>
    <path class="cls-18" d="M175.64,234.59c3.63-1.15,6.84-3.53,6.84-7.74,0-2.77-1.8-5.93-4.6-6.73-1.68-.48-2.61-1.36-4.52-1.28-1.42.06-2.62-.16-4.05-.35-1.69-.22-3.62-.23-5.3.02-5.05.74-12.02,1.82-12.02,8.34,0,8.94,12.53,8.89,18.73,8.6,1.55-.07,3.28-.34,4.91-.86Z"/>
    <path class="cls-2" d="M176.14,229.9c1.19,7.81,11.91,8.93,11.91,8.93"/>
    <path class="cls-2" d="M165.62,232.17c-1.39,9.09,5.1,11.57,5.1,11.57"/>
    <path class="cls-2" d="M156.58,232.85c-.87,3.6-.71,7.16-5.43,7.71"/>
    <path class="cls-8" d="M153.37,222.01s18.39-9.97,23.48-11.4c2.7-.76,5.55,0,5.97,4.22.45,4.53-7.13,5.06-10.23,5.42-4.42.52-8.8.76-13.23,1.19-2,.19-3.99.38-5.99.57"/>
    <path class="cls-8" d="M152.68,221.71s17.31-11.75,20.91-15.61c1.92-2.05,2.56-4.93-1-7.25-3.65-2.38-7.38,3.76-9.08,6.27-2.53,3.73-4.98,7.51-7.42,11.29-1.14,1.76-2.28,3.53-3.41,5.3"/>
    <path class="cls-18" d="M154.36,219.94c-.19-.79-.5-1.56-1.02-2.2-.45-.56-1.09-1.23-1.74-1.56-2-1.34-4.08-1.38-6.46-1.11-3.65.42-5.68,3.76-5.73,7.21-.04,3.38,2.22,7.07,5.47,8.21,1.79.63,4.09,0,5.69-.9,1.01-.57,1.96-1.37,2.64-2.32,1.26-1.76,1.59-4.08,1.35-6.19-.03-.26-.07-.52-.12-.78-.02-.12-.05-.25-.08-.37Z"/>
    <path class="cls-20" d="M144.83,220.14c-.55-.92-3.24-1-3.48.28.02,1.37,3.75,1.3,3.52-.16l-.04-.12Z"/>
    <path class="cls-20" d="M152.11,219.87c-.68-1.04-3.71-.96-3.8.56.23,1.51,4.19,1.4,3.86-.43l-.06-.13Z"/>
    <polygon class="cls-19" points="144.92 223.75 148.3 223.75 146.41 220.77 144.92 223.75"/>
    <path class="cls-19" d="M142.81,221.3c-.7-.32-.73-1.53-.07-1.92,1.52-.62,1.65,2.03.21,1.96l-.14-.04ZM143.65,220.53s0,0,0,0c0,0,0,0,0,0ZM143.65,220.52s0,0,0,0c0,0,0,0,0,0Z"/>
    <path class="cls-5" d="M144.89,219.7s-2.98-1.28-3.54-1.46"/>
    <path class="cls-19" d="M150.43,221.34c.77-.24.92-1.6.17-1.97-1.44-.54-1.65,1.93-.32,1.99l.15-.02Z"/>
    <line class="cls-5" x1="148.32" y1="219.29" x2="152.43" y2="218.36"/>
  </g>
  <path class="cls-4" d="M149.13,226.52c-1.69,0-3.39-.08-5.08,0"/>
  <g>
    <path class="cls-3" d="M1235.41,206.75s14.96,10.54,19.23,12.29c2.38.98,5.16-.02,5.61-2.77.72-4.38-5.27-5.31-8.33-6.03-3.79-.9-7.56-1.56-11.37-2.38-1.71-.37-3.43-.74-5.15-1.1"/>
    <path class="cls-3" d="M1235.31,207.28s-15.42,9.85-19.77,11.41c-2.42.87-5.15-.25-5.48-3.02-.52-4.41,5.5-5.07,8.59-5.65,3.83-.73,7.62-1.22,11.46-1.87,1.73-.29,3.46-.58,5.19-.87"/>
    <path class="cls-10" d="M1235.41,206.75s17.01,6.74,21.58,7.44c2.55.39,5.01-1.23,4.81-4.01-.33-4.43-6.37-3.93-9.51-3.91-3.89.01-7.72.26-11.61.35-1.75.04-3.51.09-5.26.13"/>
    <path class="cls-11" d="M1235.41,206.75s18.26,1.12,22.82.37c2.54-.42,4.38-2.72,3.32-5.31-1.69-4.11-7.27-1.75-10.26-.77-3.7,1.22-7.26,2.64-10.93,3.94-1.65.58-3.31,1.17-4.96,1.76"/>
    <path class="cls-10" d="M1233.85,206.75s-17.3,5.96-21.89,6.46c-2.56.28-4.95-1.45-4.62-4.22.53-4.41,6.54-3.63,9.68-3.48,3.89.19,7.7.6,11.58.87,1.75.12,3.5.24,5.25.37"/>
    <path class="cls-11" d="M1233.85,206.75s-18.29.29-22.81-.66c-2.52-.53-4.26-2.92-3.08-5.45,1.87-4.03,7.34-1.42,10.28-.3,3.64,1.39,7.13,2.97,10.74,4.43,1.63.66,3.25,1.32,4.87,1.98"/>
    <polyline class="cls-8" points="1233.74 221.9 1235 235.42 1236.24 221.9"/>
    <path class="cls-18" d="M1241.69,222.68c-1,3.17-3.08,5.98-6.77,5.98-2.03,0-4.18-1.04-5.3-2.76-.96-1.46-1.32-3.17-1.6-4.87-.45-2.76-.8-5.74-.4-8.52.65-4.42,1.59-10.51,7.3-10.51,7.82,0,7.77,10.95,7.52,16.38-.06,1.36-.3,2.86-.75,4.3Z"/>
    <path class="cls-2" d="M1239.33,223.12c6.83,1.04,3.71,12.28,3.71,12.28"/>
    <path class="cls-2" d="M1230.33,223.12c-6.83,1.04-3.71,12.28-3.71,12.28"/>
    <path class="cls-18" d="M1228.75,196.29c.17-.69.44-1.37.89-1.92.4-.49.95-1.08,1.53-1.36,1.75-1.17,3.57-1.2,5.65-.97,3.19.37,4.97,3.29,5.01,6.31.04,2.95-1.94,6.19-4.79,7.18-1.57.55-3.58,0-4.98-.79-.88-.5-1.71-1.2-2.31-2.03-1.1-1.54-1.39-3.57-1.18-5.42.03-.23.06-.46.11-.68.02-.11.04-.22.07-.32Z"/>
    <path class="cls-2" d="M1238.55,204.74c-.27.14-1.23.69-1.51.79-1.57.55-3.58,0-4.98-.79"/>
    <polygon class="cls-19" points="1236.8 199.63 1233.85 199.63 1235.35 197.32 1236.8 199.63"/>
    <path class="cls-2" d="M1239.48,206.76c3.34.05,5.81,3.51,7.46,6.97"/>
    <path class="cls-2" d="M1240.33,211.99c6.01,2.52,5.75,9.17,5.75,9.17"/>
    <path class="cls-2" d="M1230.68,206.76c-3.34.05-5.81,3.51-7.46,6.97"/>
    <path class="cls-2" d="M1229.83,211.99c-6.01,2.52-5.75,9.17-5.75,9.17"/>
    <path class="cls-5" d="M1236.91,202.22c-.36-.41-1.04-.75-1.48-.81-.57-.07-1.21.25-1.64.81"/>
    <path class="cls-20" d="M1237.04,197.59c0-.63.43-.88.84-.89.26,0,.92.03,1.31.03.48,0,.75.53.75.81,0,.63-.43.85-.63.85h-1.58c-.29,0-.68-.23-.68-.8Z"/>
    <line class="cls-4" x1="1238.49" y1="197.63" x2="1238.49" y2="197.56"/>
    <line class="cls-5" x1="1239.67" y1="196.04" x2="1237.5" y2="196.39"/>
    <path class="cls-20" d="M1233.85,197.59c0-.63-.43-.88-.84-.89-.26,0-.92.03-1.31.03-.48,0-.75.53-.75.81,0,.63.43.85.63.85h1.58c.29,0,.68-.23.68-.8Z"/>
    <line class="cls-4" x1="1232.45" y1="197.63" x2="1232.45" y2="197.56"/>
    <line class="cls-5" x1="1231.05" y1="196.08" x2="1233.6" y2="196.52"/>
  </g>
  <g>
    <polygon class="cls-21" points="523.57 370.8 474.65 370.8 479.6 339.93 500.21 333.6 500.21 333.6 533.79 333.56 523.57 370.8"/>
    <polyline class="cls-2" points="533.79 333.56 517.31 343.89 502.23 345.82 500.21 333.6"/>
    <polyline class="cls-2" points="502.23 345.82 491.74 350.03 479.6 339.93"/>
    <polyline class="cls-2" points="491.74 350.03 489.14 358.86 474.65 370.8"/>
    <polyline class="cls-2" points="489.14 358.86 513.47 360.45 523.57 370.8"/>
    <line class="cls-2" x1="513.47" y1="360.45" x2="517.31" y2="343.89"/>
  </g>
  <g>
    <path class="cls-14" d="M1199.3,367.41c.16-.22.35-.41.54-.61.23-.25.31-.29.18-.57-.14-.29-.46-.58-.66-.84-.24-.3-.68-.91-.92-1.21-.06-.07-.33-.32-.33-.42v-1.7s-4.88-.44-4.88-.44l-.95-.09-.91,4.07s-.41,3.21,0,3.82,1.57.67,1.57.67l3.76.58s.81.37,1.15-.18c.53-.85.59-1.66.59-1.66.04-.67.51-.92.88-1.43Z"/>
    <path class="cls-2" d="M1199.23,367.36l-2.28,1.73s-.76.11-.79-.6,1.62-2.15,1.62-2.15c0,0-1.38-1.18-1.71-2.04"/>
    <path class="cls-14" d="M1218.29,351.14l3.65,2.02-.19.56c-.06,1.24-.28,2.47-.46,3.71-.13.92-.12,1.85-.23,2.77l-1.65.24c.97,3.75,2.66,11.94,11.18,10.08,8.81-1.92,7.28-12.79,7.28-12.79l-3.38.5,1.82-3.09-2.05-.17s-.67-4.71-3.68-4.63l-1.03-.1,2.77-2.4-14.04,3.3Z"/>
    <rect class="cls-14" x="1163.89" y="280.5" width="62.1" height="3.02" transform="translate(43.68 708.65) rotate(-33.61)"/>
    <path class="cls-14" d="M1233.54,338.01l-4.87-18.41c-.37-1.39-.63-3.71-.54-5.15,1.08-17.81-8.15-33.42-10.58-37.2-.36-.55-.38-1.25-.07-1.83l1.82-3.43c.31-.59.28-1.3-.09-1.85l-1.06-1.6-10.66,7.09,8.84,21.59-1.7,17.7-2.99,1.99-14.39-8.22-13.11-17.54-11.35,7.54,1,1.52c.37.55,1.43,1.49,2.09,1.44l4.21-.36c.46-.04.9.23,1.07.66,1.24,3.21,6.67,15.61,22.17,22.97,4.3,3.35,5.3,4.07,5.3,4.07l2.37,13.44-10.36,2.09c-2.96.35-5.36,2.56-5.96,5.47l-2.4,11.54,7.15.65,2.53-9.96,16.13-.94,18.07-4.24,12.32-3.53,13.23,1.21,1.96-6.14s-7.13-2.68-16.82-1.94c-9.69.74-13.31,1.36-13.31,1.36Z"/>
    <line class="cls-2" x1="1192.27" y1="361.54" x2="1199.43" y2="362.18"/>
    <polyline class="cls-2" points="1221.9 353.4 1222.8 339.69 1218.8 347.7 1220.83 348.68 1218.08 351.28"/>
    <polyline class="cls-2" points="1232.79 347.83 1228.82 346.22 1230.35 344.16 1222.8 339.69 1229.88 350.34"/>
    <path class="cls-2" d="M1222.8,339.69s-1.7-6.98-3.83-12.64c-2.13-5.66-6.03-11.01-6.03-11.01l-8.92,8.82"/>
    <polyline class="cls-2" points="1216.78 321.77 1214.62 314.92 1227.6 312.66"/>
    <path class="cls-2" d="M1229.88,350.34c-2.51.24-4.87,1.08-5.44,2.45"/>
    <path class="cls-2" d="M1223.61,359.83s-.02-.35-.17-1.29.08-1.89,1.38-2.18"/>
    <line class="cls-2" x1="1232.75" y1="357.42" x2="1231.23" y2="357.51"/>
    <line class="cls-2" x1="1233.62" y1="353.18" x2="1231.43" y2="353.04"/>
    <path class="cls-14" d="M1261.7,344.72s2.61.46,2.61.46c.28.05.93,1.1,1.18,1.35.47.47,1.25,1.25,1.94,1.35s1-.61,1.11-1.27c0,0,1.17.67,1.63.22s.45-.85.82-1.49.68-1,.82-2.14-.33-2.9-.33-2.9c-.49-.67-4.55-1.29-4.55-1.29l-3.27-.42-1.96,6.14Z"/>
    <path class="cls-2" d="M1196.23,364.63s-1.63-.53-2.79-.03c-1.16.5-1.22,1.27-1.22,1.27"/>
    <polyline class="cls-2" points="1221.67 313.69 1222.43 304.88 1227.61 304.36"/>
    <polyline class="cls-2" points="1208.06 320.86 1201.2 316.54 1196.87 321.22"/>
    <line class="cls-2" x1="1261.7" y1="344.72" x2="1263.67" y2="338.59"/>
    <path class="cls-2" d="M1227.13,359.39c-1.21-1.76-1-6.19-.72-8.18"/>
    <line class="cls-2" x1="1219.41" y1="360.45" x2="1237.87" y2="357.74"/>
    <path class="cls-2" d="M1210.2,282.3c2.39-1.59,4.64-3.4,7.11-4.73"/>
    <path class="cls-2" d="M1180.83,301.63c1.48-1.05,3.12-1.82,4.61-2.86l2.6-1.73"/>
    <path class="cls-2" d="M1175.73,301.66c.58-1.1-.08-2.46-.52-3.48-.05.19,0,.38.16.56"/>
    <line class="cls-2" x1="1175.82" y1="299.43" x2="1185" y2="293.33"/>
    <path class="cls-2" d="M1185.71,298.58c-.88-1.67-3.66-2.96-5.33-1.78"/>
    <path class="cls-2" d="M1219.1,272.83c-1.7.87-2.57.37-3.46-1.05"/>
    <line class="cls-2" x1="1215.77" y1="272.88" x2="1208.52" y2="277.7"/>
    <path class="cls-2" d="M1212.93,279.89c-1.33-1.55-.31-4.33,1.19-5.33"/>
    <line class="cls-2" x1="1169.9" y1="300.61" x2="1221.61" y2="266.24"/>
    <path class="cls-2" d="M1267.13,345.42c-.32-.48-.85-.99-.77-1.6s.74-1.06,1.01-1.59c.33-.67.35-1.51.69-2.15"/>
    <path class="cls-2" d="M1225.34,337.41c-1.31-1.81-1.46-5.34-1.9-7.54,1.81-1.16,3.84-1.08,5.8-1.56-.14,2.87,1.03,5,1.09,7.69"/>
    <path class="cls-2" d="M1219.77,339.39c-1.54-2.26-2.44-4.92-3.48-7.43-1.5,1.04-3.67,1.02-4.97,2.16.66,2.43,1.02,4.85,1.99,7.07"/>
    <path class="cls-2" d="M1196.58,366.83c-.47-.29-.96-.55-1.49-.43-.34.08-.67.33-1.01.38-.62.09-1.7-.39-2.14.3"/>
    <path class="cls-2" d="M1220.83,360.03c-.84-1.56.94-2.71.9-4.2"/>
    <path class="cls-2" d="M1222.13,350.01c1.1-2.69,3.55-2.24,5.85-2.54"/>
  </g>
  <circle class="cls-14" cx="1307.01" cy="365" r="5.8"/>
  <circle class="cls-14" cx="1451.47" cy="365" r="5.8"/>
  <g>
    <polygon class="cls-17" points="1371.23 352.92 1387.83 370.81 1414.28 370.97 1427.21 348.86 1418.86 326.45 1398.12 320.95 1377.24 330.32 1371.23 352.92 1371.23 352.92"/>
    <polygon class="cls-2" points="1394.45 353.82 1389.28 348.15 1392.05 339.43 1398.02 336.55 1405.76 338.94 1409.68 347.51 1404.72 354.5 1394.45 353.82 1394.45 353.82"/>
    <line class="cls-2" x1="1409.68" y1="347.51" x2="1427.21" y2="348.86"/>
    <line class="cls-2" x1="1405.76" y1="338.94" x2="1418.86" y2="326.45"/>
    <line class="cls-2" x1="1398.02" y1="336.55" x2="1398.12" y2="320.95"/>
    <line class="cls-2" x1="1392.05" y1="339.43" x2="1377.24" y2="330.32"/>
    <line class="cls-2" x1="1389.28" y1="348.15" x2="1371.23" y2="352.92"/>
    <line class="cls-2" x1="1394.45" y1="353.82" x2="1388.26" y2="370.8"/>
    <line class="cls-2" x1="1404.72" y1="354.5" x2="1414.28" y2="370.97"/>
  </g>
</svg>