<?xml version="1.0" encoding="UTF-8"?>
<svg id="Layer_1" data-name="Layer 1" xmlns="http://www.w3.org/2000/svg" xmlns:xlink="http://www.w3.org/1999/xlink" viewBox="0 0 78 92">
  <defs>
    <style>
      .cls-1, .cls-2, .cls-3 {
        fill: none;
      }

      .cls-2 {
        stroke: #47395c;
      }

      .cls-2, .cls-3 {
        stroke-linecap: round;
        stroke-linejoin: round;
        stroke-width: 1.97px;
      }

      .cls-4 {
        fill: #f0494b;
      }

      .cls-3 {
        stroke: #f0494b;
      }

      .cls-5 {
        clip-path: url(#clippath);
      }
    </style>
    <clipPath id="clippath">
      <rect class="cls-1" x=".73" y="0" width="77.25" height="91.24"/>
    </clipPath>
  </defs>
  <g class="cls-5">
    <g>
      <path class="cls-3" d="M43,20.77c0-5.6,2.21-10.97,6.16-14.95l4.8-4.84"/>
      <path class="cls-3" d="M35.23,20.77c0-5.51-2.18-10.79-6.05-14.69l-4.91-4.94"/>
      <path class="cls-3" d="M50.41,47.64h6.98"/>
      <path class="cls-3" d="M50.66,53.5h6.73"/>
      <path class="cls-3" d="M47.79,41.9c13.68-.19,21.83-9.65,21.83-22.65"/>
      <path class="cls-4" d="M76.54,6.18c2.96,4.36,1.36,10.89-4.8,12.89-1.38.45-2.88.45-4.26,0-6.16-2.01-7.76-8.54-4.8-12.89.45-.67,1.42-.73,1.94-.11l3.92,4.73c.56.67,1.59.67,2.15,0l3.92-4.73c.52-.62,1.48-.56,1.94.11h-.01Z"/>
      <path class="cls-3" d="M30.94,41.9c-13.68-.19-21.83-9.65-21.83-22.65"/>
      <path class="cls-3" d="M28.66,47.64h-6.98"/>
      <path class="cls-3" d="M28.41,53.5h-6.73"/>
      <path class="cls-4" d="M44.41,74.9v-.96c0-2.49.89-4.87,2.36-6.89,2.51-3.44,4.1-8.56,4.1-14.3,0-4.25-.87-8.17-2.35-11.31-.93-1.98-.74-4.26.46-6.09,1.2-1.83,1.92-4.1,1.89-6.5-.08-6.08-5.05-11.19-11.13-11.43-6.62-.26-12.07,5.03-12.07,11.59,0,2.43.75,4.69,2.03,6.55,1.19,1.73,1.2,3.97.31,5.87-1.47,3.14-2.35,7.06-2.35,11.31,0,5.74,1.59,10.86,4.1,14.3,1.47,2.02,2.36,4.39,2.36,6.89v.96c0,3.51-1.06,6.93-3.04,9.83l-1.13,1.65c-1.03,1.51.6,3.42,2.26,2.63l.51-.25c.71-.34,1.56.08,1.72.85l.04.2c.33,1.56,2.38,1.95,3.25.62l.52-.79c.48-.73,1.55-.73,2.03,0l.52.79c.88,1.33,2.93.94,3.25-.62l.04-.2c.16-.77,1-1.19,1.72-.85l.51.25c1.65.79,3.29-1.11,2.26-2.63l-1.13-1.65c-1.98-2.89-3.04-6.32-3.04-9.83h0Z"/>
      <path class="cls-2" d="M38.1,29.57c-3.25,1.3-2.15,7.19,1.55,6.38,3.51-.77,2.86-7.77-1.38-6.45l-.17.07Z"/>
      <path class="cls-4" d="M16.05,6.18c2.96,4.36,1.36,10.89-4.8,12.89-1.38.45-2.88.45-4.26,0C.82,17.07-.78,10.54,2.18,6.18c.45-.67,1.42-.73,1.94-.11l3.92,4.73c.56.67,1.59.67,2.15,0l3.92-4.73c.52-.62,1.48-.56,1.94.11Z"/>
      <path class="cls-2" d="M44.41,74.9h-10.3"/>
      <path class="cls-2" d="M47.97,25.59l-4.29,1.55,3.49,1.84"/>
      <path class="cls-2" d="M30.88,25.08l3.68,2.25-4.38,1.38"/>
    </g>
  </g>
</svg>