<?xml version="1.0" encoding="UTF-8"?>
<svg id="Layer_1" data-name="Layer 1" xmlns="http://www.w3.org/2000/svg" xmlns:xlink="http://www.w3.org/1999/xlink" viewBox="0 0 63 79">
  <defs>
    <style>
      .cls-1, .cls-2 {
        fill: none;
      }

      .cls-2 {
        stroke: #47395c;
        stroke-linecap: round;
        stroke-linejoin: round;
        stroke-width: 2px;
      }

      .cls-3 {
        fill: #f48a93;
      }

      .cls-4 {
        clip-path: url(#clippath);
      }
    </style>
    <clipPath id="clippath">
      <rect class="cls-1" x=".73" y="0" width="62.01" height="78.61"/>
    </clipPath>
  </defs>
  <g class="cls-4">
    <g>
      <path class="cls-3" d="M50.98,36.59c1.87,3.51,3.59,7.08,5.57,10.53,3.55,6,8.53,13.34,4.95,20.38-2.7,4.81-8.03,7.97-13.22,9.48-4.51,1.32-9.24,1.11-13.89.86-3.68-.19-7.42-.28-11.08.15-2.53.26-5.07.73-7.62.59-5.21-.33-10.28-3.21-13.27-7.46-1.85-2.75-2.15-6.27-1.1-9.39.79-2.54,2.35-4.67,3.81-6.87,2.41-3.42,3.87-7.3,4.93-11.33,2.21-7.59,2.49-15.57,3.1-23.39.24-3.88,1.03-7.73,2.23-11.42.49-1.53,1.09-3.11,1.94-4.44C19.93-.14,25.94-1.09,30.29,1.22c5.19,2.75,7.28,9.39,9.79,14.3,3.6,7.04,7.25,14.05,10.9,21.05"/>
      <path class="cls-2" d="M16.55,75.93c.58-2.35,1.01-5.07,3.13-6.49,3.98-2.41,12.03.48,16.53,1.96"/>
      <path class="cls-2" d="M3.27,57.79c2.29-3.36,7.84-8.72,12.39-7.61"/>
    </g>
  </g>
</svg>