<svg width="80" height="73" viewBox="0 0 80 73" fill="none" xmlns="http://www.w3.org/2000/svg">
<g clip-path="url(#clip0_5140_573)">
<path d="M77.9122 26.2602L73.2322 19.5602M68.9222 13.3702L64.2422 6.66016M68.7922 18.0602L72.4722 15.5002" stroke="#47385C" stroke-width="2.22" stroke-linecap="round" stroke-linejoin="round"/>
<path d="M16.384 55.2801L6.59405 47.9901C3.73405 45.8601 -0.145955 48.6501 0.924045 52.0501C1.52405 53.9501 2.20405 55.6801 2.95405 56.7601C5.48405 60.3901 7.71405 61.3301 7.71405 61.3301L16.384 55.2801Z" fill="#3671B8"/>
<path d="M52.5545 24.2101C48.1545 17.9001 39.1945 5.05012 37.1645 2.14012C35.1345 -0.769877 31.8145 0.000123203 30.6745 0.420123C29.5645 0.830123 15.8245 5.32012 36.7445 35.3101" fill="#3671B8"/>
<path d="M60.7059 30.2201L54.5859 21.4401L61.7959 16.4101C63.9659 14.8901 67.2759 15.8801 68.7959 18.0501C70.3159 20.2201 70.0959 23.6701 67.9159 25.1801L60.7059 30.2101V30.2201Z" fill="#D1BAC5"/>
<path d="M54.5827 21.4402L39.7827 31.7602C34.6127 35.3602 30.2927 40.1702 25.5827 44.3502L15.6827 53.1402L7.11273 51.8902C5.22273 51.6102 3.54273 53.1002 3.58273 55.0002C3.62273 56.8802 3.80273 59.1602 4.35273 61.0302C4.62273 62.5502 5.28273 65.3802 8.06273 64.0902C9.89273 63.2502 24.7027 55.3402 34.6327 50.0202C40.6327 46.8102 46.2327 42.9202 51.3427 38.4202L60.6927 30.1902L54.5727 21.4102L54.5827 21.4402Z" fill="#3F58A7"/>
<path d="M56.3227 29.6201C60.7227 35.9301 70.5827 50.0601 72.6127 52.9701C74.6427 55.8801 72.7827 58.7301 71.9827 59.6501C71.2127 60.5501 62.0627 71.6101 41.7627 42.5101L40.4727 40.6601L56.3227 29.6101V29.6201Z" fill="#3671B8"/>
<path d="M17.0059 56.1702L20.4659 67.8802C21.4759 71.3002 17.5159 73.9802 14.6959 71.8002C13.1159 70.5802 11.7259 69.3402 10.9759 68.2702C8.44594 64.6402 8.33594 62.2202 8.33594 62.2202L17.0059 56.1702Z" fill="#3671B8"/>
<path d="M44.8353 29.0701L39.6553 28.4501C37.8753 28.2301 36.0753 28.6801 34.5953 29.7101C33.9053 30.1901 33.2953 30.7901 32.8053 31.4801C30.8653 34.2301 25.4953 41.8701 21.4453 48.0201C21.4453 48.0201 31.5753 41.8401 38.3253 37.1301L45.5753 32.0801C46.3253 31.5601 46.5153 30.5201 45.9853 29.7701C45.7153 29.3801 45.2953 29.1301 44.8253 29.0701" fill="#D1BAC5"/>
<path d="M31.9948 31.6801L36.6348 38.3301M36.8948 28.1101L41.6048 34.8601M21.4648 48.0201C25.0148 45.8101 34.0148 40.1501 38.3448 37.1301L45.5948 32.0801" stroke="#47385C" stroke-width="2.22" stroke-linecap="round" stroke-linejoin="round"/>
<path d="M62.3049 16.0754L58.4492 18.7632L64.5681 27.5409L68.4238 24.8532L62.3049 16.0754Z" fill="#F0484A"/>
<path d="M58.4455 18.7595L54.5898 21.4473L60.7087 30.225L64.5644 27.5373L58.4455 18.7595Z" fill="#F2E34D"/>
<path d="M61.5635 56.0002C62.7235 57.6602 65.0135 58.0702 66.6835 56.9102C68.3435 55.7502 68.7535 53.4602 67.5935 51.8002C66.4335 50.1402 64.1435 49.7302 62.4735 50.8902C60.8135 52.0502 60.4035 54.3402 61.5635 56.0102V56.0002ZM30.0935 10.8802C31.2535 12.5402 33.5435 12.9502 35.2135 11.7902C36.8735 10.6302 37.2835 8.34015 36.1235 6.68015C34.9635 5.02015 32.6735 4.61015 31.0035 5.77015C29.3435 6.93015 28.9335 9.22015 30.0935 10.8902V10.8802Z" stroke="#3F58A7" stroke-width="2.22" stroke-linecap="round" stroke-linejoin="round"/>
</g>
<defs>
<clipPath id="clip0_5140_573">
<rect width="78.29" height="72.59" fill="white" transform="translate(0.734375 0.00012207)"/>
</clipPath>
</defs>
</svg>
