<?xml version="1.0" encoding="UTF-8"?>
<svg id="Layer_1" data-name="Layer 1" xmlns="http://www.w3.org/2000/svg" xmlns:xlink="http://www.w3.org/1999/xlink" viewBox="0 0 80 73">
  <defs>
    <style>
      .cls-1, .cls-2, .cls-3 {
        fill: none;
      }

      .cls-2 {
        stroke: #47395c;
      }

      .cls-2, .cls-3 {
        stroke-linecap: round;
        stroke-linejoin: round;
        stroke-width: 2.22px;
      }

      .cls-4 {
        fill: #f0494b;
      }

      .cls-5 {
        fill: #4159a8;
      }

      .cls-6 {
        fill: #f2e34e;
      }

      .cls-3 {
        stroke: #4159a8;
      }

      .cls-7 {
        fill: #3772b9;
      }

      .cls-8 {
        clip-path: url(#clippath);
      }

      .cls-9 {
        fill: #d1bac5;
      }
    </style>
    <clipPath id="clippath">
      <rect class="cls-1" x=".73" y="0" width="78.29" height="72.59"/>
    </clipPath>
  </defs>
  <g class="cls-8">
    <g>
      <path class="cls-2" d="M77.91,26.26l-4.68-6.7M68.92,13.37l-4.68-6.71M68.79,18.06l3.68-2.56"/>
      <path class="cls-7" d="M16.38,55.28l-9.79-7.29c-2.86-2.13-6.74.66-5.67,4.06.6,1.9,1.28,3.63,2.03,4.71,2.53,3.63,4.76,4.57,4.76,4.57l8.67-6.05Z"/>
      <path class="cls-7" d="M52.55,24.21c-4.4-6.31-13.36-19.16-15.39-22.07C35.13-.77,31.81,0,30.67.42c-1.11.41-14.85,4.9,6.07,34.89"/>
      <path class="cls-9" d="M60.71,30.22l-6.12-8.78,7.21-5.03c2.17-1.52,5.48-.53,7,1.64,1.52,2.17,1.3,5.62-.88,7.13l-7.21,5.03h0Z"/>
      <path class="cls-5" d="M54.58,21.44l-14.8,10.32c-5.17,3.6-9.49,8.41-14.2,12.59l-9.9,8.79-8.57-1.25c-1.89-.28-3.57,1.21-3.53,3.11.04,1.88.22,4.16.77,6.03.27,1.52.93,4.35,3.71,3.06,1.83-.84,16.64-8.75,26.57-14.07,6-3.21,11.6-7.1,16.71-11.6l9.35-8.23-6.12-8.78v.03Z"/>
      <path class="cls-7" d="M56.32,29.62c4.4,6.31,14.26,20.44,16.29,23.35s.17,5.76-.63,6.68c-.77.9-9.92,11.96-30.22-17.14l-1.29-1.85,15.85-11.05h0Z"/>
      <path class="cls-7" d="M17.01,56.17l3.46,11.71c1.01,3.42-2.95,6.1-5.77,3.92-1.58-1.22-2.97-2.46-3.72-3.53-2.53-3.63-2.64-6.05-2.64-6.05l8.67-6.05Z"/>
      <path class="cls-9" d="M44.84,29.07l-5.18-.62c-1.78-.22-3.58.23-5.06,1.26-.69.48-1.3,1.08-1.79,1.77-1.94,2.75-7.31,10.39-11.36,16.54,0,0,10.13-6.18,16.88-10.89l7.25-5.05c.75-.52.94-1.56.41-2.31-.27-.39-.69-.64-1.16-.7"/>
      <path class="cls-2" d="M31.99,31.68l4.64,6.65M36.89,28.11l4.71,6.75M21.46,48.02c3.55-2.21,12.55-7.87,16.88-10.89l7.25-5.05"/>
      <path class="cls-4" d="M62.3,16.08l-3.86,2.69,6.12,8.78,3.86-2.69-6.12-8.78Z"/>
      <path class="cls-6" d="M58.45,18.76l-3.86,2.69,6.12,8.78,3.86-2.69-6.12-8.78Z"/>
      <path class="cls-3" d="M61.56,56c1.16,1.66,3.45,2.07,5.12.91,1.66-1.16,2.07-3.45.91-5.11-1.16-1.66-3.45-2.07-5.12-.91-1.66,1.16-2.07,3.45-.91,5.12h0ZM30.09,10.88c1.16,1.66,3.45,2.07,5.12.91,1.66-1.16,2.07-3.45.91-5.11s-3.45-2.07-5.12-.91c-1.66,1.16-2.07,3.45-.91,5.12h0Z"/>
    </g>
  </g>
</svg>