<?xml version="1.0" encoding="UTF-8"?>
<svg id="Layer_1" data-name="Layer 1" xmlns="http://www.w3.org/2000/svg" xmlns:xlink="http://www.w3.org/1999/xlink" viewBox="0 0 83 69">
  <defs>
    <style>
      .cls-1, .cls-2, .cls-3 {
        fill: none;
      }

      .cls-2 {
        stroke: #47395c;
      }

      .cls-2, .cls-3 {
        stroke-linecap: round;
        stroke-linejoin: round;
        stroke-width: 2.22px;
      }

      .cls-4 {
        fill: #6cbf9f;
      }

      .cls-5 {
        fill: #f0494b;
      }

      .cls-6 {
        fill: #00a38f;
      }

      .cls-7 {
        fill: #f2e34e;
      }

      .cls-3 {
        stroke: #00a38f;
      }

      .cls-8 {
        clip-path: url(#clippath);
      }

      .cls-9 {
        fill: #d1bac5;
      }
    </style>
    <clipPath id="clippath">
      <rect class="cls-1" x=".73" y="0" width="81.65" height="68.36"/>
    </clipPath>
  </defs>
  <g class="cls-8">
    <g>
      <path class="cls-2" d="M81.27,34.49l-3.31-7.48M74.91,20.12l-3.31-7.48M73.89,24.7l4.1-1.81"/>
      <path class="cls-4" d="M15.32,51.2l-8.21-9.03c-2.4-2.63-6.74-.64-6.35,2.9.22,1.98.56,3.81,1.09,5.01,1.79,4.04,3.8,5.4,3.8,5.4l9.67-4.27h0Z"/>
      <path class="cls-4" d="M56.77,27.62c-3.11-7.03-9.44-21.36-10.88-24.6C44.45-.23,41.05-.12,39.85.08c-1.17.19-15.51,1.97-.73,35.41"/>
      <path class="cls-9" d="M63.62,35.09l-4.33-9.79,8.04-3.55c2.42-1.07,5.48.53,6.55,2.95s.2,5.76-2.23,6.83l-8.04,3.55h.01Z"/>
      <path class="cls-6" d="M59.29,25.3l-16.51,7.3c-5.76,2.55-10.92,6.44-16.34,9.64l-11.4,6.73-8.17-2.87c-1.8-.63-3.73.5-4.06,2.38-.32,1.85-.58,4.12-.4,6.07-.03,1.54.08,4.45,3.06,3.72,1.96-.48,18-5.4,28.77-8.72,6.5-2,12.75-4.75,18.62-8.18l10.75-6.29-4.33-9.79h0Z"/>
      <path class="cls-4" d="M59.43,33.66c3.11,7.03,10.08,22.79,11.51,26.04,1.43,3.25-.94,5.69-1.89,6.44-.93.73-12.03,9.84-26.38-22.61l-.91-2.06,17.67-7.81Z"/>
      <path class="cls-4" d="M15.76,52.19l1.15,12.15c.34,3.55-4.06,5.42-6.42,2.74-1.32-1.5-2.44-2.98-2.97-4.18-1.79-4.04-1.43-6.44-1.43-6.44l9.67-4.27Z"/>
      <path class="cls-9" d="M48.27,30.92l-4.96-1.6c-1.71-.55-3.56-.46-5.2.27-.77.34-1.48.81-2.09,1.4-2.43,2.33-9.16,8.8-14.31,14.06,0,0,11.13-4.13,18.65-7.45l8.08-3.57c.84-.37,1.22-1.35.85-2.19-.19-.43-.56-.76-1.01-.91"/>
      <path class="cls-2" d="M35.16,31.02l3.28,7.41M40.65,28.46l3.33,7.53M21.7,45.04c3.9-1.49,13.82-5.32,18.65-7.45l8.08-3.57"/>
      <path class="cls-5" d="M67.9,21.5l-4.3,1.9,4.33,9.79,4.3-1.9-4.33-9.79Z"/>
      <path class="cls-7" d="M63.6,23.39l-4.3,1.9,4.33,9.79,4.3-1.9-4.33-9.79Z"/>
      <path class="cls-3" d="M59.52,60.55c.82,1.86,2.99,2.69,4.85,1.87,1.86-.82,2.7-2.99,1.87-4.85-.82-1.86-2.99-2.69-4.85-1.87s-2.69,2.99-1.87,4.85ZM37.28,10.24c.82,1.86,2.99,2.7,4.85,1.87,1.86-.82,2.7-2.99,1.87-4.85-.83-1.86-2.99-2.69-4.85-1.87-1.86.82-2.69,2.99-1.87,4.85Z"/>
    </g>
  </g>
</svg>