<svg width="83" height="69" viewBox="0 0 83 69" fill="none" xmlns="http://www.w3.org/2000/svg">
<g clip-path="url(#clip0_5140_388)">
<path d="M81.2716 34.4901L77.9616 27.0101M74.9116 20.1201L71.6016 12.6401M73.8916 24.7001L77.9916 22.8901" stroke="#47385C" stroke-width="2.22" stroke-linecap="round" stroke-linejoin="round"/>
<path d="M15.3229 51.2L7.11289 42.17C4.71289 39.54 0.372888 41.53 0.762888 45.07C0.982888 47.05 1.32289 48.88 1.85289 50.08C3.64289 54.12 5.65289 55.48 5.65289 55.48L15.3229 51.21V51.2Z" fill="#6BBF9E"/>
<path d="M56.7742 27.6201C53.6642 20.5901 47.3342 6.26009 45.8942 3.02009C44.4542 -0.229911 41.0542 -0.119911 39.8542 0.0800889C38.6842 0.270089 24.3442 2.05009 39.1242 35.4901" fill="#6BBF9E"/>
<path d="M63.623 35.09L59.293 25.3L67.333 21.75C69.753 20.68 72.813 22.28 73.883 24.7C74.953 27.12 74.083 30.46 71.653 31.53L63.613 35.08L63.623 35.09Z" fill="#D1BAC5"/>
<path d="M59.2945 25.3L42.7845 32.6C37.0245 35.15 31.8645 39.04 26.4445 42.24L15.0445 48.97L6.87448 46.1C5.07448 45.47 3.14448 46.6 2.81448 48.48C2.49448 50.33 2.23448 52.6 2.41448 54.55C2.38448 56.09 2.49448 59 5.47448 58.27C7.43447 57.79 23.4745 52.87 34.2445 49.55C40.7445 47.55 46.9945 44.8 52.8645 41.37L63.6145 35.08L59.2845 25.29L59.2945 25.3Z" fill="#00A38F"/>
<path d="M59.4317 33.66C62.5417 40.69 69.5117 56.45 70.9417 59.7C72.3717 62.95 70.0017 65.39 69.0517 66.14C68.1217 66.87 57.0217 75.98 42.6717 43.53L41.7617 41.47L59.4317 33.66Z" fill="#6BBF9E"/>
<path d="M15.7621 52.1901L16.9121 64.3401C17.2521 67.8901 12.8521 69.7601 10.4921 67.0801C9.17212 65.5801 8.05212 64.1001 7.52212 62.9001C5.73212 58.8601 6.09212 56.4601 6.09212 56.4601L15.7621 52.1901Z" fill="#6BBF9E"/>
<path d="M48.2709 30.9201L43.3109 29.3201C41.6009 28.7701 39.7509 28.8601 38.1109 29.5901C37.3409 29.9301 36.6309 30.4001 36.0209 30.9901C33.5909 33.3201 26.8609 39.7901 21.7109 45.0501C21.7109 45.0501 32.8409 40.9201 40.3609 37.6001L48.4409 34.0301C49.2809 33.6601 49.6609 32.6801 49.2909 31.8401C49.1009 31.4101 48.7309 31.0801 48.2809 30.9301" fill="#D1BAC5"/>
<path d="M35.1631 31.0201L38.4431 38.4301M40.6531 28.4601L43.9831 35.9901M21.7031 45.0401C25.6031 43.5501 35.5231 39.7201 40.3531 37.5901L48.4331 34.0201" stroke="#47385C" stroke-width="2.22" stroke-linecap="round" stroke-linejoin="round"/>
<path d="M67.9002 21.4983L63.6016 23.3987L67.928 33.185L72.2267 31.2846L67.9002 21.4983Z" fill="#F0484A"/>
<path d="M63.6033 23.3947L59.3047 25.2952L63.6312 35.0815L67.9298 33.181L63.6033 23.3947Z" fill="#F2E34D"/>
<path d="M59.5246 60.5501C60.3446 62.4101 62.5146 63.2401 64.3746 62.4201C66.2346 61.6001 67.0746 59.4301 66.2446 57.5701C65.4246 55.7101 63.2546 54.8801 61.3946 55.7001C59.5346 56.5201 58.7046 58.6901 59.5246 60.5501ZM37.2846 10.2401C38.1046 12.1001 40.2746 12.9401 42.1346 12.1101C43.9946 11.2901 44.8346 9.1201 44.0046 7.2601C43.1746 5.4001 41.0146 4.5701 39.1546 5.3901C37.2946 6.2101 36.4646 8.3801 37.2846 10.2401Z" stroke="#00A38F" stroke-width="2.22" stroke-linecap="round" stroke-linejoin="round"/>
</g>
<defs>
<clipPath id="clip0_5140_388">
<rect width="81.65" height="68.36" fill="white" transform="translate(0.734375 0.00012207)"/>
</clipPath>
</defs>
</svg>
