<?xml version="1.0" encoding="UTF-8"?>
<svg id="Layer_1" data-name="Layer 1" xmlns="http://www.w3.org/2000/svg" xmlns:xlink="http://www.w3.org/1999/xlink" viewBox="0 0 64 90">
  <defs>
    <style>
      .cls-1, .cls-2 {
        fill: none;
      }

      .cls-2 {
        stroke: #47395c;
        stroke-linecap: round;
        stroke-linejoin: round;
        stroke-width: 2px;
      }

      .cls-3 {
        clip-path: url(#clippath);
      }

      .cls-4 {
        fill: #c8babe;
      }
    </style>
    <clipPath id="clippath">
      <rect class="cls-1" x=".73" y="0" width="62.58" height="89.47"/>
    </clipPath>
  </defs>
  <g class="cls-3">
    <g>
      <path class="cls-4" d="M63.2,69.4l.11-.12L22.97,31.02c-1.82-1.73-2.38-4.36-1.56-6.73,1.27-3.65.18-7.93-3.19-10.48-2.37-1.79-5.43-2.28-8.17-1.49-2.02.58-4.18-.41-5.13-2.29-.37-.73-.68-1.53-.84-2.36-.53-2.76-1.08-5.63-1.3-6.79C2.69.36,2.22-.04,1.68,0c-.62.06-1.03.63-.92,1.22l1.26,6.56c.24,1.26.66,2.46,1.23,3.58,1.13,2.21,1.27,4.76.54,7.13-.03.11-.05.22-.07.34-1.2,4.47,1.09,9.23,5.49,10.99,1.35.54,2.74.73,4.1.63.1.01.19.01.28,0,1.78-.18,3.56.35,4.86,1.59l5.95,5.64c1.51,1.43,2.05,3.61,1.37,5.58l-.47,1.37,37.01,24.85c.28.19.66.15.89-.1v.02ZM7.21,26.98c-3.17-3.01-3.3-8.02-.3-11.19,3.01-3.17,8.02-3.3,11.19-.3,3.17,3.01,3.3,8.02.3,11.19-3.01,3.17-8.02,3.3-11.19.3Z"/>
      <path class="cls-2" d="M24.39,37.7l4.89-.69"/>
      <path class="cls-4" d="M22.12,70.08L62.48,29.33l-.08-.08c-.25-.24-.63-.28-.92-.07l-36.22,25.97.51,1.35c.73,1.95.27,4.14-1.2,5.62l-7.01,7.08c-1.26,1.27-3.02,1.86-4.81,1.74-2.6-.18-5.26.73-7.23,2.72-3.85,3.89-3.55,10.34.86,13.83,3.36,2.66,8.21,2.64,11.54-.06,3.34-2.69,4.27-7.08,2.8-10.72-.92-2.28-.32-4.88,1.4-6.63ZM17.67,74.57c3.1,3.08,3.13,8.09.05,11.19-3.08,3.1-8.09,3.13-11.19.05-3.1-3.08-3.13-8.09-.05-11.19,3.08-3.1,8.09-3.13,11.19-.05Z"/>
      <path class="cls-2" d="M38.44,45.7l-5.6,4.01M38.52,53.52l3.78-3.81"/>
      <path class="cls-2" d="M37.8,50.34c.22,0,.4-.18.4-.4s-.18-.4-.4-.4-.4.18-.4.4.18.4.4.4Z"/>
    </g>
  </g>
</svg>