<?xml version="1.0" encoding="UTF-8"?>
<svg id="sketch" xmlns="http://www.w3.org/2000/svg" viewBox="0 0 1008 370.8">
  <defs>
    <style>
      .cls-1 {
        fill: #f0e9ec;
      }

      .cls-2 {
        fill: #1c9b79;
      }

      .cls-3 {
        fill: #eae4e7;
      }

      .cls-4 {
        fill: #c3afb9;
      }

      .cls-5 {
        fill: #3671b8;
      }

      .cls-6 {
        fill: #f2e34d;
      }

      .cls-7 {
        stroke: #47385c;
      }

      .cls-7, .cls-8, .cls-9 {
        fill: none;
        stroke-linecap: round;
        stroke-width: 2px;
      }

      .cls-7, .cls-9 {
        stroke-linejoin: round;
      }

      .cls-10 {
        fill: #47385c;
      }

      .cls-11 {
        fill: #ec6471;
      }

      .cls-12 {
        fill: #f0484a;
      }

      .cls-8 {
        stroke-miterlimit: 10;
      }

      .cls-8, .cls-9 {
        stroke: #ec6471;
      }

      .cls-13 {
        fill: #f58b63;
      }

      .cls-14 {
        fill: #d1bac5;
      }

      .cls-15 {
        fill: #f48992;
      }
    </style>
  </defs>
  <g>
    <g>
      <path class="cls-13" d="M832.66,512.38c-5.27-41.54-30.46-79.72-35.54-119.33-1.39-10.81-.92-20.21.81-29.24,0,0,33.03-1.58,33.03-1.58-4.29-48.17-7.15-99.14-31.59-141.99-15.82-27.74-34.55-59.85-66.35-71.05-9-3.17-17.02-4.42-24.37-4.13-7.36-.29-15.37.96-24.37,4.13-26.03,9.17-43.6,32.16-56.12,55.7-15.16,28.51-27.63,56.95-31.96,89.18-3.04,22.68-5.82,45.38-7.85,68.17-1.58,25.95,2.15,91.82,3.77,118.22-3.38,10.47-6.13,21.08-7.5,31.93-6.1,48.12,30.92,66.5,72.19,75.05,10.72,2.22,21.24,3.37,31.84,3.98,3.43.42,6.93.71,10.56.7,3.17,0,6.31-.03,9.43-.07,3.12.04,6.26.06,9.43.07,3.63,0,7.13-.27,10.56-.7,10.6-.61,21.13-1.76,31.84-3.98,41.27-8.56,78.29-26.94,72.19-75.05Z"/>
      <path class="cls-3" d="M591.6,371.03c-1.67,37.1-3.46,61.18-2.54,98.28.68,27.21,8.59,39.62,27.76,38.72,23.08-1.09,20.5-22.23,21.95-36.84,2.9-29.2,5.6-135.95,5.6-135.95"/>
      <path class="cls-13" d="M589.63,407.7c.54-14.82,1.26-29.76,1.97-45.45l9.89-5.06c11.61-.99,34.37-3.48,38.99.3,1.37,1.12,4.19,2.12,4.9,4.99-.28,9.46-2.44,21.79-2.84,33.25-4.78,10.5-16.87,17.82-27.55,19.56-16.13,2.63-22.78-.88-25.36-7.58Z"/>
      <path class="cls-3" d="M615.42,383.16c2.55,14.16,13.3,16.75,27,15.85,1.05-.07-.96-13.12.22-20.14.94-5.54,4.27-9.48,9.16-12.04,4.56-2.39,11.26.29,14.52-1.3,5.98-2.92,6.94-13.49,2.53-18.55-6.59-7.57-18.16-8.15-15.25-20.31,2.21-9.24,9.09-17.12,6.2-27.55-5.28-19.07-42.91-23.46-62.45-12.46-.43,2.45-.83,4.91-1.16,7.41-1.6,11.92-3.12,23.86-4.5,35.8,2.75,5.24,6.2,10.24,9.88,15.21,9.39,12.66,11.1,22.76,13.85,38.08Z"/>
      <path class="cls-7" d="M643.45,329.6s-.67,47.23-.67,71.06"/>
      <path class="cls-3" d="M792.35,371.85c-.56-7.44-2.84-13.71-9.97-13.73-12.64-.02-10.16,13.61-13.9,21.73-5.66,12.31-21.27,12.84-28.76,23.02-3.03,4.12-5.57,11.91-3.01,16.59,3.52,6.46,9.16,3.64,15.09,5.04,7.01,1.66,8.76,3.98,16.16,3.59,6.22-.32,11.88-1.18,17.04-4.88,10.36-7.44,6.96-21.01,6.99-32.43.01-4.86.86-12.35.36-18.94Z"/>
      <path class="cls-10" d="M830.96,362.23s-.36,82.44-2.76,111.69c-1.2,14.62,1.74,35.72-21.31,37.21-19.16,1.23-27.27-11.05-28.42-38.24-1.56-37.08-1.39-75.4-.36-112.52.43-15.58-4.86-46.33,18.77-45.1,7.39.38,12.71,2.35,15.93,9.63,2.99,6.76,2.15,13.06,8.31,18.74,6.41,5.91,9.77,9.38,9.84,18.6Z"/>
      <path class="cls-10" d="M632.55,255.94c.09-10.17-12.35-14.07-21.58-15.08-4.23,10.29-7.83,20.77-10.57,31.62,2.94-.35,6.8-.8,9.45-1.07,14.92-1.92,22.59-2.66,22.7-15.47Z"/>
      <path class="cls-3" d="M788.36,260.17l-.08.15c-1.96,4.14-1.69,9.9-1.16,14.58.81,7.61,6.22,11.08,13.09,12.79,5.33,1.38,15.83,2.84,22.79,3.17-2.6-14.96-6.14-29.67-11.31-43.81-8.18,1.68-20.91,8.44-23.33,13.11Z"/>
    </g>
    <g id="cat_head" data-name="cat head">
      <g>
        <path class="cls-1" d="M828.38,70.14c.27,42.98-4.02,88.37-25.12,126.13-18.7,33.45-52.19,45.1-89.11,44.94-30.64-.13-62.12-7.18-85.88-30.05-22.83-21.98-32.41-55.67-33.65-86.54-.68-17.02-.36-34.18.48-51.19.44-8.83,3.46-55.35,3.46-55.35,0,0,43.17,48.97,43.17,48.97l133.61-1.83s46.88-50.63,46.91-50.64c3.34-1.56,5.78,37.31,5.88,40.94.13,4.83.22,9.71.25,14.61Z"/>
        <path class="cls-10" d="M748.49,99.32c2.07,7.26,3.48,12.07,10.99,12.34,9.4.34,20.84,2.77,28.39,8.86,4.57,3.68,7.3,8.57,10.29,13.45,4.8,7.84,13.05,14.39,16.66,22.71l-3.32-11.09c1.13,3.84,5.79,4.07,8.3,1.61.53-.52,1.24-1.09,2.01-1.7,2.83-13.11,4.56-26.53,5.52-40-5.67-4.94-15.08-7.48-19.61-12.9-5.01-5.99-9.31-12.63-8.89-20.74.45-8.76,4.99-19.5,9.39-27.3,1.81-3.21,6.35-8.87,9-11.9,3.82-4.36,3.52-7.21,1.88-8.29-4.2-2.77-11.25,5.75-15.41,10.24-13.11,14.15-28.35,30.61-28.35,30.61l-30.77.42c-.73,10.44,1.05,23.6,3.93,33.68Z"/>
        <path class="cls-10" d="M595.1,73.43c-.84,17.01-1.16,34.17-.48,51.19.47,11.74,2.15,23.88,5.31,35.63,2.97,6.69,6.99,12.85,11.82,18.75,9.32,11.39,38.46,7.21,51.11,3.51,9.65-2.83,16.02-7.96,20.52-17.1,4.69-9.52,1.9-17.6,2.3-27.83,4.79-10.93,2.03-17.5,14.17-21.89,14.55-5.26,35.81.25,44.33-15.28,3.08-5.61,12.45-26.51,7.53-33.06-.5-.66-1.24-1.24-2.13-1.77l-107.84,1.48-43.17-48.97c-.57,8.83-3.08,47.59-3.46,55.35Z"/>
        <path class="cls-13" d="M683.07,128.95c-.86-1.21-1.79-2.38-2.78-3.49-3.18-3.54-7.11-6.57-11.5-8.46-2.44-1.05-11.11-2.04-11.73-4.98-1.24-5.85,4.81-7.39,9.31-7.87,8-.85,13.42-8.74,20.67-11.49,6.41-2.42,8.29.98,12.44,4.8,5.35,4.92,9.22,2.87,13.65-1.6,2.22-2.24,5.91-6.96,9.58-6.25,5.53,1.08,4.65,11.36,11.56,9.8,6.02-1.36,4.42-9.45,6.57-13.63,3.67-7.14,10.41-3.2,15.34.59,8.69,6.68,20.08,7.67,30.03,11.53,9.84,3.81,19.26,11.11,24.58,20.31,11.79,20.42,6.18,63.1-22.63,66.31-6.87.76-23.73-3.48-29.85-6.84-5.16-2.83-8.34-11.91-15.7-8.37-2.54,1.22-4.17,3.89-6.24,5.71-1.28,1.13-2.77,1.99-4.54,1.8-3.09-.34-5.34-3.91-5.13-6.86.23-3.3.98-8.17.98-8.17-.45,0-2.63-2.37-4.98-7.18-1.29-2.64-7.57-31.37-14.09-25.61-.64.56-.74,1.49-.89,2.33-.9,4.88-5.86,9.51-9.27,12.85-.82.8-7.75,6.21-7.71,6.94-.5-7.86-3.1-15.71-7.67-22.17Z"/>
        <path class="cls-11" d="M693.76,162.48s.07,2.79.14,4.71c.13,3.78-1.84,19.34,5.92,16.63,2.08-.73,1.87-3.86,4-4.46,4.58-1.31,2.52,4.52,7.08,4.54,3.04.01,2.46-5.72,7.4-5.7,1.34,0,2.35.71,3.05,1.81s.76,2.61,1.81,3.45c.72.57,1.77.74,2.6.34,1.77-.86,1.17-3.49,1.2-5.07.03-1.67.11-3.35.19-5.02.15-3.33.31-6.66.49-9.99,0-.04.04-.85.05-.85-2.3,0-14.65-.3-20.3-.33-3.68-.02-13.62-.06-13.62-.06Z"/>
        <path class="cls-2" d="M751.08,134.74c-1.26-4.76,2.45-9.26,6.91-10.95,3.16-1.22,6.61-1.28,9.97-1.34,4.36-.06,8.96.11,12.59,2.11,5.62,2.79,8.35,10.98,2.65,15.18-3.44,2.82-9.06,3.08-13.86,3.16-7.26.13-15.45-.62-18.2-7.98l-.05-.18Z"/>
        <line class="cls-8" x1="746.67" y1="162.13" x2="802.12" y2="162.37"/>
        <line class="cls-8" x1="747.42" y1="181.16" x2="802.01" y2="189.05"/>
        <line class="cls-8" x1="751.64" y1="201.4" x2="789.34" y2="215.3"/>
        <line class="cls-8" x1="673.57" y1="161.82" x2="616.92" y2="161.57"/>
        <line class="cls-8" x1="673.48" y1="181.35" x2="618.09" y2="187.31"/>
        <line class="cls-8" x1="668.81" y1="201.04" x2="628.26" y2="211.16"/>
        <path class="cls-10" d="M768.56,123.36c-10.68.88-9.93,20.23,1.13,19.09,9.79-1.37,8.58-18.63-.96-19.09h-.17Z"/>
        <path class="cls-8" d="M782.26,115.18c-23.98-8.45-47.17,13.62-51.04,36.12-.65,3.76-1.29,7.52-1.94,11.29"/>
        <path class="cls-8" d="M637.79,115.84c24.06-8.26,49.01,7.93,53.5,32.84.68,3.76.68,9.98,1.29,13.75"/>
        <path class="cls-13" d="M813.81,72.14c-6.56-7.61-9.04-15.14-20.38-7.87-13.82,8.87,9.41,24.09,14.31,30.24,4.48,5.62,12.8,15.88,16.24,18.34.42.57,2.3.49,2.66.74,1.2-12.63,1.68-25.32,1.73-37.86-5.27.82-10.47,1.14-14.56-3.59Z"/>
        <path class="cls-11" d="M786.33,69.39s2.89-6.06,11.19-15.74c1.07-1.25,19.69-20.98,19.69-20.98,1.81,12.18,2.4,24.45,3.23,36.72,0,0-34.11,0-34.11,0Z"/>
        <path class="cls-11" d="M633.85,68.73s-6.95-8.74-15.17-18.49c-1.06-1.26-15.39-18.49-15.39-18.49-1.91,12.16-.91,37.5-.91,37.5,0,0,31.47-.52,31.47-.52Z"/>
      </g>
      <line class="cls-8" x1="710.7" y1="177.53" x2="710.58" y2="204.26"/>
      <path class="cls-9" d="M727.77,205.76c-3.2-4.72-10.25-1.5-17.18-1.5-9.1,0-14.15-3.22-17.63,1.95"/>
    </g>
    <path class="cls-2" d="M665.63,134.48c1.52-9.23-9.8-12.24-17.1-11.79-5.29.08-10.8.6-14.74,4.03-6.02,5.18-3.76,13.31,3.83,15.32,8.15,1.98,25.04,2.57,27.96-7.39l.04-.18Z"/>
    <path class="cls-10" d="M647.81,142.5c-10.68-.88-9.93-20.23,1.13-19.09,9.79,1.37,8.58,18.63-.96,19.09h-.17Z"/>
  </g>
  <circle class="cls-2" cx="692.58" cy="60.48" r="5.8"/>
  <circle class="cls-2" cx="705.3" cy="60.38" r="5.8"/>
  <circle class="cls-2" cx="644.26" cy="61.22" r="5.8"/>
  <g>
    <polygon class="cls-5" points="292.72 142.57 305.31 121.66 331.17 116.1 348.36 135.11 344.75 158.75 325.58 168.36 303.22 163.46 292.72 142.57 292.72 142.57"/>
    <polygon class="cls-7" points="315.27 136.95 311.37 143.55 315.86 151.52 322.29 153.12 329.38 149.2 331.47 140 325.18 134.18 315.27 136.95 315.27 136.95"/>
    <line class="cls-7" x1="331.47" y1="140" x2="348.36" y2="135.11"/>
    <line class="cls-7" x1="329.38" y1="149.2" x2="344.75" y2="158.75"/>
    <line class="cls-7" x1="322.29" y1="153.12" x2="325.58" y2="168.36"/>
    <line class="cls-7" x1="315.86" y1="151.52" x2="303.22" y2="163.46"/>
    <line class="cls-7" x1="311.37" y1="143.55" x2="292.72" y2="142.57"/>
    <line class="cls-7" x1="315.27" y1="136.95" x2="305.74" y2="121.59"/>
    <line class="cls-7" x1="325.18" y1="134.18" x2="331.17" y2="116.1"/>
  </g>
  <path class="cls-14" d="M416.43,305.7c-26.28-23.53-64.58-30.59-95.79-31.36-41.64-1.03-76.02-1.71-118.5-2.73-7.18-.17-13.33-5.21-14.9-12.22l-15.32-68.39c-3.72-16.61-18.27-28.55-35.28-28.97l-63.21-1.56c.39,5.14,10.44,46.7,15.46,62.46,8.35,26.22,20.26,29.58,20.06,37.62-.05,2.1-1.21,3.91-2.54,5.63-5,6.51-9.55,13.34-9.75,21.54h0c-.31,12.5,7.07,23.94,18.61,28.74,45.77,19.03,157.51,53.07,208.72,54.33,47.75,1.18,76.59-13.98,89.53-25.81l2.9-39.29Z"/>
  <circle class="cls-2" cx="200" cy="365" r="5.8"/>
  <circle class="cls-2" cx="846.95" cy="365" r="5.8"/>
  <path class="cls-4" d="M175.87,207.44c40.96-14.24,82.72,6.95,82.72,6.95l-20.86,57.59c-11.42-.26-23.16-.08-35.59-.38-7.18-.17-13.33-5.21-14.9-12.22l-11.37-51.95Z"/>
  <path class="cls-7" d="M181.78,232.58c7.76-2.35,16.24-3.43,25.24-3.2,19.58.48,36.46,6.94,42.6,9.59"/>
  <path class="cls-7" d="M187.84,259.63c5.11-1.55,10.93-2.25,17.33-2.09,15.56.38,29.79,5.71,34.83,7.81"/>
  <polygon class="cls-4" points="416.23 308.41 413.83 342.04 463.7 346.6 466.25 310.98 416.23 308.41"/>
  <line class="cls-7" x1="464.92" y1="329.6" x2="481.14" y2="330.76"/>
  <path class="cls-4" d="M200,345.29c-25.97,23.49-74.53,25.93-93.28,25.47-13.31-.33-13.18-8.37-13.09-11.96.01-.46.31-12.02.32-12.49.29-11.77,10.07-21.08,21.84-20.79l24.77.61"/>
  <circle class="cls-13" cx="486.56" cy="331.15" r="5.44"/>
  <path class="cls-7" d="M104.38,287.45s162.41,28.01,290.78,37.18c5.2.37,19.82,1.42,19.82,1.42"/>
  <polygon class="cls-7" points="127.64 268.01 100.83 176.85 142.1 177.84 163.14 269.33 127.64 268.01"/>
  <path class="cls-7" d="M140.56,326.12c17.2,6.14,37.87,12.86,59.44,19.17"/>
  <g>
    <line class="cls-7" x1="413.14" y1="351.68" x2="416.73" y2="301.4"/>
    <line class="cls-7" x1="425.37" y1="356.23" x2="429.55" y2="297.73"/>
    <line class="cls-7" x1="437.59" y1="360.79" x2="442.36" y2="294.06"/>
    <line class="cls-7" x1="449.82" y1="365.35" x2="455.17" y2="290.39"/>
    <line class="cls-7" x1="467.98" y1="286.72" x2="462.04" y2="369.91"/>
  </g>
  <g>
    <path class="cls-7" d="M201.46,323.9c-1.55,3.43,0,4.96,1.4,5.05,1.62.1,3.66-.3,5.85-5.12.41-.92,1.66-3.65,2.94-6.48.98-2.16.24-3.8-1.55-4.35-2.13-.46-4.18,1.07-5.18,3.29l-3.45,7.61Z"/>
    <path class="cls-7" d="M178.56,320.11c-1.55,3.43-.3,5,1.04,5.26,1.59.31,4.03-.52,6.21-5.33l2.94-6.48c.98-2.16.24-3.8-1.55-4.35-2.13-.46-4.18,1.07-5.18,3.29l-3.45,7.61Z"/>
    <path class="cls-7" d="M193.25,314.89c1.57-3.43,4.16-4.18,5.42-3.76,1.45.48,2.83,1.53.62,6.34-.42.91-1.5,3.31-2.79,6.13-.99,2.16-3.16,3.62-5.13,3.46-2.18-.36-2.45-2.7-1.43-4.92l3.31-7.26Z"/>
    <path class="cls-7" d="M224.92,317.59c-.32-1.27-1.02-2.42-2.77-2.75s-4.97,1.03-6.6,4.59c-1.13,2.46-.62,4.58,1.24,5.21,2.39.82,4.31-.24,4.31-.24l-3.92,6.55-4.95-.89"/>
  </g>
  <path class="cls-7" d="M365.27,341.31l-3.94-.64c-.68-.11-1.34-.08-1.97.08-.63.17-1.22.49-1.77.97-.55.48-.99,1.11-1.34,1.88-.2.55-.26,1.11-.18,1.67.08.56.3,1.05.67,1.47s.83.67,1.42.77l4.15.68,6.6-15.59h.05s-6.63,15.64-6.63,15.64l-4.17-.68c-.59-.1-1.07-.35-1.43-.77-.37-.42-.6-.92-.68-1.5-.09-.59-.03-1.15.17-1.69.35-.78.8-1.42,1.35-1.9.55-.48,1.14-.81,1.79-.98.65-.17,1.31-.2,1.99-.09l3.94.64v.05Z"/>
  <path class="cls-7" d="M343.04,346.14l.03-.02,6.59.83,6.61-15.54-6.59-.83-.02-.03.03-.02,6.63.83-6.63,15.63-6.63-.83-.02-.03ZM347.54,338.54l.03-.02,5.43.64.02.03-.03.02-5.43-.64-.02-.03Z"/>
  <path class="cls-7" d="M336.63,329.09l-2.04,16.29,11.16-14.8.02.03-11.23,14.91,2.04-16.43h.05ZM335.6,336.97l4.73.8v.05s-4.74-.8-4.74-.8v-.05Z"/>
  <path class="cls-7" d="M324,331.54l-.02-.03c.32-.77.74-1.44,1.27-2.01.53-.56,1.12-.97,1.77-1.23.65-.26,1.31-.33,1.98-.22.88.14,1.52.56,1.9,1.24.39.68.48,1.68.28,3-.2,1.32-.74,2.96-1.62,4.93-.81,1.87-1.6,3.36-2.37,4.47s-1.52,1.89-2.25,2.34c-.73.44-1.48.6-2.23.48-.74-.12-1.33-.44-1.78-.94-.44-.51-.69-1.14-.74-1.88-.05-.75.11-1.54.48-2.36l.03-.02.02.03c-.37.83-.53,1.61-.48,2.35.05.74.3,1.36.73,1.86.43.5,1.01.81,1.74.93.76.12,1.5-.03,2.22-.47s1.46-1.21,2.22-2.32,1.55-2.59,2.36-4.46c.88-1.97,1.41-3.6,1.61-4.9.2-1.3.11-2.29-.28-2.97-.38-.68-1-1.09-1.87-1.23-.67-.11-1.32-.03-1.97.23-.65.26-1.23.67-1.76,1.22-.53.56-.94,1.22-1.24,1.98l-.03.02Z"/>
  <path class="cls-7" d="M306.97,342.18l.03-.02,6.59.83,6.61-15.54-6.59-.83-.02-.03.03-.02,6.63.83-6.63,15.63-6.63-.83-.02-.03ZM311.47,334.59l.03-.02,5.43.64.02.03-.03.02-5.43-.64-.02-.03Z"/>
  <path class="cls-7" d="M299.84,333.22l.03-.02,6.29.78.02.03-.03.02-6.29-.78-.02-.03Z"/>
  <path class="cls-7" d="M297.95,325.74l.02.03-6.68,15.65-1.37-8.25-7.73,6.79,6.7-15.67.03-.02.02.03-6.63,15.49,7.64-6.7,1.33,8.19,6.63-15.51.03-.02Z"/>
  <path class="cls-7" d="M273.37,322.48l-2.04,16.29,11.16-14.8.02.03-11.23,14.91,2.04-16.43h.05ZM272.34,330.36l4.73.8v.05s-4.74-.8-4.74-.8v-.05Z"/>
  <path class="cls-7" d="M254.62,336.52l10.89-7.63.02.05-10.89,7.63-.02-.05ZM260.94,321.08l.34,10.75h-.05s-.34-10.76-.34-10.76h.05ZM268.47,322.31l-6.62,15.59h-.02s6.62-15.59,6.62-15.59h.02Z"/>
  <path class="cls-7" d="M241.87,335.17l.03-.02,6.59,1.08,6.61-15.54-6.59-1.08-.02-.03.03-.02,6.63,1.09-6.63,15.63-6.63-1.08-.02-.03ZM246.38,327.57l.03-.02,5.43.89.02.03-.03.02-5.43-.89-.02-.03Z"/>
  <path class="cls-7" d="M239.95,327.69l-.03.02-3.9-.64c-.77-.13-1.5-.04-2.18.25-.68.29-1.26.72-1.74,1.29-.47.57-.8,1.18-.99,1.83-.12.55-.13,1.06-.01,1.52.11.46.35.85.7,1.15.36.3.81.5,1.37.59l3.9.64,6.59-15.57.03-.02.02.03-6.63,15.61-3.92-.64c-.57-.09-1.03-.3-1.39-.61-.35-.31-.59-.7-.71-1.16-.12-.47-.12-.98,0-1.55.19-.67.52-1.28,1-1.85.48-.56,1.06-1,1.75-1.3.68-.3,1.42-.39,2.21-.26l3.9.64.02.03ZM237.37,317.71l.02.03-1.08,9.35s-.01.02-.03.02l-.02-.03,1.08-9.35.03-.02Z"/>
  <path class="cls-7" d="M237.72,272.44c-11.42-.26-23.15-.53-35.58-.82-7.18-.17-13.33-5.21-14.9-12.22l-11.63-51.89"/>
  <circle class="cls-2" cx="915.59" cy="305.92" r="5.8"/>
  <circle class="cls-2" cx="890.87" cy="326.54" r="5.8"/>
  <circle class="cls-2" cx="909.79" cy="296.43" r="5.8"/>
  <g>
    <path class="cls-15" d="M896.35,329.37c2.89-2.73,5.88-5.34,8.68-8.16,4.84-5.02,10.6-11.76,18.35-10.17,5.36,1.33,9.81,5.63,12.65,10.23,2.47,4,3.52,8.62,4.51,13.17.79,3.6,1.69,7.23,3.08,10.64.92,2.38,2.05,4.69,2.59,7.19,1.06,5.11-.37,10.76-3.68,14.77-2.16,2.52-5.48,3.73-8.76,3.54-2.65-.09-5.12-1.02-7.63-1.85-3.94-1.41-8.06-1.8-12.23-1.75-7.9-.12-15.67,1.72-23.38,3.2-3.8.79-7.73,1.05-11.6.88-1.6-.07-3.28-.22-4.79-.69-4.96-1.33-7.46-6.88-6.39-11.68,1.28-5.73,7.12-9.5,11.2-13.23,5.83-5.34,11.62-10.72,17.42-16.08"/>
    <path class="cls-7" d="M943.41,352.16c-2.41.07-5.15.37-7.09-1.3-3.38-3.2-2.73-11.72-2.49-16.46"/>
    <path class="cls-7" d="M929.44,369.77c-3.85-1.32-10.48-5.25-10.62-9.94"/>
  </g>
  <g>
    <path class="cls-2" d="M512.56,366.77c.11-.25.26-.47.4-.71.17-.3.25-.35.06-.59-.2-.26-.57-.47-.82-.68-.29-.24-.86-.75-1.15-.99-.07-.06-.39-.25-.41-.34l-.36-1.66-4.87.59-.95.12-.04,4.18s.27,3.22.8,3.74,1.68.32,1.68.32l3.8-.22s.87.19,1.09-.42c.34-.95.23-1.74.22-1.74-.1-.66.31-1.01.56-1.58Z"/>
    <path class="cls-7" d="M512.47,366.74l-1.86,2.17s-.72.27-.9-.42,1.13-2.44,1.13-2.44c0,0-1.6-.87-2.1-1.64"/>
    <path class="cls-2" d="M527.71,346.88l4,1.21-.07.59c.2,1.23.25,2.48.33,3.72.06.93.27,1.83.35,2.76l-1.57.59c1.73,3.47,5.11,11.11,13.05,7.51s4.44-14.04,4.44-14.04l-3.2,1.19,1.13-3.41-2.04.27s-1.65-4.47-4.57-3.76l-1.02.12,2.21-2.93-13.04,6.17Z"/>
    <rect class="cls-2" x="459.32" y="282.68" width="62.1" height="3.02" transform="translate(-55.43 436.92) rotate(-45.73)"/>
    <path class="cls-2" d="M539.86,330.84l-8.63-16.98c-.65-1.28-1.39-3.5-1.61-4.92-2.69-17.64-14.98-30.97-18.15-34.15-.47-.47-.63-1.14-.45-1.77l1.06-3.73c.18-.64,0-1.33-.48-1.79l-1.37-1.34-8.94,9.17,13.17,19.25,2.05,17.66-2.51,2.57-15.79-5.01-16.5-14.4-9.51,9.76,1.29,1.28c.47.46,1.71,1.16,2.34.97l4.04-1.24c.45-.14.93.03,1.19.42,1.89,2.88,9.8,13.86,26.5,17.8,4.91,2.38,6.03,2.87,6.03,2.87l5.14,12.64-9.69,4.22c-2.82.97-4.7,3.62-4.68,6.6l.08,11.79,7.13-.87.38-10.27,15.57-4.3,16.77-7.94,11.31-6.04,13.19-1.59.63-6.41s-7.54-1.12-16.85,1.64c-9.32,2.76-12.73,4.13-12.73,4.13Z"/>
    <line class="cls-7" x1="504.45" y1="362.5" x2="511.58" y2="361.63"/>
    <polyline class="cls-7" points="531.72 348.33 529.72 334.73 527.49 343.4 529.68 343.93 527.53 347.06"/>
    <polyline class="cls-7" points="541.19 340.6 536.97 339.85 538.04 337.52 529.72 334.73 538.88 343.66"/>
    <path class="cls-7" d="M529.72,334.73s-3.13-6.47-6.4-11.56c-3.27-5.09-8.2-9.5-8.2-9.5l-6.87,10.49"/>
    <polyline class="cls-7" points="520.07 318.47 516.52 312.23 528.74 307.3"/>
    <path class="cls-7" d="M538.54,343.63c-1.83.9-4.2,2.11-4.48,3.56"/>
    <path class="cls-7" d="M534.73,354.26s-.1-.34-.44-1.23-.32-1.87.89-2.42"/>
    <line class="cls-7" x1="543.17" y1="349.98" x2="541.7" y2="350.39"/>
    <line class="cls-7" x1="543.13" y1="345.65" x2="540.96" y2="345.98"/>
    <path class="cls-2" d="M568.81,331.49l2.65-.1c.28-.01,1.14.88,1.44,1.07.55.36,1.48.96,2.18.91s.85-.81.82-1.48c0,0,1.28.41,1.63-.13s.26-.92.49-1.63c.23-.71.46-1.12.35-2.26s-.93-2.76-.93-2.76c-.62-.55-4.71-.31-4.71-.31l-3.29.27-.63,6.41Z"/>
    <path class="cls-7" d="M508.97,364.7s-1.7-.17-2.73.55c-1.03.73-.92,1.5-.92,1.5"/>
    <polyline class="cls-7" points="523.16 309.56 522.05 300.78 527.01 299.18"/>
    <polyline class="cls-7" points="511.35 319.42 503.74 316.64 500.49 322.12"/>
    <line class="cls-7" x1="568.81" y1="331.49" x2="569.44" y2="325.08"/>
    <path class="cls-7" d="M537.15,353.32c-1.56-1.46-2.27-5.27-2.42-7.28"/>
    <path class="cls-7" d="M539,352.52c-1.09-.91-2.18-7.08-2.21-7.84"/>
    <line class="cls-7" x1="530.76" y1="355.74" x2="548.24" y2="349.22"/>
    <path class="cls-7" d="M505.35,281.27c2-2.05,3.83-4.3,5.96-6.12"/>
    <path class="cls-7" d="M480.69,306.33c1.23-1.33,2.67-2.43,3.9-3.77l2.18-2.24"/>
    <path class="cls-7" d="M475.71,307.44c.34-1.2-.6-2.38-1.24-3.29-.01.2.08.37.27.51"/>
    <line class="cls-7" x1="475.33" y1="305.23" x2="483.02" y2="297.34"/>
    <path class="cls-7" d="M484.82,302.32c-1.21-1.45-4.2-2.13-5.58-.63"/>
    <path class="cls-7" d="M512.06,270.15c-1.48,1.21-2.43.9-3.61-.3"/>
    <line class="cls-7" x1="508.82" y1="270.88" x2="502.74" y2="277.12"/>
    <path class="cls-7" d="M507.52,278.34c-1.62-1.24-1.21-4.17.05-5.46"/>
    <line class="cls-7" x1="469.79" y1="307.63" x2="513.14" y2="263.17"/>
    <path class="cls-7" d="M574.27,331.03c-.42-.4-1.04-.79-1.09-1.4s.51-1.19.65-1.76c.18-.73.02-1.55.23-2.25"/>
    <path class="cls-7" d="M531.72,331.97c-1.66-1.49-2.54-4.91-3.44-6.97,1.52-1.51,3.53-1.86,5.35-2.75.46,2.84,2.06,4.67,2.69,7.29"/>
    <path class="cls-7" d="M526.69,335.08c-1.98-1.89-3.42-4.3-4.96-6.53-1.25,1.33-3.37,1.77-4.4,3.15,1.16,2.24,2.02,4.53,3.43,6.5"/>
    <path class="cls-7" d="M509.78,366.77c-.51-.18-1.05-.34-1.55-.1-.31.15-.59.47-.9.58-.59.21-1.74-.03-2.03.74"/>
    <path class="cls-7" d="M532.06,355.03c-1.14-1.35.35-2.85,0-4.29"/>
    <path class="cls-7" d="M531.51,344.8c.51-2.86,2.58-2.72,4.76-3.49"/>
  </g>
  <g>
    <polygon class="cls-12" points="415.67 241.6 398.48 292.98 358.04 261.76 375.56 204.07 415.67 241.6 415.67 241.6"/>
    <polyline class="cls-7" points="375.56 204.07 382 229.36 375.58 255.75 358.04 261.76"/>
    <polyline class="cls-7" points="375.58 255.75 392.76 270.44 398.48 292.98"/>
    <polyline class="cls-7" points="392.76 270.44 399.52 245.57 415.67 241.6"/>
    <line class="cls-7" x1="399.52" y1="245.57" x2="382" y2="229.36"/>
  </g>
  <g>
    <polygon class="cls-12" points="1002.86 371.08 1029.38 356.03 1032.45 330.48 1016.14 312.54 993.85 311.8 963.04 325.74 954.65 349.14 978.53 371.08 1002.86 371.08"/>
    <polyline class="cls-7" points="963.04 325.74 985.79 336.51 999.72 329.73 993.85 311.8"/>
    <polyline class="cls-7" points="999.72 329.73 1009.97 332.16 1016.14 312.54"/>
    <polyline class="cls-7" points="1010.37 345.81 997.36 351.42 1002.86 371.08"/>
    <polyline class="cls-7" points="997.36 351.42 989.45 351.54 985.79 347.33 985.79 336.51"/>
    <line class="cls-7" x1="985.79" y1="347.33" x2="954.65" y2="349.14"/>
    <line class="cls-7" x1="989.45" y1="351.54" x2="978.53" y2="371.08"/>
  </g>
  <g>
    <polygon class="cls-6" points="322.23 167.91 371.36 222.95 333.26 275.11 268.77 273.16 247.36 240.35 274.21 177.81 322.23 167.91 322.23 167.91"/>
    <polyline class="cls-7" points="274.21 177.81 294.88 204.84 314.57 201.08 322.23 167.91"/>
    <polyline class="cls-7" points="314.57 201.08 333.12 225.28 371.36 222.95"/>
    <polyline class="cls-7" points="333.12 225.28 323.17 239.45 333.26 275.11"/>
    <polyline class="cls-7" points="323.17 239.45 295.35 238.62 268.77 273.16"/>
    <polyline class="cls-7" points="295.35 238.62 280.94 230.92 247.36 240.35"/>
    <line class="cls-7" x1="280.94" y1="230.92" x2="294.88" y2="204.84"/>
  </g>
  <g>
    <polygon class="cls-2" points="76.99 340.56 54.5 290.17 10.51 301.04 -5.5 346.28 10.02 370.86 57.71 370.86 76.99 340.56 76.99 340.56"/>
    <polyline class="cls-7" points="57.71 370.86 45.74 348.51 53.45 335.99 76.99 340.56"/>
    <polyline class="cls-7" points="53.45 335.99 42.74 315.95 54.5 290.17"/>
    <polyline class="cls-7" points="23.99 338.14 25.12 350.41 10.02 370.86"/>
    <line class="cls-7" x1="25.12" y1="350.41" x2="45.74" y2="348.51"/>
    <polyline class="cls-7" points="42.74 315.95 30.9 318.63 23.99 338.14 -5.5 346.28"/>
    <line class="cls-7" x1="30.9" y1="318.63" x2="10.51" y2="301.04"/>
  </g>
  <circle class="cls-2" cx="430.58" cy="365" r="5.8"/>
  <circle class="cls-2" cx="401.5" cy="365" r="5.8"/>
  <circle class="cls-2" cx="400.33" cy="353.87" r="5.8"/>
  <circle class="cls-2" cx="381.16" cy="365" r="5.8"/>
  <circle class="cls-2" cx="346.73" cy="365" r="5.8"/>
  <circle class="cls-2" cx="335.13" cy="365" r="5.8"/>
  <circle class="cls-2" cx="320.59" cy="365" r="5.8"/>
  <circle class="cls-2" cx="327.86" cy="356.16" r="5.8"/>
</svg>