<?xml version="1.0" encoding="UTF-8"?>
<svg id="Layer_1" data-name="Layer 1" xmlns="http://www.w3.org/2000/svg" viewBox="0 0 60.78 62.16">
  <defs>
    <style>
      .cls-1 {
        fill: none;
        stroke: #ec6471;
        stroke-linecap: round;
        stroke-linejoin: round;
        stroke-width: 2px;
      }

      .cls-2 {
        fill: #f48992;
      }
    </style>
  </defs>
  <path class="cls-2" d="M60.76,43.73c.13,1.59-.71,3.03-1.01,4.35-.34,1.49-.27,3.11-1.05,4.3s-2.35,1.79-3.5,2.73-1.96,2.3-3.29,2.97-2.94.53-4.34,1-2.63,1.56-4.03,1.87c-1.48.33-3.07-.15-4.45.04-1.58.22-3,1.08-4.3,1.16-1.99.12-3.57-.62-4.4-.66-.84.04-2.42.78-4.41.66-1.3-.08-2.71-.95-4.29-1.16-1.38-.19-2.97.29-4.45-.04s-2.64-1.4-4.03-1.87-3.05-.34-4.34-1-2.18-2.07-3.29-2.97-2.7-1.51-3.5-2.73-.71-2.8-1.05-4.3c-.3-1.32-1.14-2.77-1.01-4.35.91-11.21,3.98-23.84,13.91-30.3,4.65-2.94,9.53-5.01,16.47-5.01,6.94,0,11.81,2.07,16.47,5.01,9.92,6.45,13,19.09,13.91,30.3Z"/>
  <polygon class="cls-2" points="41.28 13.71 41.28 13.71 45.21 0 17.58 0 21.5 13.71 21.5 13.71 41.28 13.71"/>
  <path class="cls-1" d="M20.47,10.11c2.88-1.06,6.08-1.69,9.91-1.69,4.65,0,8.37.93,11.72,2.43"/>
  <g>
    <line class="cls-1" x1="21.47" y1="2.06" x2="22.48" y2="6.79"/>
    <line class="cls-1" x1="28.08" y1="2.06" x2="28.33" y2="5.83"/>
    <line class="cls-1" x1="34.69" y1="2.06" x2="34.39" y2="6.06"/>
    <line class="cls-1" x1="41.3" y1="2.06" x2="40.16" y2="7.33"/>
  </g>
  <g>
    <path class="cls-1" d="M12.63,17.62c-5.12,6.91-6.94,16.98-7.55,26.11l-.64,7.24"/>
    <path class="cls-1" d="M21.49,14.37c-4.44,6.69-5.86,18.67-6.29,29.36l-.69,13.07"/>
    <path class="cls-1" d="M27.63,13.5c-1.64,6.47-2.15,19.06-2.3,30.23l-.27,15.53"/>
    <path class="cls-1" d="M33.17,13.57c1.63,6.49,2.14,19.03,2.29,30.17l.27,15.53"/>
    <path class="cls-1" d="M39.46,14.63c4.3,6.73,5.69,18.55,6.12,29.1l.69,13.07"/>
    <path class="cls-1" d="M48.83,18.59c4.6,6.86,6.28,16.43,6.87,25.14l.65,7.43"/>
  </g>
</svg>