<?xml version="1.0" encoding="UTF-8"?>
<svg id="Layer_1" data-name="Layer 1" xmlns="http://www.w3.org/2000/svg" viewBox="0 0 67.24 40.76">
  <defs>
    <style>
      .cls-1 {
        fill: none;
        stroke: #4d315c;
        stroke-linecap: round;
        stroke-linejoin: round;
        stroke-width: 2px;
      }

      .cls-2 {
        fill: #e3dade;
      }
    </style>
  </defs>
  <g>
    <path class="cls-2" d="M49.24,29.18l14.2-10.96c4.26-3.29,5.06-9.41,1.77-13.68l-.58-.75c-3.29-4.26-9.41-5.06-13.68-1.77l-14.2,10.96c-6.71,5.17-12.41,5.18-16.38,5.54L0,20.39l1.86,20.37,20.37-1.86c5.29-.48,6.9-.36,10.17.4,3.27.77,8.2,2.18,10.17-2.53,1.97-4.71,6.66-7.59,6.66-7.59Z"/>
    <g>
      <line class="cls-1" x1="2.72" y1="32.88" x2="16.04" y2="31.66"/>
      <line class="cls-1" x1="2.27" y1="27.98" x2="15.59" y2="26.76"/>
      <line class="cls-1" x1="3.17" y1="37.78" x2="16.49" y2="36.56"/>
      <line class="cls-1" x1="1.83" y1="23.08" x2="15.15" y2="21.86"/>
    </g>
  </g>
  <path class="cls-1" d="M29.82,35.75c-.06-2.36-.39-4.35.82-6.5,3.09-5.49,10.93-5.61,15.18-1.19"/>
</svg>