<?xml version="1.0" encoding="UTF-8"?>
<svg id="Layer_1" data-name="Layer 1" xmlns="http://www.w3.org/2000/svg" viewBox="0 0 82.93 85.8">
  <defs>
    <style>
      .cls-1 {
        fill: #1c9b79;
      }

      .cls-2 {
        fill: none;
        stroke: #47385c;
        stroke-linecap: round;
        stroke-linejoin: round;
        stroke-width: 2px;
      }
    </style>
  </defs>
  <rect class="cls-1" x="3.56" y="82.36" width="42.98" height="3.43"/>
  <path class="cls-1" d="M34.83,10.3l1.31,3.92-1.53.27c.29,1.03.27,3.02-.35,3.95-.67,1.01-3.39.99-4.48,1.05-2.44.14-4.12-.04-5.58-2.25-.63-.97-.96-1.97-1.43-4.35l-1.09.23S18.17,2.95,26.68.4c8.51-2.55,10.49,7.82,10.8,9.33l-2.65.57Z"/>
  <rect class="cls-1" x="24.74" y="17.81" width="8.88" height="4.31"/>
  <g>
    <polygon class="cls-1" points="27.68 51.24 18.28 55.88 16.67 49.18 32.11 45.42 37.49 41.39 81.04 30.13 81.93 33.73 51.21 41.7 51.21 41.7 36.69 45.55 27.68 51.24"/>
    <polyline class="cls-1" points="79.16 30.61 78.64 28.57 76.28 29.09 74.66 31.78"/>
  </g>
  <path class="cls-1" d="M63.34,38.46c0-1.09-.95-.51-1.54-.51s-1.81-.22-1.81-1-.85-.47.14-1.18c0,0,.93-.46.63-1.2-.21-.53-.93-.46-1.53-.18-.54.25-2.59.71-2.59.71-2.07-.18-2.91,1.3-2.91,1.3l-8.9-4.15-1.73-7.08c-.67-3.23-2.75-5.16-6.24-5.16h-1.37c.14-.38.3-.75.47-1.11.1-.2-.05-.43-.28-.43h-2.58s-.56,1.54-.56,1.54c-1.51,0-3.05,0-3.96,0h-3.32s-.69-1.54-.69-1.54h-1.57c-.2,0-.37.17-.36.38l.07,1.19c-6.24.19-13,1.7-13,13.66,0,2.98.1,7.73,4.24,11.2-.07.25-.93,3.16-.85,3.4.24.73,3.92,2.14,4.69,2.33.52,1.46,1.32,2.94,2.57,4.33l-1.92,8.27L0,75.78s.8,2.72,2.19,2.72.97,3.86,3.06,3.86h8.9s0-2.03,0-2.03l-4.18-3.39c10.28-3.6,17.18-9.15,21.42-15.54,2.01.92,2.04.93,2.04.93l-5.63,20.03h15.76s.03-3.1.03-3.1l-6.76-1.91c1.74-2.41,5.36-8.3,4.75-14.71-.42-4.41-3.38-7.76-6.1-9.95.28-.95.52-1.91.71-2.88l2.42-.77v-9.98s-1.75,0-1.75,0v-10.43c2.2,10.03,8.28,11.24,12.6,10.7,2.67-.33.37,2.72.37,2.72.57-.16,1.14-.31,1.71-.47.29-.08.57-.16.86-.23.25-.07.62-.29.83-.04.05.06.09.14.14.21.13.19.31.24.5.33.25.13.52.23.79.31.38.12.78.16,1.15.29.37.14.68.46,1.11.3.22-.08.33-.25.57-.31.36-.09.71-.13,1.06-.28.37-.17.75-.32,1.14-.41,1.71-.38,3.08-1.02,3.49-2.56l.12-.15c.41-.22.06-.24.06-.6Z"/>
  <path class="cls-2" d="M19.74,20.24c.19,2.08,1.08,4.52,1.55,6.31.77,2.93,1.75,5.89,2.21,8.86.22,1.41.47,3.83.46,5.29"/>
  <path class="cls-2" d="M27.64,51.35c1.18.43,2.12,1.72,3.37,1.9-.47,1.14-1.67,2.02-2.55,2.9s-1.62,1.9-2.56,2.65"/>
  <path class="cls-2" d="M29.12,28.64c-.09,1.48-.6,4.23-.6,6.45,0,1.94,0,3.87,0,5.81"/>
  <path class="cls-2" d="M9.57,76.79c-3.37-.12-2.98-3.56-2.91-5.55"/>
  <path class="cls-2" d="M30.12,74.77s4.38.1,7.22.92"/>
  <path class="cls-2" d="M34.04,40.14c.04-2.83-.07-5.87.76-8.38.95-2.88,2-4.16,2.4-7.25.19-1.46,0-2.95,0-4.43"/>
  <path class="cls-2" d="M26.01,21.7s1.2.85,2.81.85c1.61,0,2.76-.85,2.76-.85"/>
  <path class="cls-2" d="M26.56,12.25c0,2.58.76,5.03,1.97,7.2"/>
  <path class="cls-2" d="M28.34,11.7c0,2.67.78,5.53,2.32,7.75"/>
  <path class="cls-2" d="M24.38,12.58c0,1.32.63,2.89,2.1,2.45"/>
  <path class="cls-2" d="M13.85,22.43c1.59,1.65,3.16,3.9,3.16,6.4l.02,9.44,12.25,5.38-.82,5.53c-7.34-.3-11.8-2.02-14.53-4.3"/>
  <path class="cls-2" d="M29.28,43.65c1.25.43,1.32.51,2.09.51,0,0,.51-1.05,1.53-1.52,1.52-.69,1.86.26,2.57.26"/>
  <line class="cls-2" x1="37.48" y1="9.73" x2="21.69" y2="13.13"/>
  <path class="cls-2" d="M31.37,61.39c-1.11-.51-2.83-1.3-5.47-2.51-2.46-1.13-4.25-2.49-5.56-3.95"/>
  <path class="cls-2" d="M21.57,40.26c1.4.26,3.8.67,5.2.9.72.12,1.46.2,2.19.16,1.33-.06,2.71-.36,3.98-.76,1.33-.41,2.84-1.49,5.66-1.49"/>
  <path class="cls-2" d="M22.7,20.02c.06,1.09.25,2.15.5,3.22.19.82.16.95.99.87.28-.03.59-.04.85-.11-.22.42-.63.93-.68,1.4-.04.32.17.64.17.64.15.16.27.29.41.45,1.1,1.18,2.78,3.38,3.96,4.39"/>
  <polyline class="cls-2" points="32.53 19.89 29.12 28.64 25.25 19.99"/>
  <path class="cls-2" d="M28.89,30.89c.71-.87,2.38-2.44,3.14-3.29.52-.57.92-1.22,1.29-1.9.21-.38.4-.56.23-.97-.14-.35-.45-.6-.57-.96.41-.12,1-.38,1.34-.64.38-.29.44-.86.56-1.31.17-.61.36-1.23.59-1.83"/>
  <polyline class="cls-2" points="36.69 45.55 38.6 45.04 51.21 41.7"/>
  <polyline class="cls-2" points="20.84 48.17 16.41 49.25 18.28 55.88 27.68 51.24 30.1 49.71"/>
  <polyline class="cls-2" points="37.49 41.39 81.04 30.13 81.5 32.03 50.78 40.01"/>
  <line class="cls-2" x1="81.93" y1="33.73" x2="51.21" y2="41.7"/>
  <line class="cls-2" x1="50.29" y1="38.08" x2="51.21" y2="41.7"/>
  <path class="cls-2" d="M34.25,15.85c-.74,0-1.59.3-2.13-.29"/>
  <path class="cls-2" d="M33.68,19.15s-.42.38-.94.55c-1.96.64-6.82,1.02-7.96-2.16"/>
  <path class="cls-2" d="M25.25,19.99c0-.64-.47-1.68-.47-2.45,0-.23-.18-.5-.33-.65-.34-.34-.82-.68-1.04-1.11-.47-.92-.35-1.9-.62-2.89"/>
  <path class="cls-2" d="M41.35,78.63c-1.47.38-1.9,2.76-1.9,3.69"/>
  <path class="cls-2" d="M12.34,79.44c-1.58-.1-3.98.74-4.56,2.2"/>
  <path class="cls-2" d="M1.92,74.47c-.03.64.8,2.07,1.24,2.41.46.36.68.81.92,1.33.51,1.07,2.03,3.53,2.98,4.32"/>
  <path class="cls-2" d="M5.24,82.54c.12,0,40.53,0,40.53,0"/>
  <path class="cls-2" d="M28.75,80.17h.6s10.47.2,10.47.2"/>
  <path class="cls-1" d="M55.58,41.35c.09-.14.33-.24.46-.37.09-.09.19-.17.27-.25.16-.17.36-.41.49-.61.17-.26.24-.62.38-.92.11-.25.24-.58.53-.68.35-.12.54.08.82.22.28-.33.34-.71.78-.88.23-.09.8-.05.86.26.36-.19.51-.84,1.02-.8.17.01.39.17.5.3s.14.28.13.43c.52-.18.43-.62,1.02-.58.35.02.45.3.49.53.02.15,0,.4-.06.71-.15.8-.46,1.31-.46,1.31l-7.23,1.33Z"/>
  <path class="cls-2" d="M58.54,39.39c.01.24-.17.51-.27.71-.11.22-.21.45-.33.67-.15.25-.15.54-.3.8"/>
  <path class="cls-2" d="M60.2,38.81c.01.08-.03.14-.07.22-.12.25-.26.49-.38.74-.17.34-.27.71-.39,1.07-.05.15-.1.34-.2.45"/>
  <path class="cls-2" d="M61.71,38.57c0,.06-.02.08-.04.13-.11.23-.32.44-.45.66-.19.34-.33.68-.47,1.04"/>
  <path class="cls-2" d="M36.98,49.03c.43.04.92-.01,1.48-.2,3.36-1.12,1.37-4.09,2.55-4.43"/>
  <path class="cls-1" d="M29.59,49.41c.36.19,1.61.71,1.99.96.56.37,1.15.61,1.78.84.91.34,2.4,1.07,2.89-.11.14-.33.27-.38.42-.73.14-.31.16-.83.05-1.16-.27-.82-1.01-.92-1.7-1.21-.54-.23-1.05-.43-1.65-.47-.55-.04-.94.12-1.42.36-.21.11-.34.24-.5.37-.24.19-.88.05-1.19.16l-.68.98Z"/>
  <path class="cls-2" d="M28.46,49.18c2.33.52,3.83,3.01,6.53,3.01"/>
  <path class="cls-2" d="M32.11,48.98c.59.46,1.26.91,1.8,1.13.81.33,1.27.58,2.11.63"/>
  <path class="cls-2" d="M33.77,47.87c.63.35,1.24.79,1.64,1.01.34.19,1.05.27,1.45.3"/>
  <path class="cls-2" d="M37.49,41.39l-.81.61-3.76,2.82c.26.28.86.18,1.36.28,1.21.24,1.19.5,1.78.51.47.01,1.61-.17,1.96-.17.67,0,1.01.81.95,1.29-.07.57-1.2.95-1.74,1.09-.92.22-2.04.2-3.44.06l-.75-.33"/>
  <path class="cls-1" d="M33.92,43.13s-.95,1.34-.56,1.88.86.8,1.44,1-3.92.11-3.92.11l1.43-1.82s1.32-1.14,1.61-1.16Z"/>
  <path class="cls-2" d="M33.3,12.47c-.44-.02-1.18.3-1.18.3"/>
  <path class="cls-2" d="M39.12,79.99c-.99-.03-1.95-.07-2.92-.24-.67-.12-1.45-.15-1.88-.78-.82-1.19.38-2.57.74-3.65"/>
  <path class="cls-2" d="M8.14,80.21c-.5-.44-2.79-4.24-1.02-4.2"/>
</svg>