<?xml version="1.0" encoding="UTF-8"?>
<svg id="Layer_1" data-name="Layer 1" xmlns="http://www.w3.org/2000/svg" viewBox="0 0 80.15 93.82">
  <defs>
    <style>
      .cls-1 {
        fill: #1c9b79;
      }

      .cls-2 {
        fill: none;
        stroke: #47385c;
        stroke-linecap: round;
        stroke-linejoin: round;
        stroke-width: 2px;
      }
    </style>
  </defs>
  <path class="cls-1" d="M20.41,2.15l-.84,1.07c-1.07,1.95-1.31,4.02-1.78,6.16-.54,2.45-1.22,4.87-1.91,7.28-.95,3.36-.01,6.98,2.45,9.46l9.15,9.24s-2.5,12.61-4.07,15.63c-12.48,12.35-13.13,25.35-13.13,25.35l-3.03,10.82c-.26.92-.27,1.9-.02,2.83h0c.09.35.41.59.77.59h3.87c2.66,0,1.43-2.91,2.58-4.25,1.4-1.64.98-2.02,1.03-3.95.02-.98.71-4.46.71-4.46l4.73-9.59,11.3-8.8,7.62,11.69-5.12,16.57c-.05.16-.07.32-.07.49v2.3h12.95v-1.24c0-.71-.31-1.38-.85-1.84l-3.85-2.56c-.35-.3-.38-.84-.06-1.17,1.42-1.43,4.75-5.58,4.75-13.22,0-9.72-6.7-16.74-6.7-16.74l4.61-12.74s1.12,5.85,6.11,9.21c4.99,3.36,11.05,2.63,11.05,2.63v-6.39l-7.79-1.85s-1.85-4.93-3.25-8.58-2.86-4.26-2.86-4.26l-5.07-4.09.54-3.85,2.22,1.34s5.39-8.64-.49-12.13c-5.88-3.5-9.79.07-12.59,4.27l2.37,1.44-2.87,2.22,1.43,1.35s-1.49,3.83,0,5.24l-11.66-6.39-.54-9.63.69-1.03s4.31-1.68,5.29-3.14-.09-1.38-1-.77-1.99.46-2.37.46.99-3.9,1.61-4.36"/>
  <path class="cls-2" d="M24.69,7.12c-.38,0,.99-3.9,1.61-4.36"/>
  <path class="cls-2" d="M20.41,2.15l-.84,1.07c-1.07,1.95-1.31,4.02-1.78,6.16"/>
  <rect class="cls-1" x="1.22" y="90.95" width="51.32" height="2.88"/>
  <path class="cls-2" d="M40.7,24.93s1.57.07,2.09-1.85"/>
  <line class="cls-2" x1="33.73" y1="24.45" x2="35.4" y2="24.93"/>
  <path class="cls-2" d="M36.29,20.97l1.41.38"/>
  <polyline class="cls-2" points="43.66 27.75 36.77 38.07 36.56 28.73"/>
  <line class="cls-2" x1="33.85" y1="48.13" x2="32.48" y2="53.78"/>
  <polyline class="cls-2" points="45.87 29.54 44.86 34.65 42.05 34.42 43.93 36.61 38.65 39.44"/>
  <path class="cls-2" d="M34.29,27.62c1.49,1.41,4.3,1.09,4.3,1.09l2.11-1.85"/>
  <line class="cls-2" x1="33.35" y1="17.37" x2="46.43" y2="25.24"/>
  <polyline class="cls-2" points="21.16 53.37 30.07 58.74 32.48 53.78 35.01 59.17 42.79 56.27"/>
  <polyline class="cls-2" points="38.91 57.71 41.68 64.72 46.64 64.24"/>
  <polyline class="cls-2" points="24.94 56.27 19.73 63.12 15.97 60.36"/>
  <path class="cls-1" d="M66.56,47.62s1.67.7,2.49.92.91-.26.91-.79-1.6-1.1-2.72-1.77-1.27-.19-2.49.57-2.1.67-2.1.67h-1.09v4.79s5.82.61,6.74-.55-1.74-3.84-1.74-3.84Z"/>
  <path class="cls-1" d="M66.56,47.62l.08-2.57,1.6-1.8,10.91-.39v2.61l-7,.24s.31,2.52-1.86,2.52"/>
  <line class="cls-2" x1="62.64" y1="52.01" x2="65.5" y2="51.85"/>
  <polyline class="cls-2" points="69.95 49.39 66.64 48.41 66.62 45.71"/>
  <line class="cls-2" x1="66.29" y1="49.55" x2="69.22" y2="50.3"/>
  <line class="cls-2" x1="65.5" y1="50.84" x2="68.79" y2="51.46"/>
  <line class="cls-2" x1="79.15" y1="43.93" x2="69.22" y2="44.23"/>
  <polygon class="cls-1" points="67.83 43.7 66.95 42.86 66.45 43.43 66.84 44.82 67.83 43.7"/>
  <path class="cls-2" d="M22.82,5.67s1.07-3.21,1.99-4.06"/>
  <path class="cls-2" d="M21.06,4.83s.69-2.95,1.76-3.83"/>
  <polyline class="cls-2" points="36.77 38.07 35.55 41.1 32.69 33.11 34.32 32.18 32.19 30.61 32.66 26.73"/>
  <line class="cls-2" x1="22.09" y1="11.6" x2="17.26" y2="11.6"/>
  <g>
    <rect class="cls-2" x="31.51" y="40.34" width="3.46" height="7.64" transform="translate(8.53 -5.28) rotate(10.41)"/>
    <rect class="cls-2" x="36.73" y="41.3" width="3.46" height="7.64" transform="translate(8.79 -6.21) rotate(10.41)"/>
    <polyline class="cls-2" points="39.38 39.57 40.79 39.83 40.63 40.72 38 40.23 38.17 39.35 39.38 39.57"/>
    <rect class="cls-2" x="34.93" y="41.8" width="1.85" height="5.69" transform="translate(8.66 -5.74) rotate(10.41)"/>
    <rect class="cls-2" x="38.32" y="40.47" width="1.84" height=".9" transform="translate(8.04 -6.42) rotate(10.41)"/>
    <rect class="cls-2" x="32.84" y="38.62" width="2.67" height=".9" transform="translate(7.62 -5.53) rotate(10.41)"/>
    <rect class="cls-2" x="33.09" y="39.51" width="1.84" height=".9" transform="translate(7.78 -5.49) rotate(10.41)"/>
  </g>
  <path class="cls-2" d="M9.21,80.32c1.27.7,4.97.17,5.51-1.41"/>
  <path class="cls-2" d="M15.19,82.78c-2.31.1-1.94,4.59-3.17,5.04"/>
  <path class="cls-2" d="M13.43,89.58c-.98-1.76-4.72-1.45-5.98-.12"/>
  <path class="cls-2" d="M9.68,88.17c-1.56-.15-1.63-5.63-.35-6.33"/>
  <path class="cls-2" d="M35.6,84.07c1.13,1.33,4.84,2.12,5.98.47"/>
  <path class="cls-2" d="M47.21,87.47c-1.26-.18-2.59,1.02-2.7,2.23"/>
  <line class="cls-2" x1="34.54" y1="88.64" x2="44.4" y2="88.64"/>
  <path class="cls-2" d="M38.65,85.71c-.24,1.57,3.39,2.51,4.57,2.7"/>
  <path class="cls-2" d="M1,90.88h51.19"/>
  <path class="cls-1" d="M26.81,43.84l-2.05-.43c-.18-.04-.3-.22-.26-.4l.04-.2.23.05c.07.02.14-.03.16-.1l.22-1.03c.02-.07-.03-.14-.1-.16l-1.74-.37c-.07-.02-.14.03-.16.1l-.22,1.03c-.02.07.03.14.1.16l.23.05-.04.2c-.04.18-.22.3-.4.26l-.86-.18c-.49-.1-.96.21-1.06.69l-1.1,5.23c-.1.49.21.96.69,1.06l4.84,1.02c.49.1.96-.21,1.06-.69l1.1-5.23c.1-.49-.21-.96-.69-1.06Z"/>
  <line class="cls-2" x1="25.66" y1="43.6" x2="23.66" y2="50.47"/>
  <line class="cls-2" x1="70.36" y1="46.76" x2="71.01" y2="46.76"/>
</svg>