<?xml version="1.0" encoding="UTF-8"?>
<svg id="Layer_1" data-name="Layer 1" xmlns="http://www.w3.org/2000/svg" viewBox="0 0 84.83 72.75">
  <defs>
    <style>
      .cls-1 {
        fill: #1c9b79;
      }

      .cls-2 {
        fill: none;
        stroke: #47385c;
        stroke-linecap: round;
        stroke-linejoin: round;
        stroke-width: 2px;
      }
    </style>
  </defs>
  <line class="cls-2" x1="55.72" y1="28.2" x2="57.08" y2="39.51"/>
  <line class="cls-2" x1="53.09" y1="28.04" x2="55.09" y2="39.51"/>
  <g>
    <path class="cls-1" d="M32.85,66.27l1.75-.48c.41-.11.75-.4.93-.78l.7-1.51s-2.48-12.02-2.48-12.82,1.22-6.33,6.92-6.33c5.7,0,7.29,1.14,7.29,1.14-1.08-.83-1.74-1.38-1.74-1.38l.03-9.52s-.6.11-1.63,1.06l-5.22,3.77c-1.8,1.67-5.38,1.44-6.88-.51l-4.66-7.67,5.41-.81,3.95,2.55s3.97-7.62,5.73-10.06c1.76-2.44,4.65-3.15,7.03-3.15l17.72.43s-.11,4.12.02,7.5.58,6.15.69,9.29l-1.57.45,1.88,6.61,1.13-.35c.77,1.81.62,3.54,1.63,5.34,0,0-2.62.21-3.21.49,0,0,8.65,10.13,9.93,14.56.79,2.74.16,5.78-1.56,5.78s-5.34,0-7.75,0c-2.4,0-3.53-6.61-3.53-6.61l-6.53-7.73-14.94-3-.68,10.97,2.45,6.37h-15.09s.37-1.63.37-1.63c.22-.96.94-1.72,1.89-1.97Z"/>
    <polygon class="cls-1" points="66.85 37.45 68.42 36.99 70.23 36.47 72.63 42.85 69.86 43.7 68.73 44.05 66.85 37.45"/>
  </g>
  <path class="cls-1" d="M39.92,26.24c-1.18.06-2.39.41-3.64.41-.84,0-21.6.07-21.6.07v-3.45s3.86,0,3.86,0v-1.22s13.86,0,13.86,0l8.61.14,2.51.95h.96"/>
  <path class="cls-1" d="M49.29,19.76c-.79-.07-1.53-.21-2.03-.45-1.65-.82-1.22-3.75-1.22-3.75l-2.28-.41,1.07-3.21h-1.09s-.94-10.76,6.55-11.79c8.04-1.11,9.98,4.71,10.07,11.1l-.71.03c-.01.25-.02.51-.04.76-.04.84-.59,1.4-.88,2.15-.05.14-.16,1.8-.1,1.8,0,0,1.23,0,3.1,0,1.88,0,5.95,1.52,5.95,4.22"/>
  <line class="cls-2" x1="51.95" y1="22.52" x2="49.99" y2="19.78"/>
  <path class="cls-2" d="M67.35,20.21c0,2.57-.85,8.13-4.23,8.13-10.43,0-14.43-.9-14.43-.9v-4.5s6.76-.87,6.76-.87c1.28-.16,2.41-.9,3.09-2l1.4-2.28"/>
  <line class="cls-2" x1="60.38" y1="11.24" x2="43.75" y2="11.93"/>
  <path class="cls-2" d="M56.16,11.99c.53-.01.76.13.91.64.14.46.3,1.17.04,1.63s-.65.66-1.07.72"/>
  <path class="cls-2" d="M49.57,13.58c-.33,0-.77.08-1.07-.04"/>
  <path class="cls-1" d="M28.07,31.32c-.44-.7-.88-1.31-1.17-2.11-.49-1.36-.32-3.1-.19-4.52.08-.86.07-3.69,1.68-2.17.16-.38.29-.59.66-.67s.82.04.84.45c.34-.63,1.24-.73,1.56,0-.05-.63.58-.55.93-.25.38.33.67,1.23.75,1.73.34,2.08-.04,4.59-.04,6.69l-5.03.85Z"/>
  <path class="cls-1" d="M34.01,26.55v4.47h4.76s0-1.89,0-4.65"/>
  <path class="cls-2" d="M48.7,27.43c-.75-.06-1.28.33-2.07,1.26s-1.32,1.58-1.32,1.58c0,0-.5.73-1.04.2-.41-.4,0-.69,0-.69,0,0-.72.38-1.14,0s-.16-.85-.16-.85c0,0-.92.23-1.17,0s-.37-.87,0-1.18.83-1.31.83-1.31c-.68.19-1.65,1.25-2.44.75-1.63-1.04,1.59-2.1,2.19-2.35s.99-.68,1.48-1.13c.63-.57,1.17-1.23,2.02-1.19s2.17.1,2.91.47"/>
  <rect class="cls-1" x="0" y="23.79" width="14.67" height="2.58" transform="translate(14.67 50.15) rotate(180)"/>
  <polygon class="cls-1" points="6.9 23.79 5.92 22.04 4.47 22.04 4.47 23.79 6.9 23.79"/>
  <line class="cls-2" x1="4.47" y1="23.79" x2="4.47" y2="26.37"/>
  <line class="cls-2" x1="6.9" y1="23.79" x2="6.9" y2="26.37"/>
  <rect class="cls-1" x="24.72" y="69.87" width="59.11" height="2.88"/>
  <path class="cls-2" d="M47.97,45.49c1.39,1.07,3.48,2.6,5.77,4.04.47.29.91.61,1.38.82l2.21-3.59"/>
  <path class="cls-2" d="M56.54,41.72c.26,1.68.49,3.12.64,4.01.61,3.72.38,5.32.38,5.32,4.06.81,9.02-.69,10.73-1.51"/>
  <path class="cls-2" d="M54.47,28.33s.93,6.03,1.73,11.17"/>
  <polygon class="cls-2" points="68.73 44.05 72.63 42.85 70.23 36.47 66.85 37.45 68.73 44.05"/>
  <polyline class="cls-2" points="46.6 41.72 68.07 41.72 67.44 39.51 45.86 39.51"/>
  <path class="cls-2" d="M58.82,16.19l-5.35,6.14s2.37-2.62,3.44-2.48,1.63.23,1.63.23l2.46-3.89h-2.19Z"/>
  <line class="cls-2" x1="36.23" y1="62.79" x2="43.23" y2="62.79"/>
  <path class="cls-2" d="M53.72,19.76s-2,.18-3.73.02"/>
  <path class="cls-2" d="M55.08,11.58c.05,2.78.55,5.67-.74,8.16"/>
  <path class="cls-2" d="M53.04,11.85c-.01,1.51.08,3.01.11,4.52.01.88-.11,2.81-.9,3.46"/>
  <path class="cls-2" d="M59.58,11.33c.13.86-.34,1.84-.7,2.54s-.43.84-.54,1.65"/>
  <path class="cls-2" d="M58.8,28.41c0,3.55,3.91,7.06,3.91,10.61"/>
  <path class="cls-2" d="M50.61,28.04c-.02,1.11,2.85,11.47,2.85,11.47"/>
  <path class="cls-2" d="M49.36,22.57c-.39-.68-1.09-1.97-1.65-2.34"/>
  <path class="cls-2" d="M38.78,64.23c0,1.28.19,2.41-1.01,3.17-.8.5-1.84.47-2.69.73"/>
  <path class="cls-2" d="M33.72,66.37c1.03.47,1.4,2.33,1.17,3.31"/>
  <line class="cls-2" x1="24.72" y1="69.87" x2="83.83" y2="69.87"/>
  <path class="cls-2" d="M44.79,67.92h-6.4"/>
  <path class="cls-2" d="M50.73,48.75c-2.95,0-5.93-.61-8.84-.5.24-1.17-.34-2.2-.6-3.29"/>
  <path class="cls-2" d="M62.28,52.25c1.49,1.65,2.82,3.41,4.29,5.07.99,1.11.95,1.05,2.38.53,1.05-.39,1.98-.99,3.02-1.37.53-.19,1.12-.24,1.41-.82"/>
  <path class="cls-2" d="M26.36,26.76c0-.95.03-1.86.19-2.8.07-.41.08-.88.24-1.27.07-.16.18-.29.23-.46"/>
  <path class="cls-2" d="M28.43,26.3c0-.68-.04-1.38.02-2.06s.28-1.31.41-1.97"/>
  <path class="cls-2" d="M30.29,26.73c0-.35,0-.7,0-1.05,0-.82.16-1.58.22-2.39.04-.55.2-1.04.31-1.49"/>
  <path class="cls-2" d="M32.36,27.1c0-.99,0-1.98,0-2.97,0-.6.18-1.21.17-1.8"/>
  <path class="cls-2" d="M26.56,28.76c-.23-1.3-.87-2.54-1.13-3.83"/>
  <path class="cls-2" d="M22.6,25.06h-.3s-7.25,0-7.25,0"/>
  <line class="cls-2" x1="33.28" y1="30.44" x2="27.87" y2="31.25"/>
  <line class="cls-2" x1="38.4" y1="26.42" x2="34" y2="26.42"/>
  <path class="cls-2" d="M39.04,29.73c0,.53.01,1.07-.01,1.59-.5.01-1.42.2-1.38.01"/>
  <path class="cls-2" d="M46.39,17.43c.31,0,1.8-.74,2.12-.74"/>
  <path class="cls-2" d="M63.72,41.74c-.18,1.9,1.05,4.29,1.34,6.23.1.7.11,1.89.46,2.41"/>
  <path class="cls-2" d="M53.85,42.07c-.07,2.4,1.76,4.6,1.68,6.84"/>
</svg>