<?xml version="1.0" encoding="UTF-8"?>
<svg id="Layer_1" data-name="Layer 1" xmlns="http://www.w3.org/2000/svg" viewBox="0 0 89.32 71.19">
  <defs>
    <style>
      .cls-1 {
        fill: #1c9b79;
      }

      .cls-2 {
        fill: none;
        stroke: #47385c;
        stroke-linecap: round;
        stroke-linejoin: round;
        stroke-width: 2px;
      }
    </style>
  </defs>
  <rect class="cls-1" x="0" y="67.76" width="68.47" height="3.43"/>
  <path class="cls-1" d="M48.99,18.35c-.09-.07-.15-.17-.26-.25-.24-.17-.57-.05-.76.14s-.29.52-.2.78c.09.29.44.46.54.77.19.58.6.99,1.16,1.21.25.1.52.18.74.33.25.18.37.43.67.55,1.13.46,2.3,1.01,3.56.85.04,0,.09-.01.12-.04.24-.16.28-.75.34-1,.12-.48.21-.97.28-1.46.2-1.44.32-3.07.13-4.52-.02-.17-.06-.35-.15-.49-.36-.55-1.4-.27-1.93-.26-1.22.03-2.97-.03-3.39,1.42-.09.32.07,2.31-.72,2.03-.05-.02-.09-.04-.13-.07Z"/>
  <path class="cls-1" d="M42.55,26.22c-.73,3.58-1.46,7.16-2.2,10.74-.1.47-.26,1.04-.44,1.65-.68,2.33,1.5,4.49,3.82,3.78.67-.2,1.37-.42,2.05-.63,3.34-1.03,6.68,1.55,6.55,5.04-.1,2.65-.54,5.33-.78,6.71-.64,3.55-1.41,8.99-1.41,8.99l7.38,3.37v2.11h-14.55v-12.65l-6.75,3.16v8.1c0,7.01-10.98,3-14.34,1.53-2.67-1.17-5.34-2.34-8.01-3.51l-5.69,4.84s-2.23,0-2.23,0c.36-1,.72-2.01,1.09-3.01.7-1.93,1.1-4.17,2.48-5.74,0,0,.08.18-.33-.89s.83-3.54,1.74-3.22l15.18,5.32s-.55-4-.92-8.51l-5.14.73c-.18-7.66.28-17.89,2.43-27.08,1.86-7.97,8.5-9.89,11.01-10.1,4.96-.43,7.15,2.14,7.15,2.14"/>
  <rect class="cls-1" x="50.56" y="12.6" width="2.95" height="7.8"/>
  <path class="cls-1" d="M83.68,19.07c1.27,0,.9,1.33,2.7,1.33h1.95v-7.8h-1.95c-1.79,0-1.43,1.33-2.7,1.33H17.93c-1.24,0-.88-1.33-2.63-1.33h-1.9v7.8h1.9c1.75,0,1.39-1.33,2.63-1.33h65.74Z"/>
  <path class="cls-1" d="M47.58,25.85l2.32-4.54,5.16,1.03-2.27,6.76c-2.27,6.76-9.37,4.44-9.37,4.44l-4.11-.88,1.63-6.66,6.63-.15Z"/>
  <path class="cls-1" d="M46.57,19.07s0,7.42-2.29,10.22c-.44.54-1.45,1.28-3.65,1.28-2.33,0-5.67-2.67-6.43-3.3-1.7-1.41-3.9-2.89-3.9-5.25,0-2.76,1.59-3.82,3.71-3.82s3.18,1.78,4.35,3.25c.55.69,2,2.02,2,2.02,0-.83.27-4.4.27-4.4h5.94Z"/>
  <path class="cls-2" d="M46.57,19.07s0,7.3-2.29,10.22c-.43.55-1.45,1.28-3.65,1.28-2.33,0-5.67-2.67-6.43-3.3-1.7-1.41-3.9-2.89-3.9-5.25,0-2.76,1.59-3.82,3.71-3.82s3.18,1.78,4.35,3.25c.55.69,2,2.02,2,2.02,0-.83.27-4.4.27-4.4h5.94Z"/>
  <path class="cls-1" d="M32.03,15.61c-.06-.66-.41-1.46-.72-2.03-.67-1.2-.72-2.37-.72-3.72l-1.3-.04s-.98-9.81,7.87-9.81c5.36,0,7.25,3.97,8.07,9.81l-2,.08.59,3.37c-.53-.01-.74,0-1.27,0,0,1.04.09,1.6-.14,2.36h-10.38Z"/>
  <line class="cls-2" x1="45.22" y1="9.81" x2="29.29" y2="9.81"/>
  <path class="cls-2" d="M41.62,11.85c-.42.01-1.34.02-1.34.02"/>
  <rect class="cls-2" x="50.56" y="12.6" width="2.95" height="7.8"/>
  <line class="cls-2" x1="84.32" y1="13.93" x2="84.32" y2="18.78"/>
  <line class="cls-2" x1="17.93" y1="13.93" x2="17.93" y2="19.07"/>
  <line class="cls-2" x1="13.4" y1="12.6" x2="13.4" y2="20.41"/>
  <line class="cls-2" x1="88.32" y1="12.6" x2="88.32" y2="20.41"/>
  <polygon class="cls-1" points="43.43 33.54 47.2 41.54 43.43 46.22 36.93 44.99 39.32 32.66 42.75 31.85 43.43 33.54"/>
  <line class="cls-2" x1="36.75" y1="51.7" x2="36.23" y2="58.48"/>
  <path class="cls-2" d="M29.76,53.41c0,3.12-.14,6.29.02,9.4,1.75-.16,4.67-.28,6.4.31"/>
  <path class="cls-2" d="M14.66,65.12c0-2.1.39-5.25,2.57-6.14"/>
  <line class="cls-2" x1="27.75" y1="19.07" x2="17.93" y2="19.07"/>
  <path class="cls-2" d="M39.11,30.68c-1.22,1.66,6.4,17.11,6.68,19.74l-20.61,2.97"/>
  <line class="cls-2" x1="25.18" y1="13.93" x2="50.56" y2="13.93"/>
  <path class="cls-2" d="M25.4,31.42c0,2.4-.4,5.07-.12,7.41,2.1-.25,4.44-.52,6.55-.56"/>
  <path class="cls-2" d="M25.54,31.13c1.89-.09,4.3-1.13,6.14-.43"/>
  <path class="cls-2" d="M30.04,9.85c.01,2.05.68,2.18,1.71,3.71"/>
  <path class="cls-2" d="M32.61,10c0,1.67-.05,3.18,2,3.28"/>
  <path class="cls-2" d="M35.18,10c0,1.38-.05,2.7.29,4"/>
  <path class="cls-2" d="M37.33,10c0,1.13-.25,2.59.57,3.43"/>
  <line class="cls-2" x1="50.56" y1="19.07" x2="40.63" y2="19.07"/>
  <line class="cls-2" x1="49.9" y1="21.31" x2="55.07" y2="22.34"/>
  <line class="cls-2" x1="53.51" y1="19.07" x2="60.48" y2="19.07"/>
  <line class="cls-2" x1="53.51" y1="13.99" x2="77.35" y2="13.99"/>
  <path class="cls-2" d="M42.85,42.52c.29,0,.59-.04.9-.14.67-.2,1.37-.42,2.05-.63,3.34-1.03,6.68,1.55,6.55,5.04"/>
  <path class="cls-2" d="M27.73,19.08c2.21-1.5,4.5-2.04,5.75-2.15,4.96-.43,7.15,2.14,7.15,2.14"/>
  <path class="cls-2" d="M22.47,27.04c.93-3.98,3.05-6.45,5.26-7.96"/>
  <path class="cls-2" d="M12.41,57.13c-.41,2.44-2.31,4.98-3.2,7.34-.48,1.27-1.36,3.7-1.36,3.7"/>
  <path class="cls-2" d="M9.16,65.27c1.21.02,1.97.74,2.82,1.41"/>
  <path class="cls-2" d="M14.91,62.02c-1.63-.18-4.19,1.68-4.23,3.36"/>
  <path class="cls-2" d="M42.8,62.32c1.54,0,3.18.15,4.7-.13.96-.18,1.95-.58,2.93-.49"/>
  <path class="cls-2" d="M54.95,64.62c-1.78.49-2.14,2.45-2.17,3.55"/>
  <line class="cls-2" x1="52.78" y1="66.01" x2="42.8" y2="66.01"/>
  <path class="cls-2" d="M47.27,62.36c-.06.99,1.17,3.45,3.42,3.65"/>
  <line class="cls-2" x1="1.68" y1="67.98" x2="65.25" y2="67.98"/>
  <path class="cls-2" d="M40.65,18.54c0-1.72-.11-4.54,2.09-4.85"/>
  <path class="cls-2" d="M46.47,18.54c0-.92-.07-1.68.34-2.49.32-.66.89-1.55.78-2.13"/>
  <path class="cls-2" d="M39.53,18.17c-.48-.78-.79-1.56-.97-2.46"/>
  <path class="cls-2" d="M42.59,16c.27-.67.84-1.53,1.49-1.94"/>
  <path class="cls-2" d="M44.83,15.85c-.06-.58.24-1.13.75-1.42"/>
</svg>