<?xml version="1.0" encoding="UTF-8"?>
<svg id="Layer_1" data-name="Layer 1" xmlns="http://www.w3.org/2000/svg" viewBox="0 0 71.55 83.26">
  <defs>
    <style>
      .cls-1 {
        fill: #1c9b79;
      }

      .cls-2 {
        fill: none;
        stroke: #47385c;
        stroke-linecap: round;
        stroke-linejoin: round;
        stroke-width: 2px;
      }
    </style>
  </defs>
  <path class="cls-1" d="M6.63,18.93c.22.08.45.12.67.18.28.07.36.06.4.32.04.28-.05.63-.07.91-.03.32-.05.98-.08,1.3,0,.08-.08.39-.04.46l.81,1.22-3.27,2.63-.64.51-2.58-2.48s-1.82-2.1-1.82-2.72.8-1.22.8-1.22l2.41-2.2s.41-.65.91-.42c.79.36,1.2.91,1.2.91.35.46.8.41,1.3.6Z"/>
  <path class="cls-2" d="M6.6,19.01l-2.45-.15s-.59.28-.28.8,2.17.77,2.17.77c0,0-.43,1.5-.25,2.27"/>
  <path class="cls-1" d="M27.9,21.54l1.65-3.18-.4-.31c-.64-.86-1.37-1.63-2.09-2.43-.53-.6-.96-1.26-1.48-1.87l-1.3.61c-1.09-3.14-3.77-9.78,3.2-12.5,7.2-2.81,11.27,5.67,11.27,5.67l-2.64,1.25,2.76,1.35-1.38,1.09s1.76,3.68-.43,5.05l-.69.56,3.12.4-11.59,4.31Z"/>
  <rect class="cls-1" x="17.42" y="80.67" width="53.22" height="2.59"/>
  <path class="cls-1" d="M45.01,23.68l5.26,15.45c.4,1.17,1.31,2.95,2.05,3.93,9.22,12.2,10.04,27.72,10.1,31.57,0,.56.32,1.07.82,1.34l2.93,1.58c.5.27.81.8.81,1.37v1.64h-10.97l-3.93-19.6-9.61-11.83h-3.08l-6.37,12.69-1.04,18.74h-11.68v-1.56c-.01-.57.3-1.74.8-2.02l3.18-1.74c.35-.19.54-.59.45-.98-.64-2.88-2.64-14.31,4.93-26.91,1.48-4.43,1.85-5.42,1.85-5.42l-4.68-10.72-8.39,3.42c-2.28,1.15-5.04.72-6.85-1.08l-7.19-7.1,4.8-3.86,6.53,5.91,11.95-6.98,14.91-5.54,10.47-3.33,8.87-7.15,4.31,3.45s-3.82,5.3-11.09,9.36c-7.27,4.07-10.14,5.34-10.14,5.34Z"/>
  <line class="cls-2" x1="4.4" y1="26.47" x2="9.2" y2="22.61"/>
  <polyline class="cls-2" points="29.41 18.21 36.55 27.58 29.9 23.76 30.89 22.09 27.68 21.54"/>
  <polyline class="cls-2" points="39.82 17.03 37.75 20.06 39.82 20.8 36.55 27.58 36.55 16.61"/>
  <path class="cls-2" d="M36.55,27.58s2.1,5.79,3.27,10.84c1.17,5.05.92,10.72.92,10.72l-10.55-2.06"/>
  <polyline class="cls-2" points="40.76 43.22 42.47 49.13 52.8 44.58"/>
  <path class="cls-2" d="M36.37,16.83c-1.65.59-3.81,1.32-4.86.61"/>
  <path class="cls-2" d="M27.57,12.82s.15.26.49,1,.95,1.31,2.02.9"/>
  <line class="cls-2" x1="35.24" y1="10.2" x2="34.11" y2="10.85"/>
  <line class="cls-2" x1="37.88" y1="12.82" x2="36.38" y2="13.95"/>
  <path class="cls-1" d="M61.93,5.52l1.65-1.57c.17-.17.14-1.23.2-1.52.11-.56.3-1.49.75-1.88s1-.04,1.4.38c0,0,.52-1.03,1.06-.92s.72.39,1.29.68.96.39,1.6,1.14,1.14,2.22,1.14,2.22c-.04.71-2.63,3.08-2.63,3.08l-2.13,1.85-4.31-3.45Z"/>
  <path class="cls-2" d="M5.76,22.38s-.91,1.15-1.97,1.34-1.47-.33-1.47-.33"/>
  <polyline class="cls-2" points="48.08 46.66 52.8 52.59 56.75 50.51"/>
  <polyline class="cls-2" points="34.97 48.01 32.12 54.34 26.81 53.06"/>
  <line class="cls-2" x1="61.93" y1="5.52" x2="66.24" y2="8.97"/>
  <path class="cls-2" d="M29.59,11.9c-.03,1.83,1.88,4.55,3.02,5.84"/>
  <path class="cls-2" d="M31.19,11.24c-.09,1.21,3.04,5.58,3.48,6.05"/>
  <line class="cls-2" x1="24.29" y1="14.37" x2="38.75" y2="7.54"/>
  <path class="cls-2" d="M54.79,74.51c2.46,0,4.93.22,7.32,0"/>
  <path class="cls-2" d="M24.66,74.65c1.55.05,3.09-.19,4.65-.14h2.68"/>
  <path class="cls-2" d="M21,77.05c.94.51,1.11,1.79,1.28,2.73-.13-.11-.18-.27-.15-.48"/>
  <line class="cls-2" x1="22.12" y1="78.6" x2="31.56" y2="78.6"/>
  <path class="cls-2" d="M29.58,74.51c.17,1.61-1.21,3.85-2.96,3.8"/>
  <path class="cls-2" d="M65.63,77.05c-1.63.19-2.01.96-1.97,2.39"/>
  <line class="cls-2" x1="63.23" y1="78.6" x2="55.77" y2="78.6"/>
  <path class="cls-2" d="M57.88,74.93c-.21,1.74,1.83,3.24,3.38,3.24"/>
  <line class="cls-2" x1="17.34" y1="80.56" x2="70.55" y2="80.56"/>
  <path class="cls-2" d="M65.48,2.45c0,.5-.14,1.11.21,1.51s1.03.4,1.47.66c.56.32.96.91,1.51,1.2"/>
  <path class="cls-2" d="M39.45,28c-.08,1.91,1.49,4.5,2.22,6.28,1.84-.03,3.25-1.05,4.88-1.64-1.46-1.98-1.64-4.06-2.87-6.01"/>
  <path class="cls-2" d="M34.53,29.23c-.03,2.35.59,4.67,1.04,6.95-1.56-.03-3.11,1.01-4.57.82-.68-2.05-1.57-3.95-1.94-5.99"/>
  <path class="cls-2" d="M4.97,20.64c-.2.42-.42.85-.86,1.01-.28.1-.64.08-.9.21-.49.24-1.03,1.08-1.67.81"/>
  <path class="cls-2" d="M25.5,13.99c.14,1.51,1.96,1.49,2.64,2.57"/>
  <path class="cls-2" d="M31.45,20.45c2.06,1.4,3.21.05,4.99-.83"/>
</svg>