<?xml version="1.0" encoding="UTF-8"?>
<svg id="Layer_1" data-name="Layer 1" xmlns="http://www.w3.org/2000/svg" xmlns:xlink="http://www.w3.org/1999/xlink" viewBox="0 0 98 55">
  <defs>
    <style>
      .cls-1, .cls-2 {
        fill: none;
      }

      .cls-2 {
        stroke: #47395c;
        stroke-linecap: round;
        stroke-linejoin: round;
        stroke-width: 2px;
      }

      .cls-3 {
        fill: #00a38f;
      }

      .cls-4 {
        clip-path: url(#clippath);
      }
    </style>
    <clipPath id="clippath">
      <rect class="cls-1" x=".73" y="0" width="96.32" height="54.35"/>
    </clipPath>
  </defs>
  <g class="cls-4">
    <g>
      <path class="cls-3" d="M79.04,52.07l14.03-10.04c1.79-1.21,2.98-3.26,2.98-5.58,0-3.71-3.01-6.71-6.71-6.71L7.78,36.46c-3.39.34-6.05,3.22-6.05,6.7,0,3.24,2.29,5.95,5.34,6.57l14.76,3.36c.52.16,1.09.25,1.66.25h52.03c1.34,0,2.56-.48,3.52-1.28h0Z"/>
      <path class="cls-2" d="M72.39,10.63l15.32-9.63"/>
      <path class="cls-3" d="M6.5,33.02l-.59-12.77,33.88-3.29h33.71v10.47L6.5,33.02Z"/>
      <path class="cls-3" d="M91.07,26.28l-4.22,16.09-12.52,3.85H7.78l-4.01-12.27c1.11-.57,2.35-.94,3.66-1.07l81.77-6.75h.15c.49,0,1.26.08,1.73.15h-.01Z"/>
      <path class="cls-2" d="M1.96,35.12c1.51-1.22,3.38-2.03,5.46-2.24l81.77-6.75h.15c1.96,0,3.79.55,5.35,1.5"/>
      <path class="cls-2" d="M8.44,49.87c3.71,0,6.71-3,6.71-6.71s-3-6.71-6.71-6.71-6.71,3-6.71,6.71,3,6.71,6.71,6.71Z"/>
      <path class="cls-2" d="M8.44,45.65c1.38,0,2.49-1.11,2.49-2.49s-1.11-2.49-2.49-2.49-2.49,1.11-2.49,2.49,1.11,2.49,2.49,2.49Z"/>
      <path class="cls-2" d="M89.33,43.16c3.71,0,6.71-3,6.71-6.71s-3-6.71-6.71-6.71-6.71,3-6.71,6.71,3,6.71,6.71,6.71Z"/>
      <path class="cls-2" d="M89.33,38.94c1.38,0,2.49-1.11,2.49-2.49s-1.11-2.49-2.49-2.49-2.49,1.11-2.49,2.49,1.11,2.49,2.49,2.49Z"/>
      <path class="cls-2" d="M23.49,53.35c3.03,0,5.49-2.46,5.49-5.49s-2.46-5.49-5.49-5.49-5.49,2.46-5.49,5.49,2.46,5.49,5.49,5.49Z"/>
      <path class="cls-2" d="M23.49,49.29c.79,0,1.43-.64,1.43-1.43s-.64-1.43-1.43-1.43-1.43.64-1.43,1.43.64,1.43,1.43,1.43Z"/>
      <path class="cls-2" d="M33.56,40.3c1.65,0,2.99-1.34,2.99-2.99s-1.34-2.99-2.99-2.99-2.99,1.34-2.99,2.99,1.34,2.99,2.99,2.99Z"/>
      <path class="cls-2" d="M63.69,37.82c1.65,0,2.99-1.34,2.99-2.99s-1.34-2.99-2.99-2.99-2.99,1.34-2.99,2.99,1.34,2.99,2.99,2.99Z"/>
      <path class="cls-2" d="M39.78,53.35c3.03,0,5.49-2.46,5.49-5.49s-2.46-5.49-5.49-5.49-5.49,2.46-5.49,5.49,2.46,5.49,5.49,5.49Z"/>
      <path class="cls-2" d="M39.79,49.29c.79,0,1.43-.64,1.43-1.43s-.64-1.43-1.43-1.43-1.43.64-1.43,1.43.64,1.43,1.43,1.43Z"/>
      <path class="cls-2" d="M23.68,47.86l8.05-2.53,8.06,2.53"/>
      <path class="cls-2" d="M59.24,53.35c3.03,0,5.49-2.46,5.49-5.49s-2.46-5.49-5.49-5.49-5.49,2.46-5.49,5.49,2.46,5.49,5.49,5.49Z"/>
      <path class="cls-2" d="M59.24,49.29c.79,0,1.43-.64,1.43-1.43s-.64-1.43-1.43-1.43-1.43.64-1.43,1.43.64,1.43,1.43,1.43Z"/>
      <path class="cls-2" d="M75.53,53.35c3.03,0,5.49-2.46,5.49-5.49s-2.46-5.49-5.49-5.49-5.49,2.46-5.49,5.49,2.46,5.49,5.49,5.49Z"/>
      <path class="cls-2" d="M75.54,49.29c.79,0,1.43-.64,1.43-1.43s-.64-1.43-1.43-1.43-1.43.64-1.43,1.43.64,1.43,1.43,1.43Z"/>
      <path class="cls-2" d="M59.41,47.86l8.06-2.53,8.06,2.53"/>
      <path class="cls-2" d="M79.04,52.07l14.03-10.04c1.79-1.21,2.98-3.26,2.98-5.58,0-3.71-3.01-6.71-6.71-6.71L7.78,36.46c-3.39.34-6.05,3.22-6.05,6.7,0,3.24,2.29,5.95,5.34,6.57l14.76,3.36c.52.16,1.09.25,1.66.25h52.03c1.34,0,2.56-.48,3.52-1.28h0Z"/>
      <path class="cls-3" d="M66.68,7.1h-26.89v9.87h26.89V7.1Z"/>
      <path class="cls-2" d="M66.68,16.96h-26.89"/>
      <path class="cls-3" d="M60.09,2.88h-16.34v4.21h16.34V2.88Z"/>
      <path class="cls-2" d="M43.75,7.1h16.34"/>
      <path class="cls-3" d="M73.5,14.7h-6.82v-5.23h4.54l2.28,2.24v2.99Z"/>
      <path class="cls-2" d="M66.68,14.7v-5.23"/>
      <path class="cls-2" d="M64.72,16.96v11.14"/>
    </g>
  </g>
</svg>