<?xml version="1.0" encoding="UTF-8"?>
<svg id="Layer_1" data-name="Layer 1" xmlns="http://www.w3.org/2000/svg" viewBox="0 0 70.49 88.93">
  <defs>
    <style>
      .cls-1 {
        fill: #1c9b79;
      }

      .cls-2 {
        fill: none;
        stroke: #47385c;
        stroke-linecap: round;
        stroke-linejoin: round;
        stroke-width: 2px;
      }

      .cls-3 {
        fill: #f0484a;
      }
    </style>
  </defs>
  <g>
    <polygon class="cls-1" points="29.42 51.08 40.33 51.08 34.11 40.17 29.42 51.08"/>
    <path class="cls-3" d="M35.24,18.6s3.4,10.13,3.4,10.13c0,0,9.93-.01,11.33.02,6.96.15,11.17,3.89,12.9,10.61.96,3.73.42,8.16-1.99,11.35-1.3,1.72-3.04,2.95-5.09,3.62-2.2.72-4.64.8-5.8,3.21-1.29,2.71,2.1,6.4,4.42,6.71-6.07,29.18-15.66,5.35-19.17,20.25-3.51-14.9-13.1,8.93-19.17-20.25,2.32-.31,5.71-4,4.42-6.71-1.15-2.42-3.6-2.49-5.8-3.21-2.04-.67-3.79-1.9-5.09-3.62-2.41-3.2-2.95-7.62-1.99-11.35,1.73-6.72,5.94-10.46,12.9-10.61,1.4-.03,11.33-.02,11.33-.02,0,0,3.4-10.13,3.4-10.13M27.94,59.81l14.61.06c.01-.11-7.3-16.04-7.3-16.04l-7.3,15.98ZM40.16,64.57c-3.26-1.29-7.7-1.46-10.73.57-2.38,1.6-4.09,5.58-2.12,8.11,1.35,1.74,9.68,1.12,11.73,1.12,3.45,0,5.57-.64,5.08-5.49-.2-2-1.8-3.47-3.96-4.32ZM16.43,39.13c-2.58,2.98-2.18,6.82,1.31,8.85,3.43,2,8.15,1.68,11.44-.43,3.32-2.14,2.53-7.09-.17-9.4-2.75-2.36-6.95-2.64-10.11-.98-.91.48-1.75,1.13-2.47,1.96ZM51.71,36.94c-2.87-1.23-6.46-1.02-9.15.4-3.67,1.93-5.09,7.75-1.26,10.21,3.26,2.1,8.52,2.31,11.81.21,3.3-2.11,4.1-5.86,1.41-8.84-.78-.87-1.75-1.53-2.82-1.99Z"/>
    <path class="cls-1" d="M69.41,48.47s.07.02.07.02c0-9.71-1.53-29.47-1.53-29.47-2.28-5.42-8.46-10.23-13.83-13.86C48.01,1.04,39.97.5,32.79.77c-5.83.22-11.26,1.68-15.92,5.24-5.68,4.35-12.06,9.57-14.44,15.34,0,0-1.44,17.57-1.44,27.14l.07-.02c-.34,7.58.45,14.97,4.26,22.08,1.54,2.88,3.98,5.29,5.95,7.88,1.99,2.62,4.08,5.26,6.93,6.98,3.62,2.2,7.95,2.61,12.1,2.54,1.64-.03,3.29-.02,4.94-.03,6.92-.03,13.27.76,18.95-3.99,2.54-2.12,4.57-4.76,6.53-7.4,1.93-2.59,4.04-4.98,5.38-7.92,1.47-3.2,2.41-6.62,2.91-10.1.13-.93,1.12-9.86.39-10.04ZM60.87,50.71c-1.3,1.72-3.04,2.95-5.09,3.62-2.2.72-4.64.8-5.8,3.21-1.29,2.71,2.1,6.4,4.42,6.71-6.07,29.18-15.66,5.35-19.17,20.25-3.51-14.9-13.1,8.93-19.17-20.25,2.32-.31,5.71-4,4.42-6.71-1.15-2.42-3.6-2.49-5.8-3.21-2.04-.67-3.79-1.9-5.09-3.62-2.41-3.2-2.95-7.62-1.99-11.35,1.73-6.72,5.94-10.46,12.9-10.61,1.4-.03,11.33-.02,11.33-.02l3.4-10.13,3.4,10.13s9.93-.01,11.33.02c6.96.15,11.17,3.89,12.9,10.61.96,3.73.42,8.16-1.99,11.35Z"/>
    <path class="cls-2" d="M1,39.2c2.69.49,2.34,9.89.07,10.36"/>
    <path class="cls-2" d="M69.49,39.2c-2.69.49-2.34,9.89-.07,10.36"/>
    <line class="cls-2" x1="35.24" y1="43.83" x2="35.24" y2="1"/>
    <line class="cls-2" x1="35.24" y1="63.61" x2="35.24" y2="59.87"/>
    <line class="cls-2" x1="35.24" y1="87.93" x2="35.24" y2="74.49"/>
  </g>
  <line class="cls-2" x1="2.22" y1="24.18" x2="68.54" y2="24.96"/>
</svg>